SplineFontDB: 3.0
FontName: Topmarks-Bold
FullName: Topmarks Bold
FamilyName: Topmarks
Weight: Bold
Copyright: Copyright (c) 2012-13 by vernon adams. All rights reserved.
Version: 
ItalicAngle: 0
UnderlinePosition: 0
UnderlineWidth: 0
Ascent: 1638
Descent: 410
sfntRevision: 0x00010000
LayerCount: 2
Layer: 0 1 "Back"  1
Layer: 1 1 "Fore"  0
XUID: [1021 913 -2060267417 13316495]
FSType: 1
OS2Version: 1
OS2_WeightWidthSlopeOnly: 0
OS2_UseTypoMetrics: 1
CreationTime: 1369860236
ModificationTime: 1369860428
PfmFamily: 17
TTFWeight: 700
TTFWidth: 5
LineGap: 0
VLineGap: 0
Panose: 2 0 8 3 0 0 0 0 0 0
OS2TypoAscent: 1638
OS2TypoAOffset: 0
OS2TypoDescent: -410
OS2TypoDOffset: 0
OS2TypoLinegap: 0
OS2WinAscent: 1508
OS2WinAOffset: 0
OS2WinDescent: 540
OS2WinDOffset: 0
HheadAscent: 2471
HheadAOffset: 0
HheadDescent: -1101
HheadDOffset: 0
OS2SubXSize: 1331
OS2SubYSize: 1433
OS2SubXOff: 0
OS2SubYOff: 286
OS2SupXSize: 1331
OS2SupYSize: 1433
OS2SupXOff: 0
OS2SupYOff: 983
OS2StrikeYSize: 102
OS2StrikeYPos: 530
OS2Vendor: 'newt'
OS2CodePages: 20000081.00000000
OS2UnicodeRanges: 800000ef.4000204b.00000000.00000000
Lookup: 258 0 0 "'kern' Horizontal Kerning in Latin lookup 0"  {"'kern' Horizontal Kerning in Latin lookup 0 kerning class 0"  "'kern' Horizontal Kerning in Latin lookup 0 per glyph data 1"  } ['kern' ('latn' <'dflt' > ) ]
Lookup: 260 0 0 "Mark to base attachment lookup 1"  {"Mark to base attachment lookup 1 subtable"  } []
MarkAttachClasses: 1
DEI: 91125
KernClass2: 16 21 "'kern' Horizontal Kerning in Latin lookup 0 kerning class 0" 
 89 A Agrave Aacute Acircumflex Atilde Adieresis Aring Amacron Abreve Aogonek uni0200 uni0202
 1 D
 1 F
 14 G Gcommaaccent
 1 K
 1 L
 1 P
 44 R Racute Rcommaaccent Rcaron uni0210 uni0212
 9 T uni021A
 1 V
 1 W
 18 Y Yacute Ydieresis
 24 c ccedilla cacute ccaron
 60 o ograve oacute ocircumflex otilde odieresis uni020D uni020F
 37 r rcommaaccent rcaron uni0211 uni0213

StartChar: exclam
Encoding: 33 33 4
Width: 782
GlyphClass: 2
Flags: W
LayerCount: 2
UndoRedoHistory
Layer: 1
Undoes
EndUndoes
Redoes
EndRedoes
EndUndoRedoHistory
Fore
SplineSet
391 -12 m 128,-1,1
 319 -12 319 -12 272.5 33 c 128,-1,2
 226 78 226 78 226 149 c 0,3,4
 226 218 226 218 272.5 262 c 128,-1,5
 319 306 319 306 391 306 c 128,-1,6
 463 306 463 306 509.5 261.5 c 128,-1,7
 556 217 556 217 556 146 c 0,8,9
 556 76 556 76 509.5 32 c 128,-1,0
 463 -12 463 -12 391 -12 c 128,-1,1
319 498 m 1,10,-1
 228 1456 l 1,11,-1
 542 1456 l 1,12,-1
 448 498 l 1,13,-1
 319 498 l 1,10,-1
EndSplineSet
EndChar

StartChar: quotedbl
Encoding: 34 34 5
Width: 815
GlyphClass: 2
Flags: W
LayerCount: 2
UndoRedoHistory
Layer: 1
Undoes
EndUndoes
Redoes
EndRedoes
EndUndoRedoHistory
Fore
SplineSet
508 884 m 1,0,-1
 466 1456 l 1,1,-1
 687 1456 l 1,2,-1
 657 884 l 1,3,-1
 508 884 l 1,0,-1
170 884 m 1,4,-1
 128 1456 l 1,5,-1
 349 1456 l 1,6,-1
 319 884 l 1,7,-1
 170 884 l 1,4,-1
EndSplineSet
EndChar

StartChar: numbersign
Encoding: 35 35 6
Width: 1378
GlyphClass: 2
Flags: W
LayerCount: 2
UndoRedoHistory
Layer: 1
Undoes
EndUndoes
Redoes
EndRedoes
EndUndoRedoHistory
Fore
SplineSet
294 0 m 1,0,-1
 377 432 l 1,1,-1
 86 432 l 1,2,-1
 99 579 l 1,3,-1
 402 579 l 1,4,-1
 456 903 l 1,5,-1
 162 903 l 1,6,-1
 178 1048 l 1,7,-1
 478 1048 l 1,8,-1
 552 1456 l 1,9,-1
 707 1456 l 1,10,-1
 635 1048 l 1,11,-1
 912 1048 l 1,12,-1
 983 1456 l 1,13,-1
 1143 1456 l 1,14,-1
 1065 1048 l 1,15,-1
 1344 1048 l 1,16,-1
 1327 903 l 1,17,-1
 1041 903 l 1,18,-1
 986 579 l 1,19,-1
 1270 579 l 1,20,-1
 1253 432 l 1,21,-1
 963 432 l 1,22,-1
 886 0 l 1,23,-1
 733 0 l 1,24,-1
 806 432 l 1,25,-1
 530 432 l 1,26,-1
 454 0 l 1,27,-1
 294 0 l 1,0,-1
553 579 m 1,28,-1
 833 579 l 1,29,-1
 887 903 l 1,30,-1
 611 903 l 1,31,-1
 553 579 l 1,28,-1
EndSplineSet
EndChar

StartChar: dollar
Encoding: 36 36 7
Width: 1255
GlyphClass: 2
Flags: W
LayerCount: 2
UndoRedoHistory
Layer: 1
Undoes
EndUndoes
Redoes
EndRedoes
EndUndoRedoHistory
Fore
SplineSet
608 -213 m 1,0,-1
 610 1628 l 1,1,-1
 739 1628 l 1,2,-1
 739 -213 l 1,3,-1
 608 -213 l 1,0,-1
684 -22 m 0,4,5
 799 -22 799 -22 888.5 10.5 c 128,-1,6
 978 43 978 43 1033.5 100.5 c 128,-1,7
 1089 158 1089 158 1118 232 c 128,-1,8
 1147 306 1147 306 1149 393 c 0,9,10
 1153 579 1153 579 1057 678.5 c 128,-1,11
 961 778 961 778 698 868 c 1,12,13
 606 901 606 901 551.5 928 c 128,-1,14
 497 955 497 955 469 984 c 128,-1,15
 441 1013 441 1013 433 1039 c 128,-1,16
 425 1065 425 1065 425 1107 c 0,17,18
 425 1186 425 1186 481.5 1230 c 128,-1,19
 538 1274 538 1274 674 1274 c 0,20,21
 824 1274 824 1274 1027 1166 c 1,22,-1
 1097 1360 l 1,23,24
 898 1482 898 1482 658 1482 c 0,25,26
 530 1482 530 1482 433 1449.5 c 128,-1,27
 336 1417 336 1417 279 1359 c 128,-1,28
 222 1301 222 1301 194.5 1229.5 c 128,-1,29
 167 1158 167 1158 167 1074 c 0,30,31
 167 1005 167 1005 184.5 952 c 128,-1,32
 202 899 202 899 245.5 848 c 128,-1,33
 289 797 289 797 368 752 c 128,-1,34
 447 707 447 707 565 666 c 1,35,36
 660 635 660 635 725.5 605.5 c 128,-1,37
 791 576 791 576 827.5 552 c 128,-1,38
 864 528 864 528 883.5 498.5 c 128,-1,39
 903 469 903 469 908 445.5 c 128,-1,40
 913 422 913 422 913 387 c 0,41,42
 913 302 913 302 851.5 244 c 128,-1,43
 790 186 790 186 675 186 c 0,44,45
 476 186 476 186 234 321 c 1,46,-1
 175 123 l 1,47,48
 279 57 279 57 418.5 17.5 c 128,-1,49
 558 -22 558 -22 684 -22 c 0,4,5
EndSplineSet
EndChar

StartChar: percent
Encoding: 37 37 8
Width: 2342
GlyphClass: 2
Flags: W
LayerCount: 2
UndoRedoHistory
Layer: 1
Undoes
EndUndoes
Redoes
EndRedoes
EndUndoRedoHistory
Fore
SplineSet
516 581 m 0,0,1
 382 581 382 581 286.5 643 c 128,-1,2
 191 705 191 705 146.5 803.5 c 128,-1,3
 102 902 102 902 102 1025 c 0,4,5
 102 1232 102 1232 219 1353.5 c 128,-1,6
 336 1475 336 1475 522 1475 c 0,7,8
 718 1475 718 1475 826 1354 c 128,-1,9
 934 1233 934 1233 934 1030 c 0,10,11
 934 824 934 824 817.5 702.5 c 128,-1,12
 701 581 701 581 516 581 c 0,0,1
524 737 m 0,13,14
 634 737 634 737 691 820 c 128,-1,15
 748 903 748 903 748 1031 c 0,16,17
 748 1163 748 1163 690 1241.5 c 128,-1,18
 632 1320 632 1320 525 1320 c 0,19,20
 412 1320 412 1320 355 1237.5 c 128,-1,21
 298 1155 298 1155 298 1027 c 0,22,23
 298 898 298 898 354.5 817.5 c 128,-1,24
 411 737 411 737 524 737 c 0,13,14
1830 134 m 0,25,26
 1940 134 1940 134 1997 217 c 128,-1,27
 2054 300 2054 300 2054 428 c 0,28,29
 2054 560 2054 560 1996 638.5 c 128,-1,30
 1938 717 1938 717 1831 717 c 0,31,32
 1718 717 1718 717 1661 634.5 c 128,-1,33
 1604 552 1604 552 1604 424 c 0,34,35
 1604 295 1604 295 1660.5 214.5 c 128,-1,36
 1717 134 1717 134 1830 134 c 0,25,26
1822 -22 m 0,37,38
 1688 -22 1688 -22 1592.5 40 c 128,-1,39
 1497 102 1497 102 1452.5 200.5 c 128,-1,40
 1408 299 1408 299 1408 422 c 0,41,42
 1408 629 1408 629 1525 750.5 c 128,-1,43
 1642 872 1642 872 1828 872 c 0,44,45
 2024 872 2024 872 2132 751 c 128,-1,46
 2240 630 2240 630 2240 427 c 0,47,48
 2240 221 2240 221 2123.5 99.5 c 128,-1,49
 2007 -22 2007 -22 1822 -22 c 0,37,38
591 0 m 1,50,-1
 1563 1470 l 1,51,-1
 1765 1470 l 1,52,-1
 802 0 l 1,53,-1
 591 0 l 1,50,-1
EndSplineSet
EndChar

StartChar: ampersand
Encoding: 38 38 9
Width: 1590
GlyphClass: 2
Flags: W
LayerCount: 2
UndoRedoHistory
Layer: 1
Undoes
EndUndoes
Redoes
EndRedoes
EndUndoRedoHistory
Fore
SplineSet
672 -21 m 0,0,1
 440 -21 440 -21 293 89.5 c 128,-1,2
 146 200 146 200 146 397 c 0,3,4
 146 449 146 449 156 495 c 128,-1,5
 166 541 166 541 180 575 c 128,-1,6
 194 609 194 609 220.5 642.5 c 128,-1,7
 247 676 247 676 270 698 c 128,-1,8
 293 720 293 720 331 746.5 c 128,-1,9
 369 773 369 773 394.5 788.5 c 128,-1,10
 420 804 420 804 463 829 c 0,11,12
 472 834 472 834 477 837 c 1,13,14
 425 893 425 893 397.5 929.5 c 128,-1,15
 370 966 370 966 346.5 1028 c 128,-1,16
 323 1090 323 1090 323 1162 c 0,17,18
 323 1306 323 1306 425.5 1394.5 c 128,-1,19
 528 1483 528 1483 672 1483 c 0,20,21
 829 1483 829 1483 935 1404 c 128,-1,22
 1041 1325 1041 1325 1041 1191 c 0,23,24
 1041 945 1041 945 767 792 c 1,25,-1
 1101 436 l 1,26,27
 1169 529 1169 529 1206 657.5 c 128,-1,28
 1243 786 1243 786 1243 919 c 1,29,-1
 1435 871 l 1,30,31
 1428 697 1428 697 1376 548.5 c 128,-1,32
 1324 400 1324 400 1237 289 c 1,33,34
 1303 221 1303 221 1373 180.5 c 128,-1,35
 1443 140 1443 140 1576 112 c 1,36,-1
 1469 -36 l 1,37,38
 1267 -7 1267 -7 1109 159 c 1,39,40
 1020 65 1020 65 923 22 c 128,-1,41
 826 -21 826 -21 672 -21 c 0,0,1
688 178 m 0,42,43
 784 178 784 178 846.5 203.5 c 128,-1,44
 909 229 909 229 970 293 c 1,45,-1
 597 684 l 1,46,47
 591 680 591 680 578 673 c 0,48,49
 479 618 479 618 444 582 c 0,50,51
 379 516 379 516 379 408 c 0,52,53
 379 355 379 355 396.5 314 c 128,-1,54
 414 273 414 273 443 248 c 128,-1,55
 472 223 472 223 513.5 206.5 c 128,-1,56
 555 190 555 190 597 184 c 128,-1,57
 639 178 639 178 688 178 c 0,42,43
648 930 m 1,58,59
 728 976 728 976 784.5 1038.5 c 128,-1,60
 841 1101 841 1101 841 1174 c 0,61,62
 841 1242 841 1242 796 1278.5 c 128,-1,63
 751 1315 751 1315 682 1315 c 128,-1,64
 613 1315 613 1315 569 1278.5 c 128,-1,65
 525 1242 525 1242 525 1174 c 0,66,67
 525 1122 525 1122 544.5 1074.5 c 128,-1,68
 564 1027 564 1027 586 999.5 c 128,-1,69
 608 972 608 972 648 930 c 1,58,59
EndSplineSet
EndChar

StartChar: quotesingle
Encoding: 39 39 10
Width: 477
GlyphClass: 2
Flags: W
LayerCount: 2
UndoRedoHistory
Layer: 1
Undoes
EndUndoes
Redoes
EndRedoes
EndUndoRedoHistory
Fore
SplineSet
170 908 m 1,0,-1
 128 1480 l 1,1,-1
 349 1480 l 1,2,-1
 319 908 l 1,3,-1
 170 908 l 1,0,-1
EndSplineSet
EndChar

StartChar: parenleft
Encoding: 40 40 11
Width: 821
GlyphClass: 2
Flags: W
LayerCount: 2
UndoRedoHistory
Layer: 1
Undoes
EndUndoes
Redoes
EndRedoes
EndUndoRedoHistory
Fore
SplineSet
714 1564 m 1,0,1
 640 1406 640 1406 599 1308.5 c 128,-1,2
 558 1211 558 1211 521.5 1100 c 128,-1,3
 485 989 485 989 470.5 890 c 128,-1,4
 456 791 456 791 456 678 c 0,5,6
 456 584 456 584 468 495 c 128,-1,7
 480 406 480 406 498.5 331 c 128,-1,8
 517 256 517 256 555 154.5 c 128,-1,9
 593 53 593 53 627.5 -26.5 c 128,-1,10
 662 -106 662 -106 725 -244 c 1,11,-1
 498 -244 l 1,12,13
 425 -108 425 -108 384.5 -27.5 c 128,-1,14
 344 53 344 53 299.5 153.5 c 128,-1,15
 255 254 255 254 233.5 329 c 128,-1,16
 212 404 212 404 198 492.5 c 128,-1,17
 184 581 184 581 184 675 c 0,18,19
 184 789 184 789 201 888 c 128,-1,20
 218 987 218 987 261 1099 c 128,-1,21
 304 1211 304 1211 352 1308 c 128,-1,22
 400 1405 400 1405 487 1564 c 1,23,-1
 714 1564 l 1,0,1
EndSplineSet
EndChar

StartChar: parenright
Encoding: 41 41 12
Width: 821
GlyphClass: 2
Flags: W
LayerCount: 2
UndoRedoHistory
Layer: 1
Undoes
EndUndoes
Redoes
EndRedoes
EndUndoRedoHistory
Fore
SplineSet
131 -244 m 1,0,1
 205 -86 205 -86 246 11.5 c 128,-1,2
 287 109 287 109 323.5 220 c 128,-1,3
 360 331 360 331 374.5 430 c 128,-1,4
 389 529 389 529 389 642 c 0,5,6
 389 736 389 736 377 825 c 128,-1,7
 365 914 365 914 346.5 989 c 128,-1,8
 328 1064 328 1064 290 1165.5 c 128,-1,9
 252 1267 252 1267 217.5 1346.5 c 128,-1,10
 183 1426 183 1426 120 1564 c 1,11,-1
 347 1564 l 1,12,13
 420 1428 420 1428 460.5 1347.5 c 128,-1,14
 501 1267 501 1267 545.5 1166.5 c 128,-1,15
 590 1066 590 1066 611.5 991 c 128,-1,16
 633 916 633 916 647 827.5 c 128,-1,17
 661 739 661 739 661 645 c 0,18,19
 661 531 661 531 644 432 c 128,-1,20
 627 333 627 333 584 221 c 128,-1,21
 541 109 541 109 493 12 c 128,-1,22
 445 -85 445 -85 358 -244 c 1,23,-1
 131 -244 l 1,0,1
EndSplineSet
EndChar

StartChar: asterisk
Encoding: 42 42 13
Width: 1091
GlyphClass: 2
Flags: W
LayerCount: 2
UndoRedoHistory
Layer: 1
Undoes
EndUndoes
Redoes
EndRedoes
EndUndoRedoHistory
Fore
SplineSet
716 618 m 1,0,-1
 547 930 l 1,1,-1
 384 627 l 1,2,-1
 238 715 l 1,3,-1
 456 995 l 1,4,-1
 135 1104 l 1,5,-1
 199 1250 l 1,6,-1
 495 1100 l 1,7,-1
 465 1456 l 1,8,-1
 616 1456 l 1,9,-1
 603 1106 l 1,10,-1
 887 1251 l 1,11,-1
 963 1105 l 1,12,-1
 634 999 l 1,13,-1
 864 704 l 1,14,-1
 716 618 l 1,0,-1
EndSplineSet
EndChar

StartChar: plus
Encoding: 43 43 14
Width: 1354
GlyphClass: 2
Flags: W
LayerCount: 2
UndoRedoHistory
Layer: 1
Undoes
EndUndoes
Redoes
EndRedoes
EndUndoRedoHistory
Fore
SplineSet
585 135 m 1,0,-1
 585 611 l 1,1,-1
 152 611 l 1,2,-1
 152 795 l 1,3,-1
 587 795 l 1,4,-1
 587 1272 l 1,5,-1
 781 1272 l 1,6,-1
 781 795 l 1,7,-1
 1202 795 l 1,8,-1
 1202 611 l 1,9,-1
 779 611 l 1,10,-1
 779 135 l 1,11,-1
 585 135 l 1,0,-1
EndSplineSet
EndChar

StartChar: comma
Encoding: 44 44 15
Width: 532
GlyphClass: 2
Flags: W
AnchorPoint: "Anchor-1" 268 346 mark 0
LayerCount: 2
UndoRedoHistory
Layer: 1
Undoes
EndUndoes
Redoes
EndRedoes
EndUndoRedoHistory
Fore
SplineSet
94 -297 m 1,0,-1
 184 255 l 1,1,-1
 439 255 l 1,2,-1
 248 -297 l 1,3,-1
 94 -297 l 1,0,-1
EndSplineSet
EndChar

StartChar: hyphen
Encoding: 45 45 16
Width: 1115
GlyphClass: 2
Flags: W
LayerCount: 2
UndoRedoHistory
Layer: 1
Undoes
EndUndoes
Redoes
EndRedoes
EndUndoRedoHistory
Fore
SplineSet
168 640 m 1,0,-1
 168 837 l 1,1,-1
 947 837 l 1,2,-1
 947 640 l 1,3,-1
 168 640 l 1,0,-1
EndSplineSet
EndChar

StartChar: period
Encoding: 46 46 17
Width: 658
GlyphClass: 2
Flags: W
LayerCount: 2
UndoRedoHistory
Layer: 1
Undoes
EndUndoes
Redoes
EndRedoes
EndUndoRedoHistory
Fore
SplineSet
329 -12 m 128,-1,1
 257 -12 257 -12 210.5 33 c 128,-1,2
 164 78 164 78 164 149 c 0,3,4
 164 218 164 218 210.5 262 c 128,-1,5
 257 306 257 306 329 306 c 128,-1,6
 401 306 401 306 447.5 261.5 c 128,-1,7
 494 217 494 217 494 146 c 0,8,9
 494 76 494 76 447.5 32 c 128,-1,0
 401 -12 401 -12 329 -12 c 128,-1,1
EndSplineSet
EndChar

StartChar: slash
Encoding: 47 47 18
Width: 979
GlyphClass: 2
Flags: W
LayerCount: 2
UndoRedoHistory
Layer: 1
Undoes
EndUndoes
Redoes
EndRedoes
EndUndoRedoHistory
Fore
SplineSet
96 0 m 1,0,-1
 691 1470 l 1,1,-1
 883 1470 l 1,2,-1
 296 0 l 1,3,-1
 96 0 l 1,0,-1
EndSplineSet
EndChar

StartChar: zero
Encoding: 48 48 19
Width: 1254
GlyphClass: 2
Flags: W
LayerCount: 2
UndoRedoHistory
Layer: 1
Undoes
EndUndoes
Redoes
EndRedoes
EndUndoRedoHistory
Fore
SplineSet
625 184 m 0,0,1
 767 184 767 184 845 334.5 c 128,-1,2
 923 485 923 485 923 731 c 0,3,4
 923 980 923 980 845.5 1126 c 128,-1,5
 768 1272 768 1272 625 1272 c 0,6,7
 528 1272 528 1272 461 1203.5 c 128,-1,8
 394 1135 394 1135 362.5 1015 c 128,-1,9
 331 895 331 895 331 731 c 0,10,11
 331 569 331 569 362.5 448 c 128,-1,12
 394 327 394 327 461.5 255.5 c 128,-1,13
 529 184 529 184 625 184 c 0,0,1
626 -24 m 128,-1,15
 456 -24 456 -24 334.5 73.5 c 128,-1,16
 213 171 213 171 153 339 c 128,-1,17
 93 507 93 507 93 728 c 0,18,19
 93 952 93 952 153 1120 c 128,-1,20
 213 1288 213 1288 334.5 1384 c 128,-1,21
 456 1480 456 1480 626 1480 c 0,22,23
 797 1480 797 1480 919 1384 c 128,-1,24
 1041 1288 1041 1288 1101 1120 c 128,-1,25
 1161 952 1161 952 1161 728 c 0,26,27
 1161 507 1161 507 1101 339 c 128,-1,28
 1041 171 1041 171 918.5 73.5 c 128,-1,14
 796 -24 796 -24 626 -24 c 128,-1,15
EndSplineSet
EndChar

StartChar: one
Encoding: 49 49 20
Width: 824
GlyphClass: 2
Flags: W
LayerCount: 2
UndoRedoHistory
Layer: 1
Undoes
EndUndoes
Redoes
EndRedoes
EndUndoRedoHistory
Fore
SplineSet
300 0 m 1,0,-1
 300 1456 l 1,1,-1
 550 1456 l 1,2,-1
 550 0 l 1,3,-1
 300 0 l 1,0,-1
EndSplineSet
EndChar

StartChar: two
Encoding: 50 50 21
Width: 1254
GlyphClass: 2
Flags: W
LayerCount: 2
UndoRedoHistory
Layer: 1
Undoes
EndUndoes
Redoes
EndRedoes
EndUndoRedoHistory
Fore
SplineSet
616 1480 m 0,0,1
 705 1480 705 1480 786 1452 c 128,-1,2
 867 1424 867 1424 932.5 1370 c 128,-1,3
 998 1316 998 1316 1037 1227.5 c 128,-1,4
 1076 1139 1076 1139 1076 1027 c 0,5,6
 1076 914 1076 914 1010.5 800 c 128,-1,7
 945 686 945 686 819 543 c 2,8,-1
 518 200 l 1,9,-1
 1063 200 l 1,10,-1
 1063 0 l 1,11,-1
 211 0 l 1,12,-1
 211 192 l 1,13,-1
 656 685 l 2,14,15
 827 875 827 875 827 1041 c 0,16,17
 827 1144 827 1144 762.5 1208 c 128,-1,18
 698 1272 698 1272 595 1272 c 0,19,20
 446 1272 446 1272 306 1112 c 1,21,-1
 150 1246 l 1,22,23
 232 1360 232 1360 359 1420 c 128,-1,24
 486 1480 486 1480 616 1480 c 0,0,1
EndSplineSet
EndChar

StartChar: three
Encoding: 51 51 22
Width: 1254
GlyphClass: 2
Flags: W
LayerCount: 2
UndoRedoHistory
Layer: 1
Undoes
EndUndoes
Redoes
EndRedoes
EndUndoRedoHistory
Fore
SplineSet
627 -24 m 0,0,1
 493 -24 493 -24 390 8 c 128,-1,2
 287 40 287 40 184 112 c 1,3,-1
 276 288 l 1,4,5
 436 184 436 184 623 184 c 0,6,7
 731 184 731 184 799 247.5 c 128,-1,8
 867 311 867 311 867 410 c 0,9,10
 867 471 867 471 849 515.5 c 128,-1,11
 831 560 831 560 802.5 586 c 128,-1,12
 774 612 774 612 729.5 627 c 128,-1,13
 685 642 685 642 641.5 647 c 128,-1,14
 598 652 598 652 540 652 c 2,15,-1
 435 652 l 1,16,-1
 435 848 l 1,17,-1
 526 848 l 2,18,19
 823 848 823 848 823 1060 c 0,20,21
 823 1164 823 1164 757 1218 c 128,-1,22
 691 1272 691 1272 597 1272 c 0,23,24
 514 1272 514 1272 428 1244.5 c 128,-1,25
 342 1217 342 1217 283 1160 c 1,26,-1
 171 1317 l 1,27,28
 346 1480 346 1480 602 1480 c 0,29,30
 692 1480 692 1480 772.5 1456 c 128,-1,31
 853 1432 853 1432 918 1386 c 128,-1,32
 983 1340 983 1340 1021.5 1263.5 c 128,-1,33
 1060 1187 1060 1187 1060 1090 c 0,34,35
 1060 1020 1060 1020 1038.5 961.5 c 128,-1,36
 1017 903 1017 903 981.5 865 c 128,-1,37
 946 827 946 827 909 803 c 128,-1,38
 872 779 872 779 834 768 c 1,39,40
 876 760 876 760 918 738 c 128,-1,41
 960 716 960 716 1004 675.5 c 128,-1,42
 1048 635 1048 635 1075.5 565.5 c 128,-1,43
 1103 496 1103 496 1103 407 c 0,44,45
 1103 274 1103 274 1037 174.5 c 128,-1,46
 971 75 971 75 864 25.5 c 128,-1,47
 757 -24 757 -24 627 -24 c 0,0,1
EndSplineSet
EndChar

StartChar: four
Encoding: 52 52 23
Width: 1254
GlyphClass: 2
Flags: W
LayerCount: 2
UndoRedoHistory
Layer: 1
Undoes
EndUndoes
Redoes
EndRedoes
EndUndoRedoHistory
Fore
SplineSet
982 868 m 1,0,-1
 982 518 l 1,1,-1
 1179 518 l 1,2,-1
 1179 327 l 1,3,-1
 982 327 l 1,4,-1
 982 0 l 1,5,-1
 772 0 l 1,6,-1
 772 327 l 1,7,-1
 154 327 l 1,8,-1
 154 504 l 1,9,-1
 520 1456 l 1,10,-1
 743 1456 l 1,11,-1
 415 518 l 1,12,-1
 772 518 l 1,13,-1
 772 868 l 1,14,-1
 982 868 l 1,0,-1
EndSplineSet
EndChar

StartChar: five
Encoding: 53 53 24
Width: 1254
GlyphClass: 2
Flags: W
LayerCount: 2
UndoRedoHistory
Layer: 1
Undoes
EndUndoes
Redoes
EndRedoes
EndUndoRedoHistory
Fore
SplineSet
634 -24 m 0,0,1
 508 -24 508 -24 407 14.5 c 128,-1,2
 306 53 306 53 209 133 c 1,3,-1
 299 322 l 1,4,5
 374 254 374 254 449 219 c 128,-1,6
 524 184 524 184 619 184 c 0,7,8
 733 184 733 184 804.5 265 c 128,-1,9
 876 346 876 346 876 459 c 0,10,11
 876 587 876 587 812 659 c 128,-1,12
 748 731 748 731 657 733 c 1,13,14
 596 733 596 733 547.5 714 c 128,-1,15
 499 695 499 695 452 644 c 1,16,-1
 277 644 l 1,17,-1
 277 1456 l 1,18,-1
 1009 1456 l 1,19,-1
 1009 1257 l 1,20,-1
 499 1257 l 1,21,-1
 485 851 l 1,22,23
 512 873 512 873 535.5 887.5 c 128,-1,24
 559 902 559 902 607 915.5 c 128,-1,25
 655 929 655 929 712 929 c 0,26,27
 771 929 771 929 827 914 c 128,-1,28
 883 899 883 899 936.5 863.5 c 128,-1,29
 990 828 990 828 1030 776 c 128,-1,30
 1070 724 1070 724 1094 644 c 128,-1,31
 1118 564 1118 564 1118 466 c 0,32,33
 1118 370 1118 370 1091.5 289.5 c 128,-1,34
 1065 209 1065 209 1019.5 151.5 c 128,-1,35
 974 94 974 94 912.5 54 c 128,-1,36
 851 14 851 14 780.5 -5 c 128,-1,37
 710 -24 710 -24 634 -24 c 0,0,1
EndSplineSet
EndChar

StartChar: six
Encoding: 54 54 25
Width: 1254
GlyphClass: 2
Flags: W
LayerCount: 2
UndoRedoHistory
Layer: 1
Undoes
EndUndoes
Redoes
EndRedoes
EndUndoRedoHistory
Fore
SplineSet
665 -24 m 0,0,1
 589 -24 589 -24 517.5 -5 c 128,-1,2
 446 14 446 14 379 57.5 c 128,-1,3
 312 101 312 101 262.5 165 c 128,-1,4
 213 229 213 229 183.5 324.5 c 128,-1,5
 154 420 154 420 154 537 c 0,6,7
 154 669 154 669 174.5 786 c 128,-1,8
 195 903 195 903 246.5 1020.5 c 128,-1,9
 298 1138 298 1138 378.5 1232 c 128,-1,10
 459 1326 459 1326 587 1404.5 c 128,-1,11
 715 1483 715 1483 880 1530 c 1,12,-1
 956 1328 l 1,13,14
 738 1261 738 1261 609.5 1143.5 c 128,-1,15
 481 1026 481 1026 431 832 c 1,16,17
 547 941 547 941 709 939 c 0,18,19
 792 938 792 938 869.5 906 c 128,-1,20
 947 874 947 874 1009 816 c 128,-1,21
 1071 758 1071 758 1108.5 667.5 c 128,-1,22
 1146 577 1146 577 1146 468 c 0,23,24
 1146 373 1146 373 1118 291.5 c 128,-1,25
 1090 210 1090 210 1043 153 c 128,-1,26
 996 96 996 96 934 55.5 c 128,-1,27
 872 15 872 15 803.5 -4.5 c 128,-1,28
 735 -24 735 -24 665 -24 c 0,0,1
658 180 m 0,29,30
 761 180 761 180 837 252.5 c 128,-1,31
 913 325 913 325 913 453 c 0,32,33
 913 592 913 592 841.5 664 c 128,-1,34
 770 736 770 736 665 736 c 0,35,36
 616 736 616 736 570 719.5 c 128,-1,37
 524 703 524 703 485.5 670.5 c 128,-1,38
 447 638 447 638 424 582 c 128,-1,39
 401 526 401 526 401 455 c 0,40,41
 401 326 401 326 477.5 253 c 128,-1,42
 554 180 554 180 658 180 c 0,29,30
EndSplineSet
EndChar

StartChar: seven
Encoding: 55 55 26
Width: 1254
GlyphClass: 2
Flags: W
LayerCount: 2
UndoRedoHistory
Layer: 1
Undoes
EndUndoes
Redoes
EndRedoes
EndUndoRedoHistory
Fore
SplineSet
344 0 m 1,0,-1
 795 1257 l 1,1,-1
 177 1257 l 1,2,-1
 177 1456 l 1,3,-1
 1085 1456 l 1,4,-1
 1085 1275 l 1,5,-1
 623 0 l 1,6,-1
 344 0 l 1,0,-1
EndSplineSet
EndChar

StartChar: eight
Encoding: 56 56 27
Width: 1254
GlyphClass: 2
Flags: W
LayerCount: 2
UndoRedoHistory
Layer: 1
Undoes
EndUndoes
Redoes
EndRedoes
EndUndoRedoHistory
Fore
SplineSet
1108 353 m 0,0,1
 1108 276 1108 276 1082.5 210.5 c 128,-1,2
 1057 145 1057 145 1003.5 91 c 128,-1,3
 950 37 950 37 857.5 6.5 c 128,-1,4
 765 -24 765 -24 642 -24 c 0,5,6
 410 -24 410 -24 293 80 c 128,-1,7
 176 184 176 184 176 360 c 0,8,9
 176 498 176 498 257 596 c 128,-1,10
 338 694 338 694 555 805 c 0,11,12
 649 853 649 853 709 893.5 c 128,-1,13
 769 934 769 934 800 972.5 c 128,-1,14
 831 1011 831 1011 842 1044.5 c 128,-1,15
 853 1078 853 1078 853 1122 c 0,16,17
 853 1206 853 1206 794.5 1249 c 128,-1,18
 736 1292 736 1292 646 1292 c 0,19,20
 552 1292 552 1292 494.5 1247 c 128,-1,21
 437 1202 437 1202 437 1122 c 0,22,23
 437 1095 437 1095 441.5 1071.5 c 128,-1,24
 446 1048 446 1048 452 1029 c 128,-1,25
 458 1010 458 1010 473 990.5 c 128,-1,26
 488 971 488 971 499.5 957 c 128,-1,27
 511 943 511 943 535.5 925 c 128,-1,28
 560 907 560 907 577 895.5 c 128,-1,29
 594 884 594 884 628 865.5 c 128,-1,30
 662 847 662 847 684 835.5 c 128,-1,31
 706 824 706 824 750 802 c 0,32,33
 1108 621 1108 621 1108 353 c 0,0,1
206 1107 m 0,34,35
 206 1286 206 1286 326.5 1383 c 128,-1,36
 447 1480 447 1480 642 1480 c 0,37,38
 849 1480 849 1480 963 1372.5 c 128,-1,39
 1077 1265 1077 1265 1077 1107 c 0,40,41
 1077 890 1077 890 710 694 c 0,42,43
 569 619 569 619 493 531.5 c 128,-1,44
 417 444 417 444 417 359 c 0,45,46
 417 275 417 275 476 221.5 c 128,-1,47
 535 168 535 168 644 168 c 0,48,49
 763 168 763 168 821 220 c 128,-1,50
 879 272 879 272 879 356 c 0,51,52
 879 419 879 419 857 464 c 128,-1,53
 835 509 835 509 763.5 564.5 c 128,-1,54
 692 620 692 620 556 690 c 0,55,56
 547 695 547 695 515 710 c 128,-1,57
 483 725 483 725 462 735.5 c 128,-1,58
 441 746 441 746 405.5 768 c 128,-1,59
 370 790 370 790 346 810.5 c 128,-1,60
 322 831 322 831 293.5 863.5 c 128,-1,61
 265 896 265 896 247.5 930 c 128,-1,62
 230 964 230 964 218 1010 c 128,-1,63
 206 1056 206 1056 206 1107 c 0,34,35
EndSplineSet
EndChar

StartChar: nine
Encoding: 57 57 28
Width: 1254
GlyphClass: 2
Flags: W
LayerCount: 2
UndoRedoHistory
Layer: 1
Undoes
EndUndoes
Redoes
EndRedoes
EndUndoRedoHistory
Fore
SplineSet
648 748 m 0,0,1
 829 792 829 792 829 1073 c 2,2,-1
 829 1235 l 1,3,4
 826 1236 826 1236 804 1247.5 c 128,-1,5
 782 1259 782 1259 760 1268.5 c 128,-1,6
 738 1278 738 1278 703 1285.5 c 128,-1,7
 668 1293 668 1293 637 1291 c 0,8,9
 526 1282 526 1282 461.5 1193.5 c 128,-1,10
 397 1105 397 1105 397 982 c 0,11,12
 397 853 397 853 465.5 787 c 128,-1,13
 534 721 534 721 648 748 c 0,0,1
1047 1079 m 2,14,15
 1047 1011 1047 1011 1019.5 928.5 c 128,-1,16
 992 846 992 846 943 765.5 c 128,-1,17
 894 685 894 685 811.5 625 c 128,-1,18
 729 565 729 565 631 552 c 0,19,20
 504 535 504 535 396 583 c 128,-1,21
 288 631 288 631 224 734 c 128,-1,22
 160 837 160 837 160 973 c 0,23,24
 160 1083 160 1083 198 1178 c 128,-1,25
 236 1273 236 1273 300 1337 c 128,-1,26
 364 1401 364 1401 447 1439 c 128,-1,27
 530 1477 530 1477 621 1480 c 0,28,29
 690 1483 690 1483 756 1471 c 128,-1,30
 822 1459 822 1459 877.5 1436 c 128,-1,31
 933 1413 933 1413 964.5 1396.5 c 128,-1,32
 996 1380 996 1380 1034 1357 c 0,33,34
 1038 1354 1038 1354 1041 1352.5 c 128,-1,35
 1044 1351 1044 1351 1047 1349 c 1,36,-1
 1047 1079 l 2,14,15
1047 0 m 1,37,-1
 828 0 l 1,38,-1
 828 876 l 1,39,-1
 1047 1076 l 1,40,-1
 1047 0 l 1,37,-1
EndSplineSet
EndChar

StartChar: colon
Encoding: 58 58 29
Width: 611
GlyphClass: 2
Flags: W
LayerCount: 2
UndoRedoHistory
Layer: 1
Undoes
EndUndoes
Redoes
EndRedoes
EndUndoRedoHistory
Fore
SplineSet
178 0 m 1,0,-1
 178 247 l 1,1,-1
 433 247 l 1,2,-1
 433 0 l 1,3,-1
 178 0 l 1,0,-1
178 779 m 1,4,-1
 178 1026 l 1,5,-1
 433 1026 l 1,6,-1
 433 779 l 1,7,-1
 178 779 l 1,4,-1
EndSplineSet
EndChar

StartChar: semicolon
Encoding: 59 59 30
Width: 679
GlyphClass: 2
Flags: W
LayerCount: 2
UndoRedoHistory
Layer: 1
Undoes
EndUndoes
Redoes
EndRedoes
EndUndoRedoHistory
Fore
SplineSet
246 779 m 1,0,-1
 246 1026 l 1,1,-1
 501 1026 l 1,2,-1
 501 779 l 1,3,-1
 246 779 l 1,0,-1
156 -297 m 1,4,-1
 246 255 l 1,5,-1
 501 255 l 1,6,-1
 310 -297 l 1,7,-1
 156 -297 l 1,4,-1
EndSplineSet
EndChar

StartChar: less
Encoding: 60 60 31
Width: 1217
GlyphClass: 2
Flags: W
LayerCount: 2
UndoRedoHistory
Layer: 1
Undoes
EndUndoes
Redoes
EndRedoes
EndUndoRedoHistory
Fore
SplineSet
1045 84 m 1,0,-1
 96 518 l 1,1,-1
 96 645 l 1,2,-1
 1049 1098 l 1,3,-1
 1049 897 l 1,4,-1
 414 585 l 1,5,-1
 1045 286 l 1,6,-1
 1045 84 l 1,0,-1
EndSplineSet
EndChar

StartChar: equal
Encoding: 61 61 32
Width: 1162
GlyphClass: 2
Flags: W
LayerCount: 2
UndoRedoHistory
Layer: 1
Undoes
EndUndoes
Redoes
EndRedoes
EndUndoRedoHistory
Fore
SplineSet
168 853 m 1,0,-1
 168 1026 l 1,1,-1
 994 1026 l 1,2,-1
 994 853 l 1,3,-1
 168 853 l 1,0,-1
169 450 m 1,4,-1
 169 620 l 1,5,-1
 994 620 l 1,6,-1
 994 450 l 1,7,-1
 169 450 l 1,4,-1
EndSplineSet
EndChar

StartChar: greater
Encoding: 62 62 33
Width: 1217
GlyphClass: 2
Flags: W
LayerCount: 2
UndoRedoHistory
Layer: 1
Undoes
EndUndoes
Redoes
EndRedoes
EndUndoRedoHistory
Fore
SplineSet
172 1092 m 1,0,-1
 1121 658 l 1,1,-1
 1121 531 l 1,2,-1
 168 78 l 1,3,-1
 168 279 l 1,4,-1
 803 591 l 1,5,-1
 172 890 l 1,6,-1
 172 1092 l 1,0,-1
EndSplineSet
EndChar

StartChar: question
Encoding: 63 63 34
Width: 965
GlyphClass: 2
Flags: W
LayerCount: 2
UndoRedoHistory
Layer: 1
Undoes
EndUndoes
Redoes
EndRedoes
EndUndoRedoHistory
Fore
SplineSet
388 -12 m 128,-1,1
 316 -12 316 -12 269.5 33 c 128,-1,2
 223 78 223 78 223 149 c 0,3,4
 223 218 223 218 269.5 262 c 128,-1,5
 316 306 316 306 388 306 c 128,-1,6
 460 306 460 306 506.5 261.5 c 128,-1,7
 553 217 553 217 553 146 c 0,8,9
 553 76 553 76 506.5 32 c 128,-1,0
 460 -12 460 -12 388 -12 c 128,-1,1
328 423 m 1,10,11
 328 517 328 517 342.5 598.5 c 128,-1,12
 357 680 357 680 380.5 737 c 128,-1,13
 404 794 404 794 432 841.5 c 128,-1,14
 460 889 460 889 488 924.5 c 128,-1,15
 516 960 516 960 539.5 990 c 128,-1,16
 563 1020 563 1020 577.5 1050 c 128,-1,17
 592 1080 592 1080 592 1109 c 0,18,19
 592 1182 592 1182 543.5 1217 c 128,-1,20
 495 1252 495 1252 418 1252 c 0,21,22
 311 1252 311 1252 187 1205 c 1,23,-1
 156 1416 l 1,24,25
 309 1480 309 1480 472 1480 c 0,26,27
 554 1480 554 1480 624 1459.5 c 128,-1,28
 694 1439 694 1439 750 1399 c 128,-1,29
 806 1359 806 1359 837.5 1291.5 c 128,-1,30
 869 1224 869 1224 869 1137 c 0,31,32
 869 1065 869 1065 848.5 1004.5 c 128,-1,33
 828 944 828 944 794 900.5 c 128,-1,34
 760 857 760 857 719 818 c 128,-1,35
 678 779 678 779 634 739.5 c 128,-1,36
 590 700 590 700 551.5 657.5 c 128,-1,37
 513 615 513 615 483 554.5 c 128,-1,38
 453 494 453 494 442 423 c 1,39,-1
 328 423 l 1,10,11
EndSplineSet
EndChar

StartChar: at
Encoding: 64 64 35
Width: 1811
GlyphClass: 2
Flags: W
LayerCount: 2
UndoRedoHistory
Layer: 1
Undoes
EndUndoes
Redoes
EndRedoes
EndUndoRedoHistory
Fore
SplineSet
953 -64 m 0,0,1
 787 -64 787 -64 636.5 -11.5 c 128,-1,2
 486 41 486 41 368.5 137.5 c 128,-1,3
 251 234 251 234 181 385.5 c 128,-1,4
 111 537 111 537 111 721 c 0,5,6
 111 873 111 873 158.5 1003.5 c 128,-1,7
 206 1134 206 1134 287.5 1226.5 c 128,-1,8
 369 1319 369 1319 478 1385 c 128,-1,9
 587 1451 587 1451 711 1482.5 c 128,-1,10
 835 1514 835 1514 966 1514 c 0,11,12
 1079 1514 1079 1514 1185 1487.5 c 128,-1,13
 1291 1461 1291 1461 1385 1405.5 c 128,-1,14
 1479 1350 1479 1350 1549 1270.5 c 128,-1,15
 1619 1191 1619 1191 1659.5 1078 c 128,-1,16
 1700 965 1700 965 1700 832 c 0,17,18
 1700 593 1700 593 1580.5 445.5 c 128,-1,19
 1461 298 1461 298 1275 298 c 0,20,21
 1187 298 1187 298 1128.5 351 c 128,-1,22
 1070 404 1070 404 1076 506 c 1,23,24
 1026 406 1026 406 948 352.5 c 128,-1,25
 870 299 870 299 793 299 c 0,26,27
 672 299 672 299 596.5 397 c 128,-1,28
 521 495 521 495 521 668 c 0,29,30
 521 769 521 769 555.5 862 c 128,-1,31
 590 955 590 955 646 1021.5 c 128,-1,32
 702 1088 702 1088 773.5 1129.5 c 128,-1,33
 845 1171 845 1171 919 1177 c 0,34,35
 1099 1191 1099 1191 1150 1041 c 1,36,-1
 1189 1146 l 1,37,-1
 1330 1146 l 1,38,39
 1208 554 1208 554 1208 528 c 0,40,41
 1208 484 1208 484 1231.5 457.5 c 128,-1,42
 1255 431 1255 431 1290 431 c 0,43,44
 1330 431 1330 431 1371.5 454 c 128,-1,45
 1413 477 1413 477 1451.5 523 c 128,-1,46
 1490 569 1490 569 1514.5 651 c 128,-1,47
 1539 733 1539 733 1539 837 c 0,48,49
 1539 935 1539 935 1509 1020.5 c 128,-1,50
 1479 1106 1479 1106 1425.5 1169.5 c 128,-1,51
 1372 1233 1372 1233 1300 1278 c 128,-1,52
 1228 1323 1228 1323 1142.5 1346 c 128,-1,53
 1057 1369 1057 1369 964 1369 c 0,54,55
 857 1369 857 1369 758.5 1342.5 c 128,-1,56
 660 1316 660 1316 577 1262 c 128,-1,57
 494 1208 494 1208 432.5 1132 c 128,-1,58
 371 1056 371 1056 336.5 951.5 c 128,-1,59
 302 847 302 847 302 726 c 0,60,61
 302 574 302 574 354 452 c 128,-1,62
 406 330 406 330 498 251.5 c 128,-1,63
 590 173 590 173 713 131 c 128,-1,64
 836 89 836 89 981 89 c 0,65,66
 1086 89 1086 89 1198 118 c 128,-1,67
 1310 147 1310 147 1401 200 c 1,68,-1
 1482 71 l 1,69,70
 1369 3 1369 3 1230 -30.5 c 128,-1,71
 1091 -64 1091 -64 953 -64 c 0,0,1
826 465 m 0,72,73
 868 465 868 465 911 491 c 128,-1,74
 954 517 954 517 991 565.5 c 128,-1,75
 1028 614 1028 614 1051 693 c 128,-1,76
 1074 772 1074 772 1074 868 c 0,77,78
 1074 945 1074 945 1041 984 c 128,-1,79
 1008 1023 1008 1023 956 1023 c 0,80,81
 861 1023 861 1023 775 918 c 128,-1,82
 689 813 689 813 689 651 c 0,83,84
 689 561 689 561 728 513 c 128,-1,85
 767 465 767 465 826 465 c 0,72,73
EndSplineSet
EndChar

StartChar: A
Encoding: 65 65 36
Width: 1407
GlyphClass: 2
Flags: W
AnchorPoint: "Anchor-2" 1260 0 basechar 0
AnchorPoint: "Anchor-1" 736 0 basechar 0
AnchorPoint: "Anchor-0" 702 1536 basechar 0
LayerCount: 2
UndoRedoHistory
Layer: 1
Undoes
EndUndoes
Redoes
EndRedoes
EndUndoRedoHistory
Fore
SplineSet
50 0 m 1,0,-1
 588 1456 l 1,1,-1
 828 1456 l 1,2,-1
 1357 0 l 1,3,-1
 1072 0 l 1,4,-1
 963 335 l 1,5,-1
 437 335 l 1,6,-1
 324 0 l 1,7,-1
 50 0 l 1,0,-1
504 533 m 1,8,-1
 898 533 l 1,9,-1
 827 758 l 1,10,-1
 702 1129 l 1,11,-1
 577 758 l 1,12,-1
 504 533 l 1,8,-1
EndSplineSet
EndChar

StartChar: B
Encoding: 66 66 37
Width: 1378
GlyphClass: 2
Flags: W
AnchorPoint: "Anchor-1" 676 0 basechar 0
AnchorPoint: "Anchor-0" 700 1536 basechar 0
LayerCount: 2
UndoRedoHistory
Layer: 1
Undoes
EndUndoes
Redoes
EndRedoes
EndUndoRedoHistory
Fore
SplineSet
192 0 m 1,0,-1
 192 1456 l 1,1,-1
 639 1456 l 2,2,3
 929 1456 929 1456 1069 1373 c 128,-1,4
 1209 1290 1209 1290 1209 1108 c 0,5,6
 1209 973 1209 973 1152.5 895.5 c 128,-1,7
 1096 818 1096 818 972 782 c 1,8,9
 1128 756 1128 756 1199 670 c 128,-1,10
 1270 584 1270 584 1270 424 c 0,11,12
 1270 206 1270 206 1130.5 103 c 128,-1,13
 991 0 991 0 703 0 c 2,14,-1
 192 0 l 1,0,-1
442 201 m 1,15,-1
 706 201 l 2,16,17
 873 201 873 201 948.5 257 c 128,-1,18
 1024 313 1024 313 1024 437 c 0,19,20
 1024 555 1024 555 944.5 609.5 c 128,-1,21
 865 664 865 664 691 664 c 2,22,-1
 442 664 l 1,23,-1
 442 201 l 1,15,-1
442 848 m 1,24,-1
 662 848 l 2,25,26
 823 848 823 848 895 900.5 c 128,-1,27
 967 953 967 953 967 1070 c 0,28,29
 967 1169 967 1169 892.5 1212.5 c 128,-1,30
 818 1256 818 1256 649 1256 c 2,31,-1
 442 1256 l 1,32,-1
 442 848 l 1,24,-1
EndSplineSet
EndChar

StartChar: C
Encoding: 67 67 38
Width: 1370
GlyphClass: 2
Flags: W
AnchorPoint: "Anchor-1" 826 0 basechar 0
AnchorPoint: "Anchor-0" 790 1536 basechar 0
LayerCount: 2
UndoRedoHistory
Layer: 1
Undoes
EndUndoes
Redoes
EndRedoes
EndUndoRedoHistory
Fore
SplineSet
823 -24 m 0,0,1
 668 -24 668 -24 536.5 32 c 128,-1,2
 405 88 405 88 312.5 187 c 128,-1,3
 220 286 220 286 168 427 c 128,-1,4
 116 568 116 568 116 733 c 0,5,6
 116 900 116 900 170 1040 c 128,-1,7
 224 1180 224 1180 319 1276.5 c 128,-1,8
 414 1373 414 1373 547 1426.5 c 128,-1,9
 680 1480 680 1480 836 1480 c 0,10,11
 948 1480 948 1480 1065.5 1439 c 128,-1,12
 1183 1398 1183 1398 1275 1327 c 1,13,-1
 1188 1136 l 1,14,15
 1123 1189 1123 1189 1026 1230.5 c 128,-1,16
 929 1272 929 1272 837 1272 c 0,17,18
 624 1272 624 1272 503 1122 c 128,-1,19
 382 972 382 972 382 732 c 0,20,21
 382 489 382 489 505.5 336.5 c 128,-1,22
 629 184 629 184 851 184 c 0,23,24
 943 184 943 184 1041 218 c 128,-1,25
 1139 252 1139 252 1213 311 c 1,26,-1
 1291 125 l 1,27,28
 1211 59 1211 59 1077.5 17.5 c 128,-1,29
 944 -24 944 -24 823 -24 c 0,0,1
EndSplineSet
EndChar

StartChar: D
Encoding: 68 68 39
Width: 1552
GlyphClass: 2
Flags: W
AnchorPoint: "Anchor-1" 676 0 basechar 0
AnchorPoint: "Anchor-0" 700 1536 basechar 0
LayerCount: 2
UndoRedoHistory
Layer: 1
Undoes
EndUndoes
Redoes
EndRedoes
EndUndoRedoHistory
Fore
SplineSet
442 200 m 1,0,-1
 604 200 l 2,1,2
 812 200 812 200 937 259.5 c 128,-1,3
 1062 319 1062 319 1116 435 c 128,-1,4
 1170 551 1170 551 1170 739 c 0,5,6
 1170 919 1170 919 1111.5 1031 c 128,-1,7
 1053 1143 1053 1143 919.5 1199.5 c 128,-1,8
 786 1256 786 1256 564 1256 c 2,9,-1
 442 1256 l 1,10,-1
 442 200 l 1,0,-1
192 0 m 1,11,-1
 192 1456 l 1,12,-1
 531 1456 l 2,13,14
 984 1456 984 1456 1210 1283 c 128,-1,15
 1436 1110 1436 1110 1436 742 c 0,16,17
 1436 358 1436 358 1226.5 179 c 128,-1,18
 1017 0 1017 0 588 0 c 2,19,-1
 192 0 l 1,11,-1
EndSplineSet
EndChar

StartChar: E
Encoding: 69 69 40
Width: 1206
GlyphClass: 2
Flags: W
AnchorPoint: "Anchor-2" 850 0 basechar 0
AnchorPoint: "Anchor-1" 826 0 basechar 0
AnchorPoint: "Anchor-0" 656 1536 basechar 0
LayerCount: 2
UndoRedoHistory
Layer: 1
Undoes
EndUndoes
Redoes
EndRedoes
EndUndoRedoHistory
Fore
SplineSet
192 0 m 1,0,-1
 192 1456 l 1,1,-1
 1050 1456 l 1,2,-1
 1050 1256 l 1,3,-1
 442 1256 l 1,4,-1
 442 843 l 1,5,-1
 1008 843 l 1,6,-1
 1008 650 l 1,7,-1
 442 650 l 1,8,-1
 442 200 l 1,9,-1
 1070 200 l 1,10,-1
 1070 0 l 1,11,-1
 192 0 l 1,0,-1
EndSplineSet
EndChar

StartChar: F
Encoding: 70 70 41
Width: 1157
GlyphClass: 2
Flags: W
AnchorPoint: "Anchor-1" 676 0 basechar 0
AnchorPoint: "Anchor-0" 700 1536 basechar 0
LayerCount: 2
UndoRedoHistory
Layer: 1
Undoes
EndUndoes
Redoes
EndRedoes
EndUndoRedoHistory
Fore
SplineSet
192 0 m 1,0,-1
 192 1456 l 1,1,-1
 1033 1456 l 1,2,-1
 1033 1256 l 1,3,-1
 442 1256 l 1,4,-1
 442 865 l 1,5,-1
 1000 865 l 1,6,-1
 1000 672 l 1,7,-1
 442 672 l 1,8,-1
 442 0 l 1,9,-1
 192 0 l 1,0,-1
EndSplineSet
EndChar

StartChar: G
Encoding: 71 71 42
Width: 1496
GlyphClass: 2
Flags: W
AnchorPoint: "Anchor-1" 826 0 basechar 0
AnchorPoint: "Anchor-0" 790 1536 basechar 0
LayerCount: 2
UndoRedoHistory
Layer: 1
Undoes
EndUndoes
Redoes
EndRedoes
EndUndoRedoHistory
Fore
SplineSet
836 -24 m 0,0,1
 624 -24 624 -24 460.5 63.5 c 128,-1,2
 297 151 297 151 206.5 312.5 c 128,-1,3
 116 474 116 474 116 687 c 0,4,5
 116 862 116 862 171 1010 c 128,-1,6
 226 1158 226 1158 323.5 1261 c 128,-1,7
 421 1364 421 1364 558.5 1422 c 128,-1,8
 696 1480 696 1480 858 1480 c 0,9,10
 970 1480 970 1480 1069.5 1456.5 c 128,-1,11
 1169 1433 1169 1433 1219 1409 c 128,-1,12
 1269 1385 1269 1385 1324 1351 c 1,13,-1
 1237 1162 l 1,14,15
 1036 1272 1036 1272 867 1272 c 0,16,17
 643 1272 643 1272 512.5 1113 c 128,-1,18
 382 954 382 954 382 701 c 0,19,20
 382 467 382 467 508.5 325.5 c 128,-1,21
 635 184 635 184 848 184 c 0,22,23
 1003 184 1003 184 1096 227 c 1,24,-1
 1096 595 l 1,25,-1
 743 595 l 1,26,-1
 743 773 l 1,27,-1
 1340 773 l 1,28,-1
 1340 78 l 1,29,30
 1242 32 1242 32 1103 4 c 128,-1,31
 964 -24 964 -24 836 -24 c 0,0,1
EndSplineSet
EndChar

StartChar: H
Encoding: 72 72 43
Width: 1553
GlyphClass: 2
Flags: W
AnchorPoint: "Anchor-1" 788 0 basechar 0
AnchorPoint: "Anchor-0" 793 1536 basechar 0
LayerCount: 2
UndoRedoHistory
Layer: 1
Undoes
EndUndoes
Redoes
EndRedoes
EndUndoRedoHistory
Fore
SplineSet
192 0 m 1,0,-1
 192 1456 l 1,1,-1
 442 1456 l 1,2,-1
 442 850 l 1,3,-1
 1111 850 l 1,4,-1
 1111 1456 l 1,5,-1
 1361 1456 l 1,6,-1
 1361 0 l 1,7,-1
 1111 0 l 1,8,-1
 1111 635 l 1,9,-1
 442 635 l 1,10,-1
 442 0 l 1,11,-1
 192 0 l 1,0,-1
EndSplineSet
EndChar

StartChar: I
Encoding: 73 73 44
Width: 802
GlyphClass: 2
Flags: W
AnchorPoint: "Anchor-1" 286 1 basechar 0
AnchorPoint: "Anchor-0" 289 1536 basechar 0
LayerCount: 2
UndoRedoHistory
Layer: 1
Undoes
EndUndoes
Redoes
EndRedoes
EndUndoRedoHistory
Fore
SplineSet
700 0 m 1,0,-1
 102 0 l 1,1,-1
 102 182 l 1,2,-1
 276 182 l 1,3,-1
 276 1274 l 1,4,-1
 102 1274 l 1,5,-1
 102 1456 l 1,6,-1
 700 1456 l 1,7,-1
 700 1274 l 1,8,-1
 526 1274 l 1,9,-1
 526 182 l 1,10,-1
 700 182 l 1,11,-1
 700 0 l 1,0,-1
EndSplineSet
EndChar

StartChar: J
Encoding: 74 74 45
Width: 1127
GlyphClass: 2
Flags: W
AnchorPoint: "Anchor-0" 550 1536 basechar 0
LayerCount: 2
UndoRedoHistory
Layer: 1
Undoes
EndUndoes
Redoes
EndRedoes
EndUndoRedoHistory
Fore
SplineSet
24 145 m 1,0,-1
 142 310 l 1,1,2
 256 179 256 179 402 184 c 0,3,4
 492 187 492 187 548.5 250 c 128,-1,5
 605 313 605 313 605 428 c 2,6,-1
 605 1256 l 1,7,-1
 241 1256 l 1,8,-1
 241 1456 l 1,9,-1
 1111 1456 l 1,10,-1
 1111 1256 l 1,11,-1
 848 1256 l 1,12,-1
 848 447 l 2,13,14
 848 330 848 330 812.5 238 c 128,-1,15
 777 146 777 146 716.5 90 c 128,-1,16
 656 34 656 34 580.5 5 c 128,-1,17
 505 -24 505 -24 419 -24 c 0,18,19
 173 -24 173 -24 24 145 c 1,0,-1
EndSplineSet
EndChar

StartChar: K
Encoding: 75 75 46
Width: 1285
GlyphClass: 2
Flags: W
AnchorPoint: "Anchor-1" 726 0 basechar 0
AnchorPoint: "Anchor-0" 667 1536 basechar 0
LayerCount: 2
UndoRedoHistory
Layer: 1
Undoes
EndUndoes
Redoes
EndRedoes
EndUndoRedoHistory
Fore
SplineSet
192 0 m 1,0,-1
 192 1456 l 1,1,-1
 442 1456 l 1,2,-1
 442 822 l 1,3,-1
 951 1456 l 1,4,-1
 1255 1456 l 1,5,-1
 679 773 l 1,6,-1
 1289 0 l 1,7,-1
 970 0 l 1,8,-1
 442 681 l 1,9,-1
 442 0 l 1,10,-1
 192 0 l 1,0,-1
EndSplineSet
EndChar

StartChar: L
Encoding: 76 76 47
Width: 1079
GlyphClass: 2
Flags: W
AnchorPoint: "Anchor-1" 696 0 basechar 0
AnchorPoint: "Anchor-0" 580 1536 basechar 0
LayerCount: 2
UndoRedoHistory
Layer: 1
Undoes
EndUndoes
Redoes
EndRedoes
EndUndoRedoHistory
Fore
SplineSet
192 0 m 1,0,-1
 192 1456 l 1,1,-1
 442 1456 l 1,2,-1
 442 200 l 1,3,-1
 1048 200 l 1,4,-1
 1048 0 l 1,5,-1
 192 0 l 1,0,-1
EndSplineSet
EndChar

StartChar: M
Encoding: 77 77 48
Width: 1889
GlyphClass: 2
Flags: W
AnchorPoint: "Anchor-1" 976 0 basechar 0
AnchorPoint: "Anchor-0" 970 1536 basechar 0
LayerCount: 2
UndoRedoHistory
Layer: 1
Undoes
EndUndoes
Redoes
EndRedoes
EndUndoRedoHistory
Fore
SplineSet
192 0 m 1,0,-1
 192 1456 l 1,1,-1
 485 1456 l 1,2,-1
 863 741 l 1,3,-1
 945 569 l 1,4,-1
 1025 743 l 1,5,-1
 1405 1456 l 1,6,-1
 1697 1456 l 1,7,-1
 1697 0 l 1,8,-1
 1447 0 l 1,9,-1
 1447 1085 l 1,10,-1
 1342 871 l 1,11,-1
 999 229 l 1,12,-1
 886 229 l 1,13,-1
 546 883 l 1,14,-1
 442 1102 l 1,15,-1
 442 0 l 1,16,-1
 192 0 l 1,0,-1
EndSplineSet
EndChar

StartChar: N
Encoding: 78 78 49
Width: 1617
GlyphClass: 2
Flags: W
AnchorPoint: "Anchor-1" 804 0 basechar 0
AnchorPoint: "Anchor-0" 809 1536 basechar 0
LayerCount: 2
UndoRedoHistory
Layer: 1
Undoes
EndUndoes
Redoes
EndRedoes
EndUndoRedoHistory
Fore
SplineSet
192 0 m 1,0,-1
 192 1456 l 1,1,-1
 453 1456 l 1,2,-1
 1088 520 l 1,3,-1
 1205 340 l 1,4,-1
 1205 1456 l 1,5,-1
 1425 1456 l 1,6,-1
 1425 0 l 1,7,-1
 1160 0 l 1,8,-1
 521 951 l 1,9,-1
 412 1113 l 1,10,-1
 412 0 l 1,11,-1
 192 0 l 1,0,-1
EndSplineSet
EndChar

StartChar: O
Encoding: 79 79 50
Width: 1592
GlyphClass: 2
Flags: W
AnchorPoint: "Anchor-1" 826 0 basechar 0
AnchorPoint: "Anchor-0" 790 1536 basechar 0
LayerCount: 2
UndoRedoHistory
Layer: 1
Undoes
EndUndoes
Redoes
EndRedoes
EndUndoRedoHistory
Fore
SplineSet
793 184 m 0,0,1
 980 184 980 184 1095.5 333 c 128,-1,2
 1211 482 1211 482 1210 724 c 1,3,4
 1210 971 1210 971 1095 1121.5 c 128,-1,5
 980 1272 980 1272 793 1272 c 0,6,7
 607 1272 607 1272 494.5 1122 c 128,-1,8
 382 972 382 972 382 724 c 0,9,10
 382 481 382 481 494.5 332.5 c 128,-1,11
 607 184 607 184 793 184 c 0,0,1
793 -24 m 0,12,13
 596 -24 596 -24 442.5 69 c 128,-1,14
 289 162 289 162 202.5 333 c 128,-1,15
 116 504 116 504 116 726 c 0,16,17
 116 946 116 946 202 1118 c 128,-1,18
 288 1290 288 1290 442.5 1385 c 128,-1,19
 597 1480 597 1480 793 1480 c 0,20,21
 991 1480 991 1480 1146.5 1385 c 128,-1,22
 1302 1290 1302 1290 1389 1118 c 128,-1,23
 1476 946 1476 946 1476 726 c 0,24,25
 1476 504 1476 504 1389 333 c 128,-1,26
 1302 162 1302 162 1146.5 69 c 128,-1,27
 991 -24 991 -24 793 -24 c 0,12,13
EndSplineSet
EndChar

StartChar: P
Encoding: 80 80 51
Width: 1282
GlyphClass: 2
Flags: W
AnchorPoint: "Anchor-1" 676 0 basechar 0
AnchorPoint: "Anchor-0" 700 1536 basechar 0
LayerCount: 2
UndoRedoHistory
Layer: 1
Undoes
EndUndoes
Redoes
EndRedoes
EndUndoRedoHistory
Fore
SplineSet
192 0 m 1,0,-1
 192 1456 l 1,1,-1
 612 1456 l 2,2,3
 925 1456 925 1456 1069 1353 c 128,-1,4
 1213 1250 1213 1250 1213 1017 c 0,5,6
 1213 774 1213 774 1074 666.5 c 128,-1,7
 935 559 935 559 635 559 c 2,8,-1
 442 559 l 1,9,-1
 442 0 l 1,10,-1
 192 0 l 1,0,-1
442 762 m 1,11,-1
 652 762 l 2,12,13
 811 762 811 762 884 820 c 128,-1,14
 957 878 957 878 957 1015 c 0,15,16
 957 1145 957 1145 879.5 1200.5 c 128,-1,17
 802 1256 802 1256 634 1256 c 2,18,-1
 442 1256 l 1,19,-1
 442 762 l 1,11,-1
EndSplineSet
EndChar

StartChar: Q
Encoding: 81 81 52
Width: 1592
GlyphClass: 2
Flags: W
LayerCount: 2
UndoRedoHistory
Layer: 1
Undoes
EndUndoes
Redoes
EndRedoes
EndUndoRedoHistory
Fore
SplineSet
1187 -257 m 1,0,-1
 827 382 l 1,1,-1
 1005 477 l 1,2,-1
 1355 -168 l 1,3,-1
 1187 -257 l 1,0,-1
793 184 m 0,4,5
 980 184 980 184 1095.5 333 c 128,-1,6
 1211 482 1211 482 1210 724 c 1,7,8
 1210 971 1210 971 1095 1121.5 c 128,-1,9
 980 1272 980 1272 793 1272 c 0,10,11
 607 1272 607 1272 494.5 1122 c 128,-1,12
 382 972 382 972 382 724 c 0,13,14
 382 481 382 481 494.5 332.5 c 128,-1,15
 607 184 607 184 793 184 c 0,4,5
793 -24 m 0,16,17
 596 -24 596 -24 442.5 69 c 128,-1,18
 289 162 289 162 202.5 333 c 128,-1,19
 116 504 116 504 116 726 c 0,20,21
 116 946 116 946 202 1118 c 128,-1,22
 288 1290 288 1290 442.5 1385 c 128,-1,23
 597 1480 597 1480 793 1480 c 0,24,25
 991 1480 991 1480 1146.5 1385 c 128,-1,26
 1302 1290 1302 1290 1389 1118 c 128,-1,27
 1476 946 1476 946 1476 726 c 0,28,29
 1476 504 1476 504 1389 333 c 128,-1,30
 1302 162 1302 162 1146.5 69 c 128,-1,31
 991 -24 991 -24 793 -24 c 0,16,17
EndSplineSet
EndChar

StartChar: R
Encoding: 82 82 53
Width: 1345
GlyphClass: 2
Flags: W
AnchorPoint: "Anchor-1" 676 0 basechar 0
AnchorPoint: "Anchor-0" 700 1536 basechar 0
LayerCount: 2
UndoRedoHistory
Layer: 1
Undoes
EndUndoes
Redoes
EndRedoes
EndUndoRedoHistory
Fore
SplineSet
192 0 m 1,0,-1
 192 1456 l 1,1,-1
 650 1456 l 2,2,3
 933 1456 933 1456 1066.5 1365.5 c 128,-1,4
 1200 1275 1200 1275 1200 1077 c 0,5,6
 1200 745 1200 745 908 666 c 1,7,-1
 962 724 l 1,8,-1
 1275 0 l 1,9,-1
 1008 0 l 1,10,-1
 730 712 l 1,11,-1
 809 646 l 1,12,-1
 442 646 l 1,13,-1
 442 0 l 1,14,-1
 192 0 l 1,0,-1
442 829 m 1,15,-1
 658 829 l 2,16,17
 811 829 811 829 879.5 883.5 c 128,-1,18
 948 938 948 938 948 1062 c 0,19,20
 948 1177 948 1177 885 1216.5 c 128,-1,21
 822 1256 822 1256 667 1256 c 2,22,-1
 442 1256 l 1,23,-1
 442 829 l 1,15,-1
EndSplineSet
EndChar

StartChar: S
Encoding: 83 83 54
Width: 1259
GlyphClass: 2
Flags: W
AnchorPoint: "Anchor-1" 587 -1 basechar 0
AnchorPoint: "Anchor-0" 604 1536 basechar 0
LayerCount: 2
UndoRedoHistory
Layer: 1
Undoes
EndUndoes
Redoes
EndRedoes
EndUndoRedoHistory
Fore
SplineSet
674 -22 m 0,0,1
 548 -22 548 -22 408.5 17.5 c 128,-1,2
 269 57 269 57 165 123 c 1,3,-1
 224 321 l 1,4,5
 466 186 466 186 665 186 c 0,6,7
 780 186 780 186 841.5 244 c 128,-1,8
 903 302 903 302 903 387 c 0,9,10
 903 422 903 422 898 445.5 c 128,-1,11
 893 469 893 469 873.5 498.5 c 128,-1,12
 854 528 854 528 817.5 552 c 128,-1,13
 781 576 781 576 715.5 605.5 c 128,-1,14
 650 635 650 635 555 666 c 1,15,16
 437 707 437 707 358 752 c 128,-1,17
 279 797 279 797 235.5 848 c 128,-1,18
 192 899 192 899 174.5 952 c 128,-1,19
 157 1005 157 1005 157 1074 c 0,20,21
 157 1158 157 1158 184.5 1229.5 c 128,-1,22
 212 1301 212 1301 269 1359 c 128,-1,23
 326 1417 326 1417 423 1449.5 c 128,-1,24
 520 1482 520 1482 648 1482 c 0,25,26
 888 1482 888 1482 1087 1360 c 1,27,-1
 1017 1166 l 1,28,29
 814 1274 814 1274 664 1274 c 0,30,31
 528 1274 528 1274 471.5 1230 c 128,-1,32
 415 1186 415 1186 415 1107 c 0,33,34
 415 1065 415 1065 423 1039 c 128,-1,35
 431 1013 431 1013 459 984 c 128,-1,36
 487 955 487 955 541.5 928 c 128,-1,37
 596 901 596 901 688 868 c 1,38,39
 951 778 951 778 1047 678.5 c 128,-1,40
 1143 579 1143 579 1139 393 c 0,41,42
 1137 306 1137 306 1108 232 c 128,-1,43
 1079 158 1079 158 1023.5 100.5 c 128,-1,44
 968 43 968 43 878.5 10.5 c 128,-1,45
 789 -22 789 -22 674 -22 c 0,0,1
EndSplineSet
EndChar

StartChar: T
Encoding: 84 84 55
Width: 1189
GlyphClass: 2
Flags: W
AnchorPoint: "Anchor-1" 692 0 basechar 0
AnchorPoint: "Anchor-0" 576 1536 basechar 0
LayerCount: 2
UndoRedoHistory
Layer: 1
Undoes
EndUndoes
Redoes
EndRedoes
EndUndoRedoHistory
Fore
SplineSet
471 0 m 1,0,-1
 471 1256 l 1,1,-1
 61 1256 l 1,2,-1
 61 1456 l 1,3,-1
 1129 1456 l 1,4,-1
 1129 1256 l 1,5,-1
 719 1256 l 1,6,-1
 719 0 l 1,7,-1
 471 0 l 1,0,-1
EndSplineSet
EndChar

StartChar: U
Encoding: 85 85 56
Width: 1488
GlyphClass: 2
Flags: W
AnchorPoint: "Anchor-2" 850 0 basechar 0
AnchorPoint: "Anchor-1" 826 0 basechar 0
AnchorPoint: "Anchor-0" 656 1536 basechar 0
LayerCount: 2
UndoRedoHistory
Layer: 1
Undoes
EndUndoes
Redoes
EndRedoes
EndUndoRedoHistory
Fore
SplineSet
753 -24 m 0,0,1
 492 -24 492 -24 325.5 135 c 128,-1,2
 159 294 159 294 159 547 c 2,3,-1
 159 1456 l 1,4,-1
 409 1456 l 1,5,-1
 409 536 l 2,6,7
 409 376 409 376 503 280 c 128,-1,8
 597 184 597 184 752 184 c 0,9,10
 899 184 899 184 989.5 278 c 128,-1,11
 1080 372 1080 372 1080 529 c 2,12,-1
 1079 1456 l 1,13,-1
 1329 1456 l 1,14,-1
 1329 558 l 2,15,16
 1329 300 1329 300 1168.5 138 c 128,-1,17
 1008 -24 1008 -24 753 -24 c 0,0,1
EndSplineSet
EndChar

StartChar: V
Encoding: 86 86 57
Width: 1315
GlyphClass: 2
Flags: W
LayerCount: 2
UndoRedoHistory
Layer: 1
Undoes
EndUndoes
Redoes
EndRedoes
EndUndoRedoHistory
Fore
SplineSet
535 0 m 1,0,-1
 7 1456 l 1,1,-1
 279 1456 l 1,2,-1
 560 630 l 1,3,-1
 675 323 l 1,4,-1
 782 629 l 1,5,-1
 1028 1456 l 1,6,-1
 1308 1456 l 1,7,-1
 813 0 l 1,8,-1
 535 0 l 1,0,-1
EndSplineSet
EndChar

StartChar: W
Encoding: 87 87 58
Width: 2153
GlyphClass: 2
Flags: W
AnchorPoint: "Anchor-1" 1017 0 basechar 0
AnchorPoint: "Anchor-0" 1023 1536 basechar 0
LayerCount: 2
UndoRedoHistory
Layer: 1
Undoes
EndUndoes
Redoes
EndRedoes
EndUndoRedoHistory
Fore
SplineSet
502 0 m 1,0,-1
 50 1456 l 1,1,-1
 305 1456 l 1,2,-1
 554 614 l 1,3,-1
 621 385 l 1,4,-1
 707 614 l 1,5,-1
 1002 1456 l 1,6,-1
 1164 1456 l 1,7,-1
 1458 610 l 1,8,-1
 1539 386 l 1,9,-1
 1611 614 l 1,10,-1
 1854 1456 l 1,11,-1
 2103 1456 l 1,12,-1
 1652 0 l 1,13,-1
 1431 0 l 1,14,-1
 1078 1051 l 1,15,-1
 723 0 l 1,16,-1
 502 0 l 1,0,-1
EndSplineSet
EndChar

StartChar: X
Encoding: 88 88 59
Width: 1349
GlyphClass: 2
Flags: W
LayerCount: 2
UndoRedoHistory
Layer: 1
Undoes
EndUndoes
Redoes
EndRedoes
EndUndoRedoHistory
Fore
SplineSet
1049 0 m 1,0,-1
 674 564 l 1,1,-1
 286 0 l 1,2,-1
 12 0 l 1,3,-1
 551 751 l 1,4,-1
 61 1456 l 1,5,-1
 339 1456 l 1,6,-1
 698 908 l 1,7,-1
 1064 1456 l 1,8,-1
 1337 1456 l 1,9,-1
 821 720 l 1,10,-1
 1320 0 l 1,11,-1
 1049 0 l 1,0,-1
EndSplineSet
EndChar

StartChar: Y
Encoding: 89 89 60
Width: 1219
GlyphClass: 2
Flags: W
AnchorPoint: "Anchor-1" 625 0 basechar 0
AnchorPoint: "Anchor-0" 620 1536 basechar 0
LayerCount: 2
UndoRedoHistory
Layer: 1
Undoes
EndUndoes
Redoes
EndRedoes
EndUndoRedoHistory
Fore
SplineSet
492 0 m 1,0,-1
 492 588 l 1,1,-1
 -17 1456 l 1,2,-1
 254 1456 l 1,3,-1
 615 814 l 1,4,-1
 978 1456 l 1,5,-1
 1236 1456 l 1,6,-1
 742 590 l 1,7,-1
 742 0 l 1,8,-1
 492 0 l 1,0,-1
EndSplineSet
EndChar

StartChar: Z
Encoding: 90 90 61
Width: 1234
GlyphClass: 2
Flags: W
AnchorPoint: "Anchor-1" 676 0 basechar 0
AnchorPoint: "Anchor-0" 700 1536 basechar 0
LayerCount: 2
UndoRedoHistory
Layer: 1
Undoes
EndUndoes
Redoes
EndRedoes
EndUndoRedoHistory
Fore
SplineSet
110 0 m 1,0,-1
 110 198 l 1,1,-1
 850 1256 l 1,2,-1
 141 1256 l 1,3,-1
 141 1456 l 1,4,-1
 1142 1456 l 1,5,-1
 1142 1276 l 1,6,-1
 405 200 l 1,7,-1
 1134 200 l 1,8,-1
 1134 0 l 1,9,-1
 110 0 l 1,0,-1
EndSplineSet
EndChar

StartChar: bracketleft
Encoding: 91 91 62
Width: 918
GlyphClass: 2
Flags: W
LayerCount: 2
UndoRedoHistory
Layer: 1
Undoes
EndUndoes
Redoes
EndRedoes
EndUndoRedoHistory
Fore
SplineSet
287 -204 m 1,0,-1
 287 1480 l 1,1,-1
 738 1480 l 1,2,-1
 738 1350 l 1,3,-1
 546 1350 l 1,4,-1
 546 -75 l 1,5,-1
 738 -75 l 1,6,-1
 738 -204 l 1,7,-1
 287 -204 l 1,0,-1
EndSplineSet
EndChar

StartChar: backslash
Encoding: 92 92 63
Width: 1229
GlyphClass: 2
Flags: W
LayerCount: 2
UndoRedoHistory
Layer: 1
Undoes
EndUndoes
Redoes
EndRedoes
EndUndoRedoHistory
Fore
SplineSet
792 0 m 1,0,-1
 213 1456 l 1,1,-1
 450 1456 l 1,2,-1
 1027 0 l 1,3,-1
 792 0 l 1,0,-1
EndSplineSet
EndChar

StartChar: bracketright
Encoding: 93 93 64
Width: 951
GlyphClass: 2
Flags: W
LayerCount: 2
UndoRedoHistory
Layer: 1
Undoes
EndUndoes
Redoes
EndRedoes
EndUndoRedoHistory
Fore
SplineSet
210 -222 m 1,0,-1
 210 -93 l 1,1,-1
 403 -93 l 1,2,-1
 403 1350 l 1,3,-1
 211 1350 l 1,4,-1
 211 1480 l 1,5,-1
 661 1480 l 1,6,-1
 661 -222 l 1,7,-1
 210 -222 l 1,0,-1
EndSplineSet
EndChar

StartChar: asciicircum
Encoding: 94 94 65
Width: 1209
GlyphClass: 2
Flags: W
LayerCount: 2
UndoRedoHistory
Layer: 1
Undoes
EndUndoes
Redoes
EndRedoes
EndUndoRedoHistory
Fore
SplineSet
105 570 m 1,0,-1
 561 1448 l 1,1,-1
 653 1448 l 1,2,-1
 1115 570 l 1,3,-1
 911 570 l 1,4,-1
 605 1176 l 1,5,-1
 311 570 l 1,6,-1
 105 570 l 1,0,-1
EndSplineSet
EndChar

StartChar: underscore
Encoding: 95 95 66
Width: 937
GlyphClass: 2
Flags: W
LayerCount: 2
UndoRedoHistory
Layer: 1
Undoes
EndUndoes
Redoes
EndRedoes
EndUndoRedoHistory
Fore
SplineSet
-6 -152 m 1,0,-1
 -6 -24 l 1,1,-1
 943 -24 l 1,2,-1
 943 -152 l 1,3,-1
 -6 -152 l 1,0,-1
EndSplineSet
EndChar

StartChar: grave
Encoding: 96 96 67
Width: 1054
GlyphClass: 2
Flags: W
LayerCount: 2
UndoRedoHistory
Layer: 1
Undoes
EndUndoes
Redoes
EndRedoes
EndUndoRedoHistory
Fore
SplineSet
540 1162 m 1,0,-1
 210 1480 l 1,1,-1
 483 1480 l 1,2,-1
 729 1162 l 1,3,-1
 540 1162 l 1,0,-1
EndSplineSet
EndChar

StartChar: a
Encoding: 97 97 68
Width: 1219
GlyphClass: 2
Flags: W
AnchorPoint: "Anchor-2" 994 0 basechar 0
AnchorPoint: "Anchor-1" 616 0 basechar 0
AnchorPoint: "Anchor-0" 637 1152 basechar 0
LayerCount: 2
UndoRedoHistory
Layer: 1
Undoes
EndUndoes
Redoes
EndRedoes
EndUndoRedoHistory
Fore
SplineSet
528 -22 m 0,0,1
 350 -22 350 -22 232 107 c 128,-1,2
 114 236 114 236 114 431 c 0,3,4
 114 701 114 701 271 870.5 c 128,-1,5
 428 1040 428 1040 678 1048 c 0,6,7
 826 1053 826 1053 1014 976 c 1,8,-1
 1014 363 l 2,9,10
 1014 335 1014 335 1014.5 317.5 c 128,-1,11
 1015 300 1015 300 1018.5 278 c 128,-1,12
 1022 256 1022 256 1028.5 243 c 128,-1,13
 1035 230 1035 230 1046.5 215.5 c 128,-1,14
 1058 201 1058 201 1074.5 193.5 c 128,-1,15
 1091 186 1091 186 1116 181 c 128,-1,16
 1141 176 1141 176 1173 176 c 1,17,-1
 1141 -16 l 1,18,19
 1098 -16 1098 -16 1069 -14.5 c 128,-1,20
 1040 -13 1040 -13 1003.5 -8 c 128,-1,21
 967 -3 967 -3 942 8.5 c 128,-1,22
 917 20 917 20 891 37.5 c 128,-1,23
 865 55 865 55 846 83.5 c 128,-1,24
 827 112 827 112 814 151 c 1,25,26
 775 72 775 72 697 25 c 128,-1,27
 619 -22 619 -22 528 -22 c 0,0,1
545 164 m 0,28,29
 648 164 648 164 710 241 c 128,-1,30
 772 318 772 318 772 429 c 2,31,-1
 772 849 l 1,32,33
 766 851 766 851 754.5 854 c 128,-1,34
 743 857 743 857 708.5 860.5 c 128,-1,35
 674 864 674 864 641 861 c 0,36,37
 518 851 518 851 438 730 c 128,-1,38
 358 609 358 609 358 420 c 0,39,40
 358 307 358 307 411 235.5 c 128,-1,41
 464 164 464 164 545 164 c 0,28,29
EndSplineSet
EndChar

StartChar: b
Encoding: 98 98 69
Width: 1231
GlyphClass: 2
Flags: W
AnchorPoint: "Anchor-1" 826 0 basechar 0
AnchorPoint: "Anchor-0" 790 1536 basechar 0
LayerCount: 2
UndoRedoHistory
Layer: 1
Undoes
EndUndoes
Redoes
EndRedoes
EndUndoRedoHistory
Fore
SplineSet
579 -22 m 0,0,1
 382 -22 382 -22 176 55 c 1,2,-1
 176 1480 l 1,3,-1
 418 1480 l 1,4,-1
 418 905 l 1,5,6
 525 1048 525 1048 715 1048 c 0,7,8
 792 1048 792 1048 863.5 1016.5 c 128,-1,9
 935 985 935 985 992.5 926 c 128,-1,10
 1050 867 1050 867 1084.5 773 c 128,-1,11
 1119 679 1119 679 1119 565 c 0,12,13
 1119 452 1119 452 1087.5 354.5 c 128,-1,14
 1056 257 1056 257 1002.5 189 c 128,-1,15
 949 121 949 121 879 72.5 c 128,-1,16
 809 24 809 24 733 1 c 128,-1,17
 657 -22 657 -22 579 -22 c 0,0,1
570 164 m 0,18,19
 607 164 607 164 647 178 c 128,-1,20
 687 192 687 192 727.5 223.5 c 128,-1,21
 768 255 768 255 799.5 300 c 128,-1,22
 831 345 831 345 851 413 c 128,-1,23
 871 481 871 481 871 561 c 0,24,25
 871 688 871 688 815.5 775 c 128,-1,26
 760 862 760 862 673 862 c 0,27,28
 567 862 567 862 492.5 768.5 c 128,-1,29
 418 675 418 675 418 511 c 2,30,-1
 418 187 l 1,31,32
 487 164 487 164 570 164 c 0,18,19
EndSplineSet
EndChar

StartChar: c
Encoding: 99 99 70
Width: 1035
GlyphClass: 2
Flags: W
AnchorPoint: "Anchor-1" 599 0 basechar 0
AnchorPoint: "Anchor-0" 597 1152 basechar 0
LayerCount: 2
UndoRedoHistory
Layer: 1
Undoes
EndUndoes
Redoes
EndRedoes
EndUndoRedoHistory
Fore
SplineSet
623 -22 m 0,0,1
 517 -22 517 -22 427 11 c 128,-1,2
 337 44 337 44 266.5 108.5 c 128,-1,3
 196 173 196 173 156 278.5 c 128,-1,4
 116 384 116 384 116 519 c 0,5,6
 116 651 116 651 157.5 754.5 c 128,-1,7
 199 858 199 858 270.5 921 c 128,-1,8
 342 984 342 984 433 1016 c 128,-1,9
 524 1048 524 1048 629 1048 c 0,10,11
 806 1048 806 1048 941 960 c 1,12,-1
 876 798 l 1,13,14
 758 862 758 862 647 862 c 0,15,16
 517 862 517 862 440.5 773 c 128,-1,17
 364 684 364 684 364 520 c 0,18,19
 364 441 364 441 380.5 379 c 128,-1,20
 397 317 397 317 424 277 c 128,-1,21
 451 237 451 237 488.5 211 c 128,-1,22
 526 185 526 185 565.5 174.5 c 128,-1,23
 605 164 605 164 650 164 c 0,24,25
 787 164 787 164 898 236 c 1,26,-1
 971 81 l 1,27,28
 816 -22 816 -22 623 -22 c 0,0,1
EndSplineSet
EndChar

StartChar: d
Encoding: 100 100 71
Width: 1258
GlyphClass: 2
Flags: W
AnchorPoint: "Anchor-1" 826 0 basechar 0
AnchorPoint: "Anchor-0" 790 1536 basechar 0
LayerCount: 2
UndoRedoHistory
Layer: 1
Undoes
EndUndoes
Redoes
EndRedoes
EndUndoRedoHistory
Fore
SplineSet
360 456 m 0,0,1
 360 325 360 325 422 244.5 c 128,-1,2
 484 164 484 164 568 164 c 0,3,4
 668 164 668 164 739.5 250 c 128,-1,5
 811 336 811 336 811 498 c 2,6,-1
 811 839 l 1,7,8
 733 862 733 862 669 862 c 0,9,10
 610 862 610 862 556 837.5 c 128,-1,11
 502 813 502 813 457.5 765 c 128,-1,12
 413 717 413 717 386.5 637 c 128,-1,13
 360 557 360 557 360 456 c 0,0,1
853 150 m 1,14,15
 803 70 803 70 715.5 24 c 128,-1,16
 628 -22 628 -22 531 -22 c 0,17,18
 455 -22 455 -22 382.5 7 c 128,-1,19
 310 36 310 36 248.5 91.5 c 128,-1,20
 187 147 187 147 149.5 240 c 128,-1,21
 112 333 112 333 112 450 c 0,22,23
 112 564 112 564 142.5 662 c 128,-1,24
 173 760 173 760 224.5 830 c 128,-1,25
 276 900 276 900 343.5 950 c 128,-1,26
 411 1000 411 1000 486.5 1024 c 128,-1,27
 562 1048 562 1048 639 1048 c 0,28,29
 722 1048 722 1048 811 1022 c 1,30,-1
 811 1480 l 1,31,-1
 1053 1480 l 1,32,-1
 1053 365 l 2,33,34
 1053 254 1053 254 1086 215 c 128,-1,35
 1119 176 1119 176 1212 176 c 1,36,-1
 1180 -16 l 1,37,38
 1024 -16 1024 -16 957.5 19 c 128,-1,39
 891 54 891 54 853 150 c 1,14,15
EndSplineSet
EndChar

StartChar: e
Encoding: 101 101 72
Width: 1095
GlyphClass: 2
Flags: W
AnchorPoint: "Anchor-2" 869 56 basechar 0
AnchorPoint: "Anchor-1" 656 0 basechar 0
AnchorPoint: "Anchor-0" 608 1152 basechar 0
LayerCount: 2
UndoRedoHistory
Layer: 1
Undoes
EndUndoes
Redoes
EndRedoes
EndUndoRedoHistory
Fore
SplineSet
613 867 m 0,0,1
 539 867 539 867 477 815.5 c 128,-1,2
 415 764 415 764 381.5 685.5 c 128,-1,3
 348 607 348 607 348 523 c 1,4,5
 569 555 569 555 662.5 612.5 c 128,-1,6
 756 670 756 670 747 758 c 0,7,8
 742 808 742 808 706.5 837.5 c 128,-1,9
 671 867 671 867 613 867 c 0,0,1
953 260 m 1,10,-1
 1031 113 l 1,11,12
 953 45 953 45 841.5 11.5 c 128,-1,13
 730 -22 730 -22 625 -22 c 0,14,15
 515 -22 515 -22 421 14 c 128,-1,16
 327 50 327 50 258.5 117.5 c 128,-1,17
 190 185 190 185 151 287 c 128,-1,18
 112 389 112 389 112 514 c 0,19,20
 112 663 112 663 178.5 785.5 c 128,-1,21
 245 908 245 908 360.5 978 c 128,-1,22
 476 1048 476 1048 616 1048 c 0,23,24
 697 1048 697 1048 764.5 1022 c 128,-1,25
 832 996 832 996 875 953.5 c 128,-1,26
 918 911 918 911 941 858.5 c 128,-1,27
 964 806 964 806 964 750 c 0,28,29
 964 432 964 432 370 371 c 1,30,31
 397 277 397 277 470.5 221.5 c 128,-1,32
 544 166 544 166 651 166 c 0,33,34
 791 166 791 166 953 260 c 1,10,-1
EndSplineSet
EndChar

StartChar: f
Encoding: 102 102 73
Width: 805
GlyphClass: 2
Flags: W
AnchorPoint: "Anchor-1" 366 0 basechar 0
AnchorPoint: "Anchor-0" 543 1464 basechar 0
LayerCount: 2
UndoRedoHistory
Layer: 1
Undoes
EndUndoes
Redoes
EndRedoes
EndUndoRedoHistory
Fore
SplineSet
503 0 m 1,0,-1
 261 0 l 1,1,-1
 261 862 l 1,2,-1
 65 862 l 1,3,-1
 65 1026 l 1,4,-1
 261 1026 l 1,5,-1
 261 1125 l 2,6,7
 261 1337 261 1337 369.5 1423 c 128,-1,8
 478 1509 478 1509 720 1509 c 2,9,-1
 825 1509 l 1,10,-1
 825 1321 l 1,11,-1
 738 1321 l 2,12,13
 660 1321 660 1321 613 1308.5 c 128,-1,14
 566 1296 566 1296 542 1265 c 128,-1,15
 518 1234 518 1234 510.5 1195.5 c 128,-1,16
 503 1157 503 1157 503 1090 c 2,17,-1
 503 1026 l 1,18,-1
 805 1026 l 1,19,-1
 805 862 l 1,20,-1
 503 862 l 1,21,-1
 503 0 l 1,0,-1
EndSplineSet
EndChar

StartChar: g
Encoding: 103 103 74
Width: 1206
GlyphClass: 2
Flags: W
AnchorPoint: "Anchor-1" 588 -512 basechar 0
AnchorPoint: "Anchor-0" 652 1027 basechar 0
LayerCount: 2
UndoRedoHistory
Layer: 1
Undoes
EndUndoes
Redoes
EndRedoes
EndUndoRedoHistory
Fore
SplineSet
557 -522 m 0,0,1
 469 -522 469 -522 367.5 -498 c 128,-1,2
 266 -474 266 -474 181 -429 c 1,3,-1
 222 -227 l 1,4,5
 379 -327 379 -327 534 -327 c 0,6,7
 590 -327 590 -327 637 -311 c 128,-1,8
 684 -295 684 -295 725 -259.5 c 128,-1,9
 766 -224 766 -224 789 -160.5 c 128,-1,10
 812 -97 812 -97 812 -10 c 2,11,-1
 812 129 l 1,12,13
 764 63 764 63 690.5 31.5 c 128,-1,14
 617 0 617 0 538 0 c 0,15,16
 355 0 355 0 233.5 132 c 128,-1,17
 112 264 112 264 112 460 c 0,18,19
 112 721 112 721 264 884.5 c 128,-1,20
 416 1048 416 1048 664 1048 c 0,21,22
 756 1048 756 1048 867.5 1017 c 128,-1,23
 979 986 979 986 1054 942 c 1,24,-1
 1054 36 l 2,25,26
 1054 -94 1054 -94 1015 -200.5 c 128,-1,27
 976 -307 976 -307 908 -377 c 128,-1,28
 840 -447 840 -447 750 -484.5 c 128,-1,29
 660 -522 660 -522 557 -522 c 0,0,1
567 191 m 0,30,31
 676 191 676 191 744 294 c 128,-1,32
 812 397 812 397 812 545 c 2,33,-1
 812 837 l 1,34,35
 748 862 748 862 665 862 c 0,36,37
 533 862 533 862 446.5 758.5 c 128,-1,38
 360 655 360 655 360 470 c 0,39,40
 360 356 360 356 421.5 273.5 c 128,-1,41
 483 191 483 191 567 191 c 0,30,31
EndSplineSet
EndChar

StartChar: h
Encoding: 104 104 75
Width: 1280
GlyphClass: 2
Flags: W
AnchorPoint: "Anchor-1" 645 0 basechar 0
AnchorPoint: "Anchor-0" 737 1260 basechar 0
LayerCount: 2
UndoRedoHistory
Layer: 1
Undoes
EndUndoes
Redoes
EndRedoes
EndUndoRedoHistory
Fore
SplineSet
1200 -16 m 1,0,-1
 1155 -16 l 2,1,2
 983 -16 983 -16 908.5 60.5 c 128,-1,3
 834 137 834 137 834 298 c 2,4,-1
 834 606 l 2,5,6
 834 725 834 725 786.5 793.5 c 128,-1,7
 739 862 739 862 646 862 c 0,8,9
 569 862 569 862 515.5 818.5 c 128,-1,10
 462 775 462 775 440 713 c 128,-1,11
 418 651 418 651 418 577 c 2,12,-1
 418 0 l 1,13,-1
 176 0 l 1,14,-1
 176 1480 l 1,15,-1
 418 1480 l 1,16,-1
 418 919 l 1,17,18
 518 1048 518 1048 704 1048 c 0,19,20
 874 1048 874 1048 975 928.5 c 128,-1,21
 1076 809 1076 809 1076 608 c 2,22,-1
 1076 352 l 2,23,24
 1076 254 1076 254 1104.5 215.5 c 128,-1,25
 1133 177 1133 177 1212 177 c 2,26,-1
 1234 177 l 1,27,-1
 1200 -16 l 1,0,-1
EndSplineSet
EndChar

StartChar: i
Encoding: 105 105 76
Width: 785
GlyphClass: 2
Flags: W
AnchorPoint: "Anchor-1" 248 1 basechar 0
LayerCount: 2
UndoRedoHistory
Layer: 1
Undoes
EndUndoes
Redoes
EndRedoes
EndUndoRedoHistory
Fore
SplineSet
747 33 m 1,0,1
 646 -7 646 -7 551 -13.5 c 128,-1,2
 456 -20 456 -20 375.5 9.5 c 128,-1,3
 295 39 295 39 246 123 c 128,-1,4
 197 207 197 207 197 337 c 2,5,-1
 197 1026 l 1,6,-1
 439 1026 l 1,7,-1
 439 334 l 2,8,9
 439 282 439 282 452 248.5 c 128,-1,10
 465 215 465 215 487 198 c 128,-1,11
 509 181 509 181 545 178 c 128,-1,12
 581 175 581 175 621 181.5 c 128,-1,13
 661 188 661 188 716 203 c 1,14,-1
 747 33 l 1,0,1
323 1188 m 0,15,16
 249 1188 249 1188 205.5 1227 c 128,-1,17
 162 1266 162 1266 162 1334 c 0,18,19
 162 1403 162 1403 206 1441.5 c 128,-1,20
 250 1480 250 1480 325 1480 c 0,21,22
 398 1480 398 1480 442 1440.5 c 128,-1,23
 486 1401 486 1401 486 1333 c 128,-1,24
 486 1265 486 1265 442 1226.5 c 128,-1,25
 398 1188 398 1188 323 1188 c 0,15,16
EndSplineSet
EndChar

StartChar: j
Encoding: 106 106 77
Width: 660
GlyphClass: 2
Flags: W
AnchorPoint: "Anchor-1" 676 0 basechar 0
AnchorPoint: "Anchor-0" 700 1536 basechar 0
LayerCount: 2
UndoRedoHistory
Layer: 1
Undoes
EndUndoes
Redoes
EndRedoes
EndUndoRedoHistory
Fore
SplineSet
371 1188 m 0,0,1
 297 1188 297 1188 253.5 1227 c 128,-1,2
 210 1266 210 1266 210 1334 c 0,3,4
 210 1403 210 1403 254 1441.5 c 128,-1,5
 298 1480 298 1480 373 1480 c 0,6,7
 446 1480 446 1480 490 1440.5 c 128,-1,8
 534 1401 534 1401 534 1333 c 128,-1,9
 534 1265 534 1265 490 1226.5 c 128,-1,10
 446 1188 446 1188 371 1188 c 0,0,1
111 -499 m 0,11,12
 65 -499 65 -499 21 -493 c 128,-1,13
 -23 -487 -23 -487 -44 -481 c 2,14,-1
 -65 -475 l 1,15,-1
 -44 -305 l 1,16,17
 21 -323 21 -323 89 -323 c 0,18,19
 168 -323 168 -323 203.5 -274 c 128,-1,20
 239 -225 239 -225 239 -90 c 2,21,-1
 239 1026 l 1,22,-1
 481 1026 l 1,23,-1
 481 -93 l 2,24,25
 481 -168 481 -168 472 -225 c 128,-1,26
 463 -282 463 -282 438.5 -335.5 c 128,-1,27
 414 -389 414 -389 373.5 -423.5 c 128,-1,28
 333 -458 333 -458 267 -478.5 c 128,-1,29
 201 -499 201 -499 111 -499 c 0,11,12
EndSplineSet
EndChar

StartChar: k
Encoding: 107 107 78
Width: 1198
GlyphClass: 2
Flags: W
AnchorPoint: "Anchor-1" 616 -1 basechar 0
AnchorPoint: "Anchor-0" 767 1152 basechar 0
LayerCount: 2
UndoRedoHistory
Layer: 1
Undoes
EndUndoes
Redoes
EndRedoes
EndUndoRedoHistory
Fore
SplineSet
1159 0 m 1,0,-1
 885 0 l 1,1,-1
 383 536 l 1,2,-1
 863 1026 l 1,3,-1
 1147 1026 l 1,4,-1
 670 536 l 1,5,-1
 1159 0 l 1,0,-1
434 0 m 1,6,-1
 192 0 l 1,7,-1
 192 1480 l 1,8,-1
 434 1480 l 1,9,-1
 434 0 l 1,6,-1
EndSplineSet
EndChar

StartChar: l
Encoding: 108 108 79
Width: 764
GlyphClass: 2
Flags: W
AnchorPoint: "Anchor-1" 264 0 basechar 0
AnchorPoint: "Anchor-0" 266 1474 basechar 0
LayerCount: 2
UndoRedoHistory
Layer: 1
Undoes
EndUndoes
Redoes
EndRedoes
EndUndoRedoHistory
Fore
SplineSet
754 33 m 1,0,1
 668 1 668 1 588 -10.5 c 128,-1,2
 508 -22 508 -22 435.5 -8.5 c 128,-1,3
 363 5 363 5 309 43.5 c 128,-1,4
 255 82 255 82 223.5 157 c 128,-1,5
 192 232 192 232 192 337 c 2,6,-1
 192 1480 l 1,7,-1
 434 1480 l 1,8,-1
 434 334 l 2,9,10
 434 281 434 281 445.5 248 c 128,-1,11
 457 215 457 215 477 198 c 128,-1,12
 497 181 497 181 534.5 178 c 128,-1,13
 572 175 572 175 614.5 181 c 128,-1,14
 657 187 657 187 723 203 c 1,15,-1
 754 33 l 1,0,1
EndSplineSet
EndChar

StartChar: m
Encoding: 109 109 80
Width: 1921
GlyphClass: 2
Flags: W
AnchorPoint: "Anchor-1" 946 0 basechar 0
AnchorPoint: "Anchor-0" 952 1024 basechar 0
LayerCount: 2
UndoRedoHistory
Layer: 1
Undoes
EndUndoes
Redoes
EndRedoes
EndUndoRedoHistory
Fore
SplineSet
1841 -16 m 1,0,-1
 1811 -16 l 2,1,2
 1713 -16 1713 -16 1646 7.5 c 128,-1,3
 1579 31 1579 31 1541.5 79 c 128,-1,4
 1504 127 1504 127 1488 189.5 c 128,-1,5
 1472 252 1472 252 1472 339 c 2,6,-1
 1472 606 l 2,7,8
 1472 725 1472 725 1423.5 793.5 c 128,-1,9
 1375 862 1375 862 1280 862 c 0,10,11
 1198 862 1198 862 1140.5 792.5 c 128,-1,12
 1083 723 1083 723 1083 614 c 2,13,-1
 1083 0 l 1,14,-1
 841 0 l 1,15,-1
 841 606 l 2,16,17
 841 731 841 731 789 796.5 c 128,-1,18
 737 862 737 862 652 862 c 0,19,20
 560 862 560 862 502 785.5 c 128,-1,21
 444 709 444 709 444 591 c 2,22,-1
 444 0 l 1,23,-1
 202 0 l 1,24,-1
 202 641 l 2,25,26
 202 832 202 832 76 937 c 1,27,-1
 303 1026 l 1,28,29
 332 1004 332 1004 362.5 960.5 c 128,-1,30
 393 917 393 917 403 881 c 1,31,32
 446 963 446 963 534.5 1005.5 c 128,-1,33
 623 1048 623 1048 723 1048 c 0,34,35
 827 1048 827 1048 901.5 996 c 128,-1,36
 976 944 976 944 1015 862 c 1,37,38
 1071 961 1071 961 1160.5 1004.5 c 128,-1,39
 1250 1048 1250 1048 1336 1048 c 0,40,41
 1512 1048 1512 1048 1613 929 c 128,-1,42
 1714 810 1714 810 1714 608 c 2,43,-1
 1714 357 l 2,44,45
 1714 260 1714 260 1741.5 218 c 128,-1,46
 1769 176 1769 176 1850 176 c 2,47,-1
 1875 176 l 1,48,-1
 1841 -16 l 1,0,-1
EndSplineSet
EndChar

StartChar: n
Encoding: 110 110 81
Width: 1307
GlyphClass: 2
Flags: W
AnchorPoint: "Anchor-1" 676 0 basechar 0
AnchorPoint: "Anchor-0" 700 1536 basechar 0
LayerCount: 2
UndoRedoHistory
Layer: 1
Undoes
EndUndoes
Redoes
EndRedoes
EndUndoRedoHistory
Fore
SplineSet
1261 176 m 1,0,-1
 1227 -16 l 1,1,-1
 1192 -16 l 2,2,3
 1096 -16 1096 -16 1030 8.5 c 128,-1,4
 964 33 964 33 926.5 84 c 128,-1,5
 889 135 889 135 873.5 203 c 128,-1,6
 858 271 858 271 858 368 c 2,7,-1
 858 604 l 2,8,9
 858 727 858 727 817 794.5 c 128,-1,10
 776 862 776 862 681 862 c 0,11,12
 589 862 589 862 518 789 c 128,-1,13
 447 716 447 716 447 592 c 2,14,-1
 447 0 l 1,15,-1
 205 0 l 1,16,-1
 205 643 l 2,17,18
 205 823 205 823 76 937 c 1,19,-1
 302 1026 l 1,20,21
 337 999 337 999 367 954 c 128,-1,22
 397 909 397 909 406 873 c 1,23,24
 445 947 445 947 536 997.5 c 128,-1,25
 627 1048 627 1048 740 1048 c 0,26,27
 910 1048 910 1048 1005 929.5 c 128,-1,28
 1100 811 1100 811 1100 608 c 2,29,-1
 1100 345 l 2,30,31
 1100 256 1100 256 1129 216 c 128,-1,32
 1158 176 1158 176 1244 176 c 2,33,-1
 1261 176 l 1,0,-1
EndSplineSet
EndChar

StartChar: o
Encoding: 111 111 82
Width: 1218
GlyphClass: 2
Flags: W
AnchorPoint: "Anchor-2" 726 0 basechar 0
AnchorPoint: "Anchor-1" 826 0 basechar 0
AnchorPoint: "Anchor-0" 619 1152 basechar 0
LayerCount: 2
UndoRedoHistory
Layer: 1
Undoes
EndUndoes
Redoes
EndRedoes
EndUndoRedoHistory
Fore
SplineSet
609 164 m 0,0,1
 733 164 733 164 795.5 256 c 128,-1,2
 858 348 858 348 858 512 c 0,3,4
 858 677 858 677 795 769.5 c 128,-1,5
 732 862 732 862 607 862 c 128,-1,6
 482 862 482 862 421 769.5 c 128,-1,7
 360 677 360 677 360 512 c 128,-1,8
 360 347 360 347 422 255.5 c 128,-1,9
 484 164 484 164 609 164 c 0,0,1
607 -22 m 0,10,11
 377 -22 377 -22 244.5 124.5 c 128,-1,12
 112 271 112 271 112 512 c 0,13,14
 112 754 112 754 244 901 c 128,-1,15
 376 1048 376 1048 606 1048 c 0,16,17
 839 1048 839 1048 972.5 902 c 128,-1,18
 1106 756 1106 756 1106 513 c 0,19,20
 1106 271 1106 271 973 124.5 c 128,-1,21
 840 -22 840 -22 607 -22 c 0,10,11
EndSplineSet
EndChar

StartChar: p
Encoding: 112 112 83
Width: 1240
GlyphClass: 2
Flags: W
AnchorPoint: "Anchor-1" 826 0 basechar 0
AnchorPoint: "Anchor-0" 790 1536 basechar 0
LayerCount: 2
UndoRedoHistory
Layer: 1
Undoes
EndUndoes
Redoes
EndRedoes
EndUndoRedoHistory
Fore
SplineSet
183 -548 m 1,0,-1
 183 651 l 2,1,2
 183 826 183 826 54 937 c 1,3,-1
 280 1026 l 1,4,5
 303 1009 303 1009 336 955 c 128,-1,6
 369 901 369 901 384 849 c 1,7,8
 486 1048 486 1048 734 1048 c 0,9,10
 789 1048 789 1048 842 1032.5 c 128,-1,11
 895 1017 895 1017 947.5 981 c 128,-1,12
 1000 945 1000 945 1039.5 892 c 128,-1,13
 1079 839 1079 839 1103.5 757 c 128,-1,14
 1128 675 1128 675 1128 574 c 0,15,16
 1128 308 1128 308 983 143 c 128,-1,17
 838 -22 838 -22 599 -22 c 0,18,19
 522 -22 522 -22 425 4 c 1,20,-1
 425 -548 l 1,21,-1
 183 -548 l 1,0,-1
425 188 m 1,22,23
 500 164 500 164 563 164 c 0,24,25
 716 164 716 164 798 272.5 c 128,-1,26
 880 381 880 381 880 572 c 0,27,28
 880 695 880 695 824 778.5 c 128,-1,29
 768 862 768 862 673 862 c 0,30,31
 570 862 570 862 497.5 762 c 128,-1,32
 425 662 425 662 425 490 c 2,33,-1
 425 188 l 1,22,23
EndSplineSet
EndChar

StartChar: q
Encoding: 113 113 84
Width: 1251
GlyphClass: 2
Flags: W
LayerCount: 2
UndoRedoHistory
Layer: 1
Undoes
EndUndoes
Redoes
EndRedoes
EndUndoRedoHistory
Fore
SplineSet
1095 -552 m 1,0,1
 969 -600 969 -600 896.5 -550.5 c 128,-1,2
 824 -501 824 -501 824 -391 c 2,3,-1
 824 107 l 1,4,5
 776 42 776 42 697 10 c 128,-1,6
 618 -22 618 -22 538 -22 c 0,7,8
 356 -22 356 -22 234 112.5 c 128,-1,9
 112 247 112 247 112 444 c 0,10,11
 112 616 112 616 180 753.5 c 128,-1,12
 248 891 248 891 374.5 969.5 c 128,-1,13
 501 1048 501 1048 664 1048 c 0,14,15
 757 1048 757 1048 874.5 1016.5 c 128,-1,16
 992 985 992 985 1066 942 c 1,17,-1
 1066 -357 l 1,18,-1
 1328 -226 l 1,19,-1
 1377 -405 l 1,20,-1
 1095 -552 l 1,0,1
567 164 m 0,21,22
 676 164 676 164 750 272.5 c 128,-1,23
 824 381 824 381 824 529 c 2,24,-1
 824 838 l 1,25,26
 762 862 762 862 665 862 c 0,27,28
 534 862 534 862 447 751 c 128,-1,29
 360 640 360 640 360 454 c 0,30,31
 360 339 360 339 422 251.5 c 128,-1,32
 484 164 484 164 567 164 c 0,21,22
EndSplineSet
EndChar

StartChar: r
Encoding: 114 114 85
Width: 890
GlyphClass: 2
Flags: W
AnchorPoint: "Anchor-1" 338 -3 basechar 0
AnchorPoint: "Anchor-0" 487 1152 basechar 0
LayerCount: 2
UndoRedoHistory
Layer: 1
Undoes
EndUndoes
Redoes
EndRedoes
EndUndoRedoHistory
Fore
SplineSet
211 0 m 1,0,-1
 211 652 l 2,1,2
 211 751 211 751 171 824.5 c 128,-1,3
 131 898 131 898 82 937 c 1,4,-1
 308 1026 l 1,5,6
 333 1002 333 1002 347 986 c 128,-1,7
 361 970 361 970 379.5 937.5 c 128,-1,8
 398 905 398 905 412 864 c 1,9,10
 454 955 454 955 532.5 999.5 c 128,-1,11
 611 1044 611 1044 699 1044 c 0,12,13
 779 1044 779 1044 832 1022 c 1,14,-1
 814 815 l 1,15,16
 750 831 750 831 698 831 c 0,17,18
 644 831 644 831 599.5 811 c 128,-1,19
 555 791 555 791 528.5 761.5 c 128,-1,20
 502 732 502 732 484.5 694.5 c 128,-1,21
 467 657 467 657 460 625 c 128,-1,22
 453 593 453 593 453 566 c 2,23,-1
 453 0 l 1,24,-1
 211 0 l 1,0,-1
EndSplineSet
EndChar

StartChar: s
Encoding: 115 115 86
Width: 953
GlyphClass: 2
Flags: W
AnchorPoint: "Anchor-1" 501 0 basechar 0
AnchorPoint: "Anchor-0" 500 1152 basechar 0
LayerCount: 2
UndoRedoHistory
Layer: 1
Undoes
EndUndoes
Redoes
EndRedoes
EndUndoRedoHistory
Fore
SplineSet
500 -22 m 0,0,1
 399 -22 399 -22 306 6 c 128,-1,2
 213 34 213 34 151 67 c 1,3,-1
 203 244 l 1,4,5
 355 166 355 166 500 166 c 0,6,7
 568 166 568 166 599 197.5 c 128,-1,8
 630 229 630 229 630 277 c 0,9,10
 630 333 630 333 588.5 365.5 c 128,-1,11
 547 398 547 398 425 443 c 1,12,13
 267 495 267 495 203.5 568.5 c 128,-1,14
 140 642 140 642 140 754 c 0,15,16
 140 805 140 805 159 854.5 c 128,-1,17
 178 904 178 904 216.5 948.5 c 128,-1,18
 255 993 255 993 325 1020.5 c 128,-1,19
 395 1048 395 1048 487 1048 c 0,20,21
 678 1048 678 1048 813 973 c 1,22,-1
 757 810 l 1,23,24
 629 866 629 866 507 866 c 0,25,26
 374 866 374 866 367 770 c 0,27,28
 363 725 363 725 402.5 694 c 128,-1,29
 442 663 442 663 541 629 c 0,30,31
 716 569 716 569 783 498.5 c 128,-1,32
 850 428 850 428 851 304 c 1,33,34
 851 152 851 152 761.5 65 c 128,-1,35
 672 -22 672 -22 500 -22 c 0,0,1
EndSplineSet
EndChar

StartChar: t
Encoding: 116 116 87
Width: 890
GlyphClass: 2
Flags: W
AnchorPoint: "Anchor-1" 501 0 basechar 0
AnchorPoint: "Anchor-0" 500 1152 basechar 0
LayerCount: 2
UndoRedoHistory
Layer: 1
Undoes
EndUndoes
Redoes
EndRedoes
EndUndoRedoHistory
Fore
SplineSet
862 33 m 1,0,1
 763 1 763 1 673.5 -10.5 c 128,-1,2
 584 -22 584 -22 503.5 -9 c 128,-1,3
 423 4 423 4 364 43 c 128,-1,4
 305 82 305 82 270.5 156.5 c 128,-1,5
 236 231 236 231 236 337 c 2,6,-1
 236 862 l 1,7,-1
 32 862 l 1,8,-1
 32 1026 l 1,9,-1
 236 1026 l 1,10,-1
 236 1309 l 1,11,-1
 478 1368 l 1,12,-1
 478 1026 l 1,13,-1
 780 1026 l 1,14,-1
 780 862 l 1,15,-1
 478 862 l 1,16,-1
 478 334 l 2,17,18
 478 269 478 269 501.5 231.5 c 128,-1,19
 525 194 525 194 573 182.5 c 128,-1,20
 621 171 621 171 682.5 178 c 128,-1,21
 744 185 744 185 831 208 c 1,22,-1
 862 33 l 1,0,1
EndSplineSet
EndChar

StartChar: u
Encoding: 117 117 88
Width: 1257
GlyphClass: 2
Flags: W
AnchorPoint: "Anchor-2" 947 0 basechar 0
AnchorPoint: "Anchor-1" 587 0 basechar 0
AnchorPoint: "Anchor-0" 600 1152 basechar 0
LayerCount: 2
UndoRedoHistory
Layer: 1
Undoes
EndUndoes
Redoes
EndRedoes
EndUndoRedoHistory
Fore
SplineSet
528 -22 m 0,0,1
 362 -22 362 -22 265.5 81 c 128,-1,2
 169 184 169 184 169 354 c 2,3,-1
 169 524 l 2,4,5
 169 662 169 662 163.5 787.5 c 128,-1,6
 158 913 158 913 152 970 c 2,7,-1
 147 1026 l 1,8,-1
 395 1026 l 1,9,10
 411 879 411 879 411 553 c 2,11,-1
 411 377 l 2,12,13
 411 282 411 282 454.5 226 c 128,-1,14
 498 170 498 170 578 165 c 0,15,16
 685 158 685 158 746 217.5 c 128,-1,17
 807 277 807 277 807 409 c 2,18,-1
 807 1026 l 1,19,-1
 1049 1026 l 1,20,-1
 1049 360 l 2,21,22
 1049 320 1049 320 1051 296 c 128,-1,23
 1053 272 1053 272 1062 246 c 128,-1,24
 1071 220 1071 220 1087.5 206.5 c 128,-1,25
 1104 193 1104 193 1134 184.5 c 128,-1,26
 1164 176 1164 176 1208 176 c 1,27,-1
 1176 -16 l 1,28,29
 1121 -16 1121 -16 1084 -13.5 c 128,-1,30
 1047 -11 1047 -11 1007 -1 c 128,-1,31
 967 9 967 9 940 26.5 c 128,-1,32
 913 44 913 44 889 75 c 128,-1,33
 865 106 865 106 849 151 c 1,34,35
 812 73 812 73 727.5 25.5 c 128,-1,36
 643 -22 643 -22 528 -22 c 0,0,1
EndSplineSet
EndChar

StartChar: v
Encoding: 118 118 89
Width: 1036
GlyphClass: 2
Flags: W
LayerCount: 2
UndoRedoHistory
Layer: 1
Undoes
EndUndoes
Redoes
EndRedoes
EndUndoRedoHistory
Fore
SplineSet
435 0 m 1,0,-1
 17 1026 l 1,1,-1
 270 1026 l 1,2,-1
 472 484 l 1,3,-1
 533 325 l 1,4,-1
 587 484 l 1,5,-1
 770 1026 l 1,6,-1
 1019 1026 l 1,7,-1
 637 0 l 1,8,-1
 435 0 l 1,0,-1
EndSplineSet
EndChar

StartChar: w
Encoding: 119 119 90
Width: 1639
GlyphClass: 2
Flags: W
AnchorPoint: "Anchor-1" 840 0 basechar 0
AnchorPoint: "Anchor-0" 843 1024 basechar 0
LayerCount: 2
UndoRedoHistory
Layer: 1
Undoes
EndUndoes
Redoes
EndRedoes
EndUndoRedoHistory
Fore
SplineSet
423 0 m 1,0,-1
 34 1026 l 1,1,-1
 281 1026 l 1,2,-1
 466 484 l 1,3,-1
 522 325 l 1,4,-1
 577 484 l 1,5,-1
 740 995 l 1,6,-1
 897 995 l 1,7,-1
 1079 484 l 1,8,-1
 1136 325 l 1,9,-1
 1190 484 l 1,10,-1
 1371 1026 l 1,11,-1
 1605 1026 l 1,12,-1
 1239 0 l 1,13,-1
 1045 0 l 1,14,-1
 826 582 l 1,15,-1
 623 0 l 1,16,-1
 423 0 l 1,0,-1
EndSplineSet
EndChar

StartChar: x
Encoding: 120 120 91
Width: 1118
GlyphClass: 2
Flags: W
LayerCount: 2
UndoRedoHistory
Layer: 1
Undoes
EndUndoes
Redoes
EndRedoes
EndUndoRedoHistory
Fore
SplineSet
32 0 m 1,0,-1
 426 535 l 1,1,-1
 77 1026 l 1,2,-1
 362 1026 l 1,3,-1
 581 697 l 1,4,-1
 790 1026 l 1,5,-1
 1069 1026 l 1,6,-1
 705 520 l 1,7,-1
 1086 0 l 1,8,-1
 783 0 l 1,9,-1
 545 361 l 1,10,-1
 298 0 l 1,11,-1
 32 0 l 1,0,-1
EndSplineSet
EndChar

StartChar: y
Encoding: 121 121 92
Width: 1254
GlyphClass: 2
Flags: W
AnchorPoint: "Anchor-0" 536 1024 basechar 0
LayerCount: 2
UndoRedoHistory
Layer: 1
Undoes
EndUndoes
Redoes
EndRedoes
EndUndoRedoHistory
Fore
SplineSet
592 -522 m 0,0,1
 504 -522 504 -522 404.5 -498 c 128,-1,2
 305 -474 305 -474 219 -429 c 1,3,-1
 260 -227 l 1,4,5
 327 -270 327 -270 411.5 -298.5 c 128,-1,6
 496 -327 496 -327 570 -327 c 0,7,8
 610 -327 610 -327 646.5 -319.5 c 128,-1,9
 683 -312 683 -312 721.5 -290 c 128,-1,10
 760 -268 760 -268 787.5 -234 c 128,-1,11
 815 -200 815 -200 832.5 -142.5 c 128,-1,12
 850 -85 850 -85 850 -10 c 2,13,-1
 850 208 l 1,14,-1
 911 205 l 1,15,16
 823 -1 823 -1 566 -1 c 0,17,18
 394 -1 394 -1 285.5 103.5 c 128,-1,19
 177 208 177 208 177 376 c 2,20,-1
 177 594 l 2,21,22
 177 718 177 718 171.5 826 c 128,-1,23
 166 934 166 934 160 980 c 2,24,-1
 154 1026 l 1,25,-1
 399 1026 l 1,26,27
 419 913 419 913 419 607 c 2,28,-1
 419 402 l 2,29,30
 419 303 419 303 471 247 c 128,-1,31
 523 191 523 191 610 191 c 0,32,33
 728 191 728 191 789 270.5 c 128,-1,34
 850 350 850 350 850 503 c 2,35,-1
 850 1026 l 1,36,-1
 1092 1026 l 1,37,-1
 1092 53 l 2,38,39
 1092 -90 1092 -90 1051.5 -202.5 c 128,-1,40
 1011 -315 1011 -315 941 -383.5 c 128,-1,41
 871 -452 871 -452 782.5 -487 c 128,-1,42
 694 -522 694 -522 592 -522 c 0,0,1
EndSplineSet
EndChar

StartChar: z
Encoding: 122 122 93
Width: 998
GlyphClass: 2
Flags: W
AnchorPoint: "Anchor-1" 555 0 basechar 0
AnchorPoint: "Anchor-0" 506 1024 basechar 0
LayerCount: 2
UndoRedoHistory
Layer: 1
Undoes
EndUndoes
Redoes
EndRedoes
EndUndoRedoHistory
Fore
SplineSet
122 0 m 1,0,-1
 122 155 l 1,1,-1
 600 856 l 1,2,-1
 128 856 l 1,3,-1
 128 1026 l 1,4,-1
 888 1026 l 1,5,-1
 888 873 l 1,6,-1
 418 170 l 1,7,-1
 910 170 l 1,8,-1
 910 0 l 1,9,-1
 122 0 l 1,0,-1
EndSplineSet
EndChar

StartChar: braceleft
Encoding: 123 123 94
Width: 933
GlyphClass: 2
Flags: W
LayerCount: 2
UndoRedoHistory
Layer: 1
Undoes
EndUndoes
Redoes
EndRedoes
EndUndoRedoHistory
Fore
SplineSet
786 -196 m 1,0,1
 719 -196 719 -196 656.5 -185 c 128,-1,2
 594 -174 594 -174 536.5 -149.5 c 128,-1,3
 479 -125 479 -125 437 -89 c 128,-1,4
 395 -53 395 -53 370 1 c 128,-1,5
 345 55 345 55 345 122 c 2,6,-1
 345 299 l 2,7,8
 345 442 345 442 309 508 c 128,-1,9
 273 574 273 574 160 586 c 1,10,-1
 160 768 l 1,11,12
 262 777 262 777 303.5 839.5 c 128,-1,13
 345 902 345 902 345 1024 c 2,14,-1
 345 1190 l 2,15,16
 345 1370 345 1370 465.5 1461 c 128,-1,17
 586 1552 586 1552 786 1552 c 1,18,-1
 786 1384 l 1,19,20
 682 1384 682 1384 638.5 1345.5 c 128,-1,21
 595 1307 595 1307 595 1207 c 2,22,-1
 595 998 l 2,23,24
 595 888 595 888 542.5 803.5 c 128,-1,25
 490 719 490 719 411 677 c 1,26,27
 495 637 495 637 545 554.5 c 128,-1,28
 595 472 595 472 595 360 c 2,29,-1
 595 203 l 2,30,31
 595 136 595 136 601 97.5 c 128,-1,32
 607 59 607 59 626.5 28 c 128,-1,33
 646 -3 646 -3 684.5 -15.5 c 128,-1,34
 723 -28 723 -28 786 -28 c 1,35,-1
 786 -196 l 1,0,1
EndSplineSet
EndChar

StartChar: bar
Encoding: 124 124 95
Width: 844
GlyphClass: 2
Flags: W
LayerCount: 2
UndoRedoHistory
Layer: 1
Undoes
EndUndoes
Redoes
EndRedoes
EndUndoRedoHistory
Fore
SplineSet
306 -126 m 1,0,-1
 306 1570 l 1,1,-1
 538 1570 l 1,2,-1
 538 -126 l 1,3,-1
 306 -126 l 1,0,-1
EndSplineSet
EndChar

StartChar: braceright
Encoding: 125 125 96
Width: 973
GlyphClass: 2
Flags: W
LayerCount: 2
UndoRedoHistory
Layer: 1
Undoes
EndUndoes
Redoes
EndRedoes
EndUndoRedoHistory
Fore
SplineSet
190 -326 m 1,0,-1
 190 -178 l 1,1,2
 306 -178 306 -178 342.5 -119.5 c 128,-1,3
 379 -61 379 -61 379 103 c 2,4,-1
 379 290 l 2,5,6
 379 531 379 531 540 607 c 1,7,8
 463 647 463 647 419 730 c 128,-1,9
 375 813 375 813 375 928 c 2,10,-1
 375 1207 l 2,11,12
 375 1309 375 1309 332 1355 c 128,-1,13
 289 1401 289 1401 190 1404 c 1,14,-1
 190 1552 l 1,15,16
 381 1552 381 1552 475 1464 c 128,-1,17
 569 1376 569 1376 569 1190 c 2,18,-1
 569 954 l 2,19,20
 569 829 569 829 612 758 c 128,-1,21
 655 687 655 687 755 678 c 1,22,-1
 753 536 l 1,23,24
 573 518 573 518 571 335 c 2,25,-1
 569 -8 l 2,26,27
 568 -310 568 -310 190 -326 c 1,0,-1
EndSplineSet
EndChar

StartChar: asciitilde
Encoding: 126 126 97
Width: 1535
GlyphClass: 2
Flags: W
LayerCount: 2
UndoRedoHistory
Layer: 1
Undoes
EndUndoes
Redoes
EndRedoes
EndUndoRedoHistory
Fore
SplineSet
345 667 m 1,0,-1
 198 721 l 1,1,2
 213 813 213 813 249.5 885 c 128,-1,3
 286 957 286 957 337 1000.5 c 128,-1,4
 388 1044 388 1044 449.5 1065 c 128,-1,5
 511 1086 511 1086 577.5 1080 c 128,-1,6
 644 1074 644 1074 709 1043 c 2,7,-1
 948 928 l 2,8,9
 995 905 995 905 1034 905 c 128,-1,10
 1073 905 1073 905 1099 919.5 c 128,-1,11
 1125 934 1125 934 1149 968 c 128,-1,12
 1173 1002 1173 1002 1187 1033 c 128,-1,13
 1201 1064 1201 1064 1219 1113 c 1,14,-1
 1366 1067 l 1,15,16
 1344 952 1344 952 1303.5 868 c 128,-1,17
 1263 784 1263 784 1200.5 732 c 128,-1,18
 1138 680 1138 680 1056 677.5 c 128,-1,19
 974 675 974 675 869 724 c 1,20,-1
 639 838 l 1,21,22
 577 866 577 866 527.5 863.5 c 128,-1,23
 478 861 478 861 440.5 830.5 c 128,-1,24
 403 800 403 800 379.5 758.5 c 128,-1,25
 356 717 356 717 345 667 c 1,0,-1
EndSplineSet
EndChar

StartChar: cent
Encoding: 162 162 100
Width: 1120
GlyphClass: 2
Flags: W
LayerCount: 2
UndoRedoHistory
Layer: 1
Undoes
EndUndoes
Redoes
EndRedoes
EndUndoRedoHistory
Fore
SplineSet
595 -414 m 1,0,-1
 595 1366 l 1,1,-1
 728 1366 l 1,2,-1
 728 -414 l 1,3,-1
 595 -414 l 1,0,-1
633 -22 m 0,4,5
 826 -22 826 -22 981 81 c 1,6,-1
 908 236 l 1,7,8
 797 164 797 164 660 164 c 0,9,10
 615 164 615 164 575.5 174.5 c 128,-1,11
 536 185 536 185 498.5 211 c 128,-1,12
 461 237 461 237 434 277 c 128,-1,13
 407 317 407 317 390.5 379 c 128,-1,14
 374 441 374 441 374 520 c 0,15,16
 374 684 374 684 450.5 773 c 128,-1,17
 527 862 527 862 657 862 c 0,18,19
 768 862 768 862 886 798 c 1,20,-1
 951 960 l 1,21,22
 816 1048 816 1048 639 1048 c 0,23,24
 534 1048 534 1048 443 1016 c 128,-1,25
 352 984 352 984 280.5 921 c 128,-1,26
 209 858 209 858 167.5 754.5 c 128,-1,27
 126 651 126 651 126 519 c 0,28,29
 126 384 126 384 166 278.5 c 128,-1,30
 206 173 206 173 276.5 108.5 c 128,-1,31
 347 44 347 44 437 11 c 128,-1,32
 527 -22 527 -22 633 -22 c 0,4,5
EndSplineSet
EndChar

StartChar: sterling
Encoding: 163 163 101
Width: 1254
GlyphClass: 2
Flags: W
LayerCount: 2
UndoRedoHistory
Layer: 1
Undoes
EndUndoes
Redoes
EndRedoes
EndUndoRedoHistory
Fore
SplineSet
189 0 m 1,0,-1
 187 142 l 1,1,2
 268 189 268 189 321 300.5 c 128,-1,3
 374 412 374 412 374 540 c 2,4,-1
 374 675 l 1,5,-1
 187 675 l 1,6,-1
 187 820 l 1,7,-1
 374 820 l 1,8,-1
 374 880 l 2,9,10
 374 991 374 991 387.5 1080 c 128,-1,11
 401 1169 401 1169 432.5 1245 c 128,-1,12
 464 1321 464 1321 514 1372 c 128,-1,13
 564 1423 564 1423 639.5 1451.5 c 128,-1,14
 715 1480 715 1480 814 1480 c 0,15,16
 1008 1480 1008 1480 1138 1378 c 1,17,-1
 1068 1200 l 1,18,19
 951 1272 951 1272 843 1272 c 0,20,21
 744 1272 744 1272 683 1200 c 128,-1,22
 622 1128 622 1128 622 969 c 2,23,-1
 622 820 l 1,24,-1
 960 820 l 1,25,-1
 960 675 l 1,26,-1
 624 675 l 1,27,-1
 624 595 l 2,28,29
 624 254 624 254 484 177 c 1,30,-1
 1137 177 l 1,31,-1
 1137 0 l 1,32,-1
 189 0 l 1,0,-1
EndSplineSet
EndChar

StartChar: currency
Encoding: 164 164 102
Width: 1373
GlyphClass: 2
Flags: W
LayerCount: 2
UndoRedoHistory
Layer: 1
Undoes
EndUndoes
Redoes
EndRedoes
EndUndoRedoHistory
Fore
SplineSet
1152 361 m 1,0,-1
 959 550 l 1,1,2
 862 456 862 456 683 456 c 0,3,4
 514 456 514 456 421 540 c 1,5,-1
 238 343 l 1,6,-1
 196 387 l 1,7,-1
 381 581 l 1,8,9
 258 714 258 714 258 891 c 0,10,11
 258 1050 258 1050 368 1180 c 1,12,-1
 178 1365 l 1,13,-1
 223 1410 l 1,14,-1
 409 1226 l 1,15,16
 514 1330 514 1330 694 1325 c 0,17,18
 861 1320 861 1320 951 1236 c 1,19,-1
 1130 1429 l 1,20,-1
 1178 1384 l 1,21,-1
 992 1191 l 1,22,23
 1112 1056 1112 1056 1108 879 c 1,24,25
 1103 713 1103 713 999 593 c 1,26,-1
 1195 403 l 1,27,-1
 1152 361 l 1,0,-1
681 546 m 0,28,29
 817 546 817 546 906.5 638.5 c 128,-1,30
 996 731 996 731 1000 879 c 0,31,32
 1003 1027 1003 1027 914 1125.5 c 128,-1,33
 825 1224 825 1224 690 1227 c 0,34,35
 554 1231 554 1231 458.5 1133 c 128,-1,36
 363 1035 363 1035 363 888 c 0,37,38
 363 739 363 739 454.5 642.5 c 128,-1,39
 546 546 546 546 681 546 c 0,28,29
EndSplineSet
EndChar

StartChar: yen
Encoding: 165 165 103
Width: 1256
GlyphClass: 2
Flags: W
LayerCount: 2
UndoRedoHistory
Layer: 1
Undoes
EndUndoes
Redoes
EndRedoes
EndUndoRedoHistory
Fore
SplineSet
1124 283 m 1,0,-1
 119 283 l 1,1,-1
 119 422 l 1,2,-1
 528 422 l 1,3,-1
 528 608 l 1,4,-1
 112 608 l 1,5,-1
 112 750 l 1,6,-1
 1120 750 l 1,7,-1
 1120 608 l 1,8,-1
 717 608 l 1,9,-1
 717 422 l 1,10,-1
 1124 422 l 1,11,-1
 1124 283 l 1,0,-1
502 0 m 1,12,-1
 502 588 l 1,13,-1
 -7 1456 l 1,14,-1
 264 1456 l 1,15,-1
 625 814 l 1,16,-1
 988 1456 l 1,17,-1
 1246 1456 l 1,18,-1
 752 590 l 1,19,-1
 752 0 l 1,20,-1
 502 0 l 1,12,-1
EndSplineSet
EndChar

StartChar: brokenbar
Encoding: 166 166 104
Width: 792
GlyphClass: 2
Flags: W
LayerCount: 2
UndoRedoHistory
Layer: 1
Undoes
EndUndoes
Redoes
EndRedoes
EndUndoRedoHistory
Fore
SplineSet
274 -277 m 1,0,-1
 274 518 l 1,1,-1
 514 518 l 1,2,-1
 514 -277 l 1,3,-1
 274 -277 l 1,0,-1
274 772 m 1,4,-1
 274 1526 l 1,5,-1
 514 1526 l 1,6,-1
 514 772 l 1,7,-1
 274 772 l 1,4,-1
EndSplineSet
EndChar

StartChar: section
Encoding: 167 167 105
Width: 1272
GlyphClass: 2
Flags: W
LayerCount: 2
UndoRedoHistory
Layer: 1
Undoes
EndUndoes
Redoes
EndRedoes
EndUndoRedoHistory
Fore
SplineSet
1061 143 m 0,0,1
 1061 46 1061 46 1011.5 -25 c 128,-1,2
 962 -96 962 -96 879 -131.5 c 128,-1,3
 796 -167 796 -167 691.5 -177.5 c 128,-1,4
 587 -188 587 -188 473 -171 c 128,-1,5
 359 -154 359 -154 252 -113 c 1,6,-1
 250 106 l 1,7,8
 393 55 393 55 521.5 47.5 c 128,-1,9
 650 40 650 40 723.5 65 c 128,-1,10
 797 90 797 90 814 133 c 0,11,12
 820 148 820 148 820.5 161.5 c 128,-1,13
 821 175 821 175 815.5 186.5 c 128,-1,14
 810 198 810 198 802.5 207.5 c 128,-1,15
 795 217 795 217 780.5 226.5 c 128,-1,16
 766 236 766 236 753.5 243 c 128,-1,17
 741 250 741 250 720 258.5 c 128,-1,18
 699 267 699 267 684 272.5 c 128,-1,19
 669 278 669 278 644.5 287 c 128,-1,20
 620 296 620 296 605 302 c 0,21,22
 429 373 429 373 384 397 c 0,23,24
 275 454 275 454 240 534 c 0,25,26
 218 586 218 586 218 657 c 0,27,28
 218 707 218 707 237 748.5 c 128,-1,29
 256 790 256 790 292 820.5 c 128,-1,30
 328 851 328 851 363 871.5 c 128,-1,31
 398 892 398 892 446 912 c 1,32,33
 358 957 358 957 310.5 1021.5 c 128,-1,34
 263 1086 263 1086 263 1183 c 0,35,36
 263 1260 263 1260 301 1319 c 128,-1,37
 339 1378 339 1378 404 1412 c 128,-1,38
 469 1446 469 1446 548 1463 c 128,-1,39
 627 1480 627 1480 716 1480 c 0,40,41
 766 1480 766 1480 815.5 1473.5 c 128,-1,42
 865 1467 865 1467 897 1459.5 c 128,-1,43
 929 1452 929 1452 989 1436 c 1,44,-1
 989 1236 l 1,45,46
 902 1272 902 1272 793 1281.5 c 128,-1,47
 684 1291 684 1291 602.5 1266.5 c 128,-1,48
 521 1242 521 1242 516 1187 c 0,49,50
 514 1156 514 1156 524.5 1131 c 128,-1,51
 535 1106 535 1106 558 1088.5 c 128,-1,52
 581 1071 581 1071 602.5 1060 c 128,-1,53
 624 1049 624 1049 655 1037 c 0,54,55
 753 1000 753 1000 800 980.5 c 128,-1,56
 847 961 847 961 914.5 925 c 128,-1,57
 982 889 982 889 1012 856.5 c 128,-1,58
 1042 824 1042 824 1065.5 774.5 c 128,-1,59
 1089 725 1089 725 1089 665 c 0,60,61
 1089 615 1089 615 1070 573 c 128,-1,62
 1051 531 1051 531 1014.5 498.5 c 128,-1,63
 978 466 978 466 945 445 c 128,-1,64
 912 424 912 424 864 399 c 1,65,66
 1061 314 1061 314 1061 143 c 0,0,1
697 501 m 1,67,68
 728 520 728 520 746 532.5 c 128,-1,69
 764 545 764 545 787 566 c 128,-1,70
 810 587 810 587 821.5 610.5 c 128,-1,71
 833 634 833 634 833 660 c 0,72,73
 833 691 833 691 817.5 716 c 128,-1,74
 802 741 802 741 774.5 757.5 c 128,-1,75
 747 774 747 774 720.5 785 c 128,-1,76
 694 796 694 796 659 809 c 128,-1,77
 624 822 624 822 606 831 c 1,78,79
 549 803 549 803 513 767 c 128,-1,80
 477 731 477 731 477 676 c 0,81,82
 477 652 477 652 483 632.5 c 128,-1,83
 489 613 489 613 503 598 c 128,-1,84
 517 583 517 583 530 572 c 128,-1,85
 543 561 543 561 567 550.5 c 128,-1,86
 591 540 591 540 606.5 533.5 c 128,-1,87
 622 527 622 527 652 517 c 128,-1,88
 682 507 682 507 697 501 c 1,67,68
EndSplineSet
EndChar

StartChar: dieresis
Encoding: 168 168 106
Width: 1296
GlyphClass: 2
Flags: W
AnchorPoint: "Anchor-0" 368 1152 mark 0
LayerCount: 2
UndoRedoHistory
Layer: 1
Undoes
EndUndoes
Redoes
EndRedoes
EndUndoRedoHistory
Fore
SplineSet
310 1187 m 1,0,-1
 310 1448 l 1,1,-1
 571 1448 l 1,2,-1
 571 1187 l 1,3,-1
 310 1187 l 1,0,-1
736 1187 m 1,4,-1
 736 1448 l 1,5,-1
 997 1448 l 1,6,-1
 997 1187 l 1,7,-1
 736 1187 l 1,4,-1
EndSplineSet
EndChar

StartChar: copyright
Encoding: 169 169 107
Width: 1820
GlyphClass: 2
Flags: W
LayerCount: 2
UndoRedoHistory
Layer: 1
Undoes
EndUndoes
Redoes
EndRedoes
EndUndoRedoHistory
Fore
SplineSet
935 249 m 0,0,1
 827 249 827 249 738 288 c 128,-1,2
 649 327 649 327 590.5 393 c 128,-1,3
 532 459 532 459 500 546 c 128,-1,4
 468 633 468 633 468 729 c 0,5,6
 468 956 468 956 601.5 1082 c 128,-1,7
 735 1208 735 1208 945 1208 c 0,8,9
 1112 1208 1112 1208 1228 1105 c 1,10,-1
 1198 985 l 1,11,12
 1092 1080 1092 1080 939 1080 c 0,13,14
 788 1080 788 1080 704.5 980.5 c 128,-1,15
 621 881 621 881 621 733 c 0,16,17
 621 564 621 564 712.5 472 c 128,-1,18
 804 380 804 380 965 380 c 0,19,20
 1099 380 1099 380 1194 460 c 1,21,-1
 1231 339 l 1,22,23
 1106 249 1106 249 935 249 c 0,0,1
909 80 m 0,24,25
 1081 80 1081 80 1226 167.5 c 128,-1,26
 1371 255 1371 255 1454.5 403.5 c 128,-1,27
 1538 552 1538 552 1538 725 c 0,28,29
 1538 899 1538 899 1454.5 1047.5 c 128,-1,30
 1371 1196 1371 1196 1226 1283.5 c 128,-1,31
 1081 1371 1081 1371 909 1371 c 0,32,33
 736 1371 736 1371 591 1283.5 c 128,-1,34
 446 1196 446 1196 362.5 1047.5 c 128,-1,35
 279 899 279 899 279 725 c 0,36,37
 279 552 279 552 362.5 403.5 c 128,-1,38
 446 255 446 255 591 167.5 c 128,-1,39
 736 80 736 80 909 80 c 0,24,25
910 1480 m 128,-1,41
 1062 1480 1062 1480 1201.5 1420 c 128,-1,42
 1341 1360 1341 1360 1442 1259 c 128,-1,43
 1543 1158 1543 1158 1602.5 1018.5 c 128,-1,44
 1662 879 1662 879 1662 727 c 128,-1,45
 1662 575 1662 575 1602 436 c 128,-1,46
 1542 297 1542 297 1441.5 196 c 128,-1,47
 1341 95 1341 95 1201.5 35 c 128,-1,48
 1062 -25 1062 -25 910 -25 c 128,-1,49
 758 -25 758 -25 618.5 35 c 128,-1,50
 479 95 479 95 378.5 196 c 128,-1,51
 278 297 278 297 218 436 c 128,-1,52
 158 575 158 575 158 727 c 128,-1,53
 158 879 158 879 217.5 1018.5 c 128,-1,54
 277 1158 277 1158 378 1259 c 128,-1,55
 479 1360 479 1360 618.5 1420 c 128,-1,40
 758 1480 758 1480 910 1480 c 128,-1,41
EndSplineSet
EndChar

StartChar: ordfeminine
Encoding: 170 170 108
Width: 1013
GlyphClass: 2
Flags: W
LayerCount: 2
UndoRedoHistory
Layer: 1
Undoes
EndUndoes
Redoes
EndRedoes
EndUndoRedoHistory
Fore
SplineSet
453 636 m 0,0,1
 359 636 359 636 288.5 674 c 128,-1,2
 218 712 218 712 185 779 c 0,3,4
 163 823 163 823 163 879 c 0,5,6
 163 936 163 936 187 982.5 c 128,-1,7
 211 1029 211 1029 253 1059 c 128,-1,8
 295 1089 295 1089 342.5 1107 c 128,-1,9
 390 1125 390 1125 445 1134 c 0,10,11
 485 1140 485 1140 565 1145 c 128,-1,12
 645 1150 645 1150 685 1156 c 1,13,-1
 685 1166 l 2,14,15
 685 1263 685 1263 650 1302.5 c 128,-1,16
 615 1342 615 1342 528 1342 c 0,17,18
 370 1342 370 1342 295 1231 c 1,19,-1
 216 1319 l 1,20,21
 260 1393 260 1393 342.5 1430.5 c 128,-1,22
 425 1468 425 1468 534 1468 c 0,23,24
 673 1468 673 1468 757 1396 c 128,-1,25
 841 1324 841 1324 841 1184 c 2,26,-1
 839 807 l 2,27,28
 839 752 839 752 847 657 c 1,29,-1
 693 657 l 1,30,-1
 686 743 l 1,31,32
 607 636 607 636 453 636 c 0,0,1
475 757 m 0,33,34
 574 757 574 757 626.5 825.5 c 128,-1,35
 679 894 679 894 685 1008 c 1,36,-1
 685 1037 l 1,37,38
 658 1031 658 1031 603 1027 c 128,-1,39
 548 1023 548 1023 505 1017.5 c 128,-1,40
 462 1012 462 1012 417.5 999.5 c 128,-1,41
 373 987 373 987 348 957 c 128,-1,42
 323 927 323 927 323 881 c 0,43,44
 323 817 323 817 365 787 c 128,-1,45
 407 757 407 757 475 757 c 0,33,34
EndSplineSet
EndChar

StartChar: guillemotleft
Encoding: 171 171 109
Width: 1219
GlyphClass: 2
Flags: W
LayerCount: 2
UndoRedoHistory
Layer: 1
Undoes
EndUndoes
Redoes
EndRedoes
EndUndoRedoHistory
Fore
SplineSet
499 301 m 1,0,-1
 190 735 l 1,1,-1
 505 1174 l 1,2,-1
 675 1174 l 1,3,-1
 390 735 l 1,4,-1
 665 301 l 1,5,-1
 499 301 l 1,0,-1
896 301 m 1,6,-1
 607 735 l 1,7,-1
 902 1174 l 1,8,-1
 1089 1174 l 1,9,-1
 786 735 l 1,10,-1
 1081 301 l 1,11,-1
 896 301 l 1,6,-1
EndSplineSet
EndChar

StartChar: logicalnot
Encoding: 172 172 110
Width: 1774
GlyphClass: 2
Flags: W
LayerCount: 2
UndoRedoHistory
Layer: 1
Undoes
EndUndoes
Redoes
EndRedoes
EndUndoRedoHistory
Fore
SplineSet
1262 419 m 1,0,-1
 1262 913 l 1,1,-1
 283 913 l 1,2,-1
 283 1077 l 1,3,-1
 1438 1077 l 1,4,-1
 1438 419 l 1,5,-1
 1262 419 l 1,0,-1
EndSplineSet
EndChar

StartChar: registered
Encoding: 174 174 111
Width: 2036
GlyphClass: 2
Flags: W
LayerCount: 2
UndoRedoHistory
Layer: 1
Undoes
EndUndoes
Redoes
EndRedoes
EndUndoRedoHistory
Fore
SplineSet
693 221 m 1,0,-1
 693 1299 l 1,1,-1
 982 1299 l 2,2,3
 1216 1299 1216 1299 1327 1222 c 0,4,5
 1439 1144 1439 1144 1439 998 c 0,6,7
 1439 865 1439 865 1361.5 791.5 c 128,-1,8
 1284 718 1284 718 1158 700 c 1,9,10
 1196 660 1196 660 1235.5 603.5 c 128,-1,11
 1275 547 1275 547 1299 506.5 c 128,-1,12
 1323 466 1323 466 1365 391 c 0,13,14
 1421 292 1421 292 1459 221 c 1,15,-1
 1281 221 l 1,16,-1
 1150 469 l 2,17,18
 1110 546 1110 546 1074.5 597.5 c 128,-1,19
 1039 649 1039 649 995 680 c 1,20,-1
 850 680 l 1,21,-1
 850 221 l 1,22,-1
 693 221 l 1,0,-1
1028 -138 m 0,23,24
 673 -138 673 -138 419 125 c 0,25,26
 256 295 256 295 188 518 c 1,27,28
 154 634 154 634 154 752 c 0,29,30
 154 1102 154 1102 421 1379 c 0,31,32
 675 1642 675 1642 1023 1642 c 0,33,34
 1374 1642 1374 1642 1628 1377 c 1,35,36
 1794 1202 1794 1202 1860 985 c 1,37,38
 1894 869 1894 869 1894 751 c 0,39,40
 1894 401 1894 401 1628 125 c 1,41,42
 1378 -138 1378 -138 1028 -138 c 0,23,24
1028 0 m 0,43,44
 1332 0 1332 0 1539 217 c 1,45,46
 1745 430 1745 430 1745 751 c 0,47,48
 1745 917 1745 917 1688.5 1052.5 c 128,-1,49
 1632 1188 1632 1188 1538 1286 c 0,50,51
 1444 1385 1444 1385 1312 1444.5 c 128,-1,52
 1180 1504 1180 1504 1023 1504 c 0,53,54
 867 1504 867 1504 737 1445.5 c 128,-1,55
 607 1387 607 1387 512 1288 c 128,-1,56
 417 1189 417 1189 360 1054 c 128,-1,57
 303 919 303 919 303 754 c 0,58,59
 303 587 303 587 360.5 451 c 128,-1,60
 418 315 418 315 512 217 c 0,61,62
 607 118 607 118 738.5 59 c 128,-1,63
 870 0 870 0 1028 0 c 0,43,44
847 819 m 1,64,-1
 980 819 l 2,65,66
 1020 819 1020 819 1043 819.5 c 128,-1,67
 1066 820 1066 820 1101.5 823 c 128,-1,68
 1137 826 1137 826 1157.5 832 c 128,-1,69
 1178 838 1178 838 1203.5 850 c 128,-1,70
 1229 862 1229 862 1242 878.5 c 128,-1,71
 1255 895 1255 895 1264.5 921 c 128,-1,72
 1274 947 1274 947 1274 980 c 128,-1,73
 1274 1013 1274 1013 1268.5 1038.5 c 128,-1,74
 1263 1064 1263 1064 1250 1082.5 c 128,-1,75
 1237 1101 1237 1101 1224 1114 c 128,-1,76
 1211 1127 1211 1127 1186.5 1135.5 c 128,-1,77
 1162 1144 1162 1144 1144 1148.5 c 128,-1,78
 1126 1153 1126 1153 1092.5 1155 c 128,-1,79
 1059 1157 1059 1157 1038 1157.5 c 128,-1,80
 1017 1158 1017 1158 978 1158 c 2,81,-1
 846 1158 l 1,82,-1
 847 819 l 1,64,-1
EndSplineSet
EndChar

StartChar: macron
Encoding: 175 175 112
Width: 1273
GlyphClass: 2
Flags: W
AnchorPoint: "Anchor-0" 373 1152 mark 0
LayerCount: 2
UndoRedoHistory
Layer: 1
Undoes
EndUndoes
Redoes
EndRedoes
EndUndoRedoHistory
Fore
SplineSet
300 1313 m 1,0,-1
 300 1470 l 1,1,-1
 954 1470 l 1,2,-1
 954 1313 l 1,3,-1
 300 1313 l 1,0,-1
EndSplineSet
EndChar

StartChar: degree
Encoding: 176 176 113
Width: 1470
GlyphClass: 2
Flags: W
LayerCount: 2
UndoRedoHistory
Layer: 1
Undoes
EndUndoes
Redoes
EndRedoes
EndUndoRedoHistory
Fore
SplineSet
540 915 m 0,0,1
 632 915 632 915 693.5 978 c 128,-1,2
 755 1041 755 1041 755 1125 c 0,3,4
 755 1222 755 1222 690.5 1277.5 c 128,-1,5
 626 1333 626 1333 540 1333 c 0,6,7
 449 1333 449 1333 387 1271 c 128,-1,8
 325 1209 325 1209 325 1125 c 0,9,10
 325 1026 325 1026 389.5 970.5 c 128,-1,11
 454 915 454 915 540 915 c 0,0,1
540 778 m 0,12,13
 385 778 385 778 281.5 882.5 c 128,-1,14
 178 987 178 987 178 1126 c 0,15,16
 178 1206 178 1206 210 1272.5 c 128,-1,17
 242 1339 242 1339 294.5 1381 c 128,-1,18
 347 1423 347 1423 410.5 1446 c 128,-1,19
 474 1469 474 1469 540 1469 c 0,20,21
 696 1469 696 1469 799 1366 c 128,-1,22
 902 1263 902 1263 902 1126 c 0,23,24
 902 1045 902 1045 870 977.5 c 128,-1,25
 838 910 838 910 785.5 867.5 c 128,-1,26
 733 825 733 825 669.5 801.5 c 128,-1,27
 606 778 606 778 540 778 c 0,12,13
EndSplineSet
EndChar

StartChar: plusminus
Encoding: 177 177 114
Width: 1612
GlyphClass: 2
Flags: W
LayerCount: 2
UndoRedoHistory
Layer: 1
Undoes
EndUndoes
Redoes
EndRedoes
EndUndoRedoHistory
Fore
SplineSet
720 322 m 1,0,-1
 720 759 l 1,1,-1
 224 759 l 1,2,-1
 224 921 l 1,3,-1
 718 921 l 1,4,-1
 718 1359 l 1,5,-1
 881 1359 l 1,6,-1
 881 921 l 1,7,-1
 1383 921 l 1,8,-1
 1383 759 l 1,9,-1
 886 759 l 1,10,-1
 886 322 l 1,11,-1
 720 322 l 1,0,-1
224 0 m 1,12,-1
 224 163 l 1,13,-1
 1388 163 l 1,14,-1
 1388 0 l 1,15,-1
 224 0 l 1,12,-1
EndSplineSet
EndChar

StartChar: uni00B2
Encoding: 178 178 115
Width: 2105
GlyphClass: 2
Flags: W
LayerCount: 2
UndoRedoHistory
Layer: 1
Undoes
EndUndoes
Redoes
EndRedoes
EndUndoRedoHistory
Fore
SplineSet
514 499 m 1,0,-1
 514 629 l 1,1,2
 758 851 758 851 867 971 c 0,3,4
 928 1039 928 1039 968 1103 c 0,5,6
 1005 1162 1005 1162 1005 1212 c 0,7,8
 1005 1276 1005 1276 959 1309.5 c 128,-1,9
 913 1343 913 1343 840 1343 c 0,10,11
 695 1343 695 1343 623 1189 c 1,12,-1
 523 1281 l 1,13,14
 562 1373 562 1373 645.5 1426.5 c 128,-1,15
 729 1480 729 1480 847 1480 c 0,16,17
 949 1480 949 1480 1023 1438.5 c 128,-1,18
 1097 1397 1097 1397 1132 1324 c 1,19,20
 1156 1270 1156 1270 1156 1213 c 0,21,22
 1156 1130 1156 1130 1123.5 1064 c 128,-1,23
 1091 998 1091 998 1032 926 c 0,24,25
 1011 901 1011 901 985.5 874 c 128,-1,26
 960 847 960 847 939.5 826.5 c 128,-1,27
 919 806 919 806 886 776.5 c 128,-1,28
 853 747 853 747 836 731.5 c 128,-1,29
 819 716 819 716 780 682.5 c 128,-1,30
 741 649 741 649 727 637 c 1,31,-1
 1155 637 l 1,32,-1
 1155 499 l 1,33,-1
 514 499 l 1,0,-1
EndSplineSet
EndChar

StartChar: uni00B3
Encoding: 179 179 116
Width: 2105
GlyphClass: 2
Flags: W
LayerCount: 2
UndoRedoHistory
Layer: 1
Undoes
EndUndoes
Redoes
EndRedoes
EndUndoRedoHistory
Fore
SplineSet
781 476 m 0,0,1
 606 476 606 476 492 590 c 1,2,-1
 562 702 l 1,3,4
 662 611 662 611 775 611 c 0,5,6
 863 611 863 611 921.5 652.5 c 128,-1,7
 980 694 980 694 980 771 c 0,8,9
 980 818 980 818 960 850.5 c 128,-1,10
 940 883 940 883 902.5 899 c 128,-1,11
 865 915 865 915 823.5 921.5 c 128,-1,12
 782 928 782 928 728 928 c 2,13,-1
 692 928 l 1,14,-1
 662 928 l 1,15,-1
 662 1067 l 1,16,-1
 720 1067 l 2,17,18
 769 1067 769 1067 807 1073 c 128,-1,19
 845 1079 845 1079 879.5 1093.5 c 128,-1,20
 914 1108 914 1108 932.5 1137.5 c 128,-1,21
 951 1167 951 1167 951 1209 c 0,22,23
 951 1277 951 1277 906 1308.5 c 128,-1,24
 861 1340 861 1340 785 1340 c 0,25,26
 675 1340 675 1340 560 1249 c 1,27,-1
 492 1361 l 1,28,29
 543 1412 543 1412 622 1446 c 128,-1,30
 701 1480 701 1480 788 1480 c 0,31,32
 890 1480 890 1480 966 1438.5 c 128,-1,33
 1042 1397 1042 1397 1080 1327 c 0,34,35
 1107 1278 1107 1278 1107 1212 c 0,36,37
 1107 1067 1107 1067 981 1000 c 1,38,39
 1132 933 1132 933 1132 768 c 0,40,41
 1132 664 1132 664 1071 595 c 128,-1,42
 1010 526 1010 526 916 496 c 0,43,44
 851 476 851 476 781 476 c 0,0,1
EndSplineSet
EndChar

StartChar: acute
Encoding: 180 180 117
Width: 1078
GlyphClass: 2
Flags: W
LayerCount: 2
UndoRedoHistory
Layer: 1
Undoes
EndUndoes
Redoes
EndRedoes
EndUndoRedoHistory
Fore
SplineSet
300 1104 m 1,0,-1
 566 1480 l 1,1,-1
 885 1480 l 1,2,-1
 523 1104 l 1,3,-1
 300 1104 l 1,0,-1
EndSplineSet
EndChar

StartChar: paragraph
Encoding: 182 182 118
Width: 1328
GlyphClass: 2
Flags: W
LayerCount: 2
UndoRedoHistory
Layer: 1
Undoes
EndUndoes
Redoes
EndRedoes
EndUndoRedoHistory
Fore
SplineSet
543 -139 m 1,0,-1
 543 748 l 1,1,2
 365 748 365 748 264.5 841.5 c 128,-1,3
 164 935 164 935 164 1102 c 0,4,5
 164 1177 164 1177 186 1235.5 c 128,-1,6
 208 1294 208 1294 250.5 1332 c 128,-1,7
 293 1370 293 1370 344 1395.5 c 128,-1,8
 395 1421 395 1421 464 1434 c 128,-1,9
 533 1447 533 1447 596 1452 c 128,-1,10
 659 1457 659 1457 736 1457 c 2,11,-1
 1190 1457 l 1,12,-1
 1190 1311 l 1,13,-1
 1068 1311 l 1,14,-1
 1068 -139 l 1,15,-1
 916 -139 l 1,16,-1
 916 1311 l 1,17,-1
 695 1311 l 1,18,-1
 695 -139 l 1,19,-1
 543 -139 l 1,0,-1
EndSplineSet
EndChar

StartChar: periodcentered
Encoding: 183 183 119
Width: 791
GlyphClass: 2
Flags: W
LayerCount: 2
UndoRedoHistory
Layer: 1
Undoes
EndUndoes
Redoes
EndRedoes
EndUndoRedoHistory
Fore
SplineSet
273 1025 m 1,0,-1
 273 1272 l 1,1,-1
 528 1272 l 1,2,-1
 528 1025 l 1,3,-1
 273 1025 l 1,0,-1
EndSplineSet
EndChar

StartChar: cedilla
Encoding: 184 184 120
Width: 941
GlyphClass: 2
Flags: W
AnchorPoint: "Anchor-1" 280 0 mark 0
LayerCount: 2
UndoRedoHistory
Layer: 1
Undoes
EndUndoes
Redoes
EndRedoes
EndUndoRedoHistory
Fore
SplineSet
420 -481 m 0,0,1
 337 -481 337 -481 214 -456 c 1,2,-1
 224 -356 l 1,3,4
 340 -384 340 -384 401 -384 c 0,5,6
 535 -384 535 -384 535 -300 c 0,7,8
 535 -251 535 -251 501 -232.5 c 128,-1,9
 467 -214 467 -214 407 -214 c 0,10,11
 384 -214 384 -214 364 -217 c 1,12,-1
 326 -219 l 1,13,-1
 365 4 l 1,14,-1
 478 4 l 1,15,-1
 458 -122 l 1,16,-1
 468 -122 l 1,17,18
 534 -125 534 -125 584 -141.5 c 128,-1,19
 634 -158 634 -158 668.5 -197.5 c 128,-1,20
 703 -237 703 -237 703 -297 c 0,21,22
 703 -364 703 -364 660.5 -407 c 128,-1,23
 618 -450 618 -450 558 -465.5 c 128,-1,24
 498 -481 498 -481 420 -481 c 0,0,1
EndSplineSet
EndChar

StartChar: uni00B9
Encoding: 185 185 121
Width: 2105
GlyphClass: 2
Flags: W
LayerCount: 2
UndoRedoHistory
Layer: 1
Undoes
EndUndoes
Redoes
EndRedoes
EndUndoRedoHistory
Fore
SplineSet
733 514 m 1,0,-1
 733 654 l 1,1,-1
 875 654 l 1,2,-1
 875 988 l 2,3,4
 875 1024 875 1024 874.5 1085.5 c 128,-1,5
 874 1147 874 1147 874 1176 c 2,6,-1
 874 1297 l 1,7,8
 792 1253 792 1253 696 1217 c 1,9,-1
 697 1370 l 1,10,11
 787 1399 787 1399 894 1462 c 1,12,-1
 1018 1480 l 1,13,-1
 1018 651 l 1,14,-1
 1161 651 l 1,15,-1
 1161 514 l 1,16,-1
 733 514 l 1,0,-1
EndSplineSet
EndChar

StartChar: ordmasculine
Encoding: 186 186 122
Width: 1140
GlyphClass: 2
Flags: W
LayerCount: 2
UndoRedoHistory
Layer: 1
Undoes
EndUndoes
Redoes
EndRedoes
EndUndoRedoHistory
Fore
SplineSet
572 647 m 0,0,1
 385 647 385 647 274.5 759.5 c 128,-1,2
 164 872 164 872 164 1066 c 128,-1,3
 164 1260 164 1260 274.5 1370 c 128,-1,4
 385 1480 385 1480 572 1480 c 0,5,6
 756 1480 756 1480 866 1361 c 128,-1,7
 976 1242 976 1242 976 1062 c 0,8,9
 976 867 976 867 866 757 c 128,-1,10
 756 647 756 647 572 647 c 0,0,1
572 773 m 0,11,12
 682 773 682 773 748 854 c 128,-1,13
 814 935 814 935 814 1061 c 0,14,15
 814 1191 814 1191 748 1272.5 c 128,-1,16
 682 1354 682 1354 569 1354 c 0,17,18
 458 1354 458 1354 393 1273 c 128,-1,19
 328 1192 328 1192 328 1065 c 0,20,21
 328 934 328 934 392.5 853.5 c 128,-1,22
 457 773 457 773 572 773 c 0,11,12
EndSplineSet
EndChar

StartChar: guillemotright
Encoding: 187 187 123
Width: 1249
GlyphClass: 2
Flags: W
LayerCount: 2
UndoRedoHistory
Layer: 1
Undoes
EndUndoes
Redoes
EndRedoes
EndUndoRedoHistory
Fore
SplineSet
748 1174 m 1,0,-1
 1059 737 l 1,1,-1
 743 301 l 1,2,-1
 575 301 l 1,3,-1
 857 737 l 1,4,-1
 583 1174 l 1,5,-1
 748 1174 l 1,0,-1
323 1174 m 1,6,-1
 615 737 l 1,7,-1
 318 301 l 1,8,-1
 130 301 l 1,9,-1
 435 737 l 1,10,-1
 137 1174 l 1,11,-1
 323 1174 l 1,6,-1
EndSplineSet
EndChar

StartChar: onequarter
Encoding: 188 188 124
Width: 4096
GlyphClass: 2
Flags: W
LayerCount: 2
UndoRedoHistory
Layer: 1
Undoes
EndUndoes
Redoes
EndRedoes
EndUndoRedoHistory
Fore
SplineSet
-583 0 m 1,0,-1
 400 1686 l 1,1,-1
 558 1686 l 1,2,-1
 503 1590 l 1,3,4
 566 1620 566 1620 620 1658 c 1,5,-1
 732 1675 l 1,6,-1
 732 845 l 1,7,-1
 861 845 l 1,8,-1
 861 710 l 1,9,-1
 474 710 l 1,10,-1
 474 849 l 1,11,-1
 603 849 l 1,12,-1
 603 1183 l 2,13,14
 603 1219 603 1219 602.5 1281 c 128,-1,15
 602 1343 602 1343 602 1372 c 2,16,-1
 602 1492 l 1,17,18
 530 1451 530 1451 441 1413 c 1,19,-1
 441 1482 l 1,20,-1
 -406 0 l 1,21,-1
 -583 0 l 1,0,-1
1826 722 m 1,22,-1
 1826 943 l 1,23,-1
 1426 943 l 1,24,-1
 1426 1050 l 1,25,-1
 1814 1658 l 1,26,-1
 1966 1658 l 1,27,-1
 1966 1069 l 1,28,-1
 2094 1069 l 1,29,-1
 2105 943 l 1,30,-1
 1963 943 l 1,31,-1
 1963 722 l 1,32,-1
 1826 722 l 1,22,-1
1573 1069 m 1,33,-1
 1826 1069 l 1,34,-1
 1826 1461 l 1,35,-1
 1573 1069 l 1,33,-1
EndSplineSet
EndChar

StartChar: onehalf
Encoding: 189 189 125
Width: 4608
GlyphClass: 2
Flags: W
LayerCount: 2
UndoRedoHistory
Layer: 1
Undoes
EndUndoes
Redoes
EndRedoes
EndUndoRedoHistory
Fore
SplineSet
488 710 m 1,0,-1
 488 839 l 1,1,2
 712 1067 712 1067 807 1181 c 1,3,4
 864 1251 864 1251 898 1313 c 1,5,6
 930 1369 930 1369 930 1422 c 0,7,8
 930 1486 930 1486 889 1520 c 128,-1,9
 848 1554 848 1554 783 1554 c 0,10,11
 652 1554 652 1554 587 1399 c 1,12,-1
 496 1491 l 1,13,14
 532 1583 532 1583 607 1637 c 128,-1,15
 682 1691 682 1691 789 1691 c 0,16,17
 881 1691 881 1691 948 1649.5 c 128,-1,18
 1015 1608 1015 1608 1047 1535 c 1,19,20
 1068 1484 1068 1484 1068 1424 c 0,21,22
 1068 1341 1068 1341 1038 1274 c 128,-1,23
 1008 1207 1008 1207 955 1136 c 0,24,25
 932 1106 932 1106 907.5 1077.5 c 128,-1,26
 883 1049 883 1049 849.5 1014.5 c 128,-1,27
 816 980 816 980 798.5 962.5 c 128,-1,28
 781 945 781 945 735.5 901.5 c 128,-1,29
 690 858 690 858 680 848 c 1,30,-1
 1066 848 l 1,31,-1
 1066 710 l 1,32,-1
 488 710 l 1,0,-1
1736 710 m 1,33,-1
 1736 849 l 1,34,-1
 1865 849 l 1,35,-1
 1865 1183 l 2,36,37
 1865 1219 1865 1219 1864.5 1281 c 128,-1,38
 1864 1343 1864 1343 1864 1372 c 2,39,-1
 1864 1492 l 1,40,41
 1790 1450 1790 1450 1702 1413 c 1,42,-1
 1704 1565 l 1,43,44
 1785 1594 1785 1594 1881 1658 c 1,45,-1
 2002 1675 l 1,46,-1
 2002 845 l 1,47,-1
 2146 845 l 1,48,-1
 2146 710 l 1,49,-1
 1736 710 l 1,33,-1
-583 0 m 1,50,-1
 400 1686 l 1,51,-1
 558 1686 l 1,52,-1
 -406 0 l 1,53,-1
 -583 0 l 1,50,-1
EndSplineSet
EndChar

StartChar: threequarters
Encoding: 190 190 126
Width: 4096
GlyphClass: 2
Flags: W
LayerCount: 2
UndoRedoHistory
Layer: 1
Undoes
EndUndoes
Redoes
EndRedoes
EndUndoRedoHistory
Fore
SplineSet
-583 0 m 1,0,-1
 400 1686 l 1,1,-1
 558 1686 l 1,2,-1
 537 1649 l 1,3,4
 618 1692 618 1692 704 1692 c 0,5,6
 796 1692 796 1692 864.5 1650.5 c 128,-1,7
 933 1609 933 1609 967 1539 c 0,8,9
 993 1485 993 1485 993 1424 c 0,10,11
 993 1280 993 1280 879 1212 c 1,12,13
 1014 1145 1014 1145 1014 980 c 0,14,15
 1014 876 1014 876 959 807 c 128,-1,16
 904 738 904 738 819 708 c 0,17,18
 761 688 761 688 698 688 c 0,19,20
 539 688 539 688 437 802 c 1,21,-1
 500 914 l 1,22,23
 591 823 591 823 693 823 c 0,24,25
 772 823 772 823 824.5 864.5 c 128,-1,26
 877 906 877 906 877 983 c 0,27,28
 877 1030 877 1030 859 1062.5 c 128,-1,29
 841 1095 841 1095 807.5 1111 c 128,-1,30
 774 1127 774 1127 736.5 1133.5 c 128,-1,31
 699 1140 699 1140 650 1140 c 2,32,-1
 618 1140 l 1,33,-1
 590 1140 l 1,34,-1
 590 1279 l 1,35,-1
 642 1279 l 2,36,37
 702 1279 702 1279 745 1289 c 128,-1,38
 788 1299 788 1299 819.5 1332 c 128,-1,39
 851 1365 851 1365 851 1421 c 0,40,41
 851 1552 851 1552 702 1552 c 0,42,43
 600 1552 600 1552 499 1461 c 1,44,-1
 465 1522 l 1,45,-1
 -406 0 l 1,46,-1
 -583 0 l 1,0,-1
1826 722 m 1,47,-1
 1826 943 l 1,48,-1
 1426 943 l 1,49,-1
 1426 1050 l 1,50,-1
 1814 1658 l 1,51,-1
 1966 1658 l 1,52,-1
 1966 1069 l 1,53,-1
 2094 1069 l 1,54,-1
 2105 943 l 1,55,-1
 1963 943 l 1,56,-1
 1963 722 l 1,57,-1
 1826 722 l 1,47,-1
1573 1069 m 1,58,-1
 1826 1069 l 1,59,-1
 1826 1461 l 1,60,-1
 1573 1069 l 1,58,-1
EndSplineSet
EndChar

StartChar: AE
Encoding: 198 198 134
Width: 2059
GlyphClass: 2
Flags: W
LayerCount: 2
UndoRedoHistory
Layer: 1
Undoes
EndUndoes
Redoes
EndRedoes
EndUndoRedoHistory
Fore
SplineSet
18 0 m 1,0,-1
 851 1456 l 1,1,-1
 1904 1456 l 1,2,-1
 1904 1262 l 1,3,-1
 1258 1262 l 1,4,-1
 1296 821 l 1,5,-1
 1863 821 l 1,6,-1
 1863 648 l 1,7,-1
 1318 648 l 1,8,-1
 1358 184 l 1,9,-1
 1927 184 l 1,10,-1
 1927 0 l 1,11,-1
 1119 0 l 1,12,-1
 1088 378 l 1,13,-1
 519 378 l 1,14,-1
 306 0 l 1,15,-1
 18 0 l 1,0,-1
599 562 m 1,16,-1
 1069 562 l 1,17,-1
 1009 1262 l 1,18,-1
 995 1262 l 1,19,-1
 599 562 l 1,16,-1
EndSplineSet
EndChar

StartChar: multiply
Encoding: 215 215 151
Width: 1254
GlyphClass: 2
Flags: W
LayerCount: 2
UndoRedoHistory
Layer: 1
Undoes
EndUndoes
Redoes
EndRedoes
EndUndoRedoHistory
Fore
SplineSet
300 271 m 1,0,-1
 179 392 l 1,1,-1
 517 741 l 1,2,-1
 179 1090 l 1,3,-1
 300 1211 l 1,4,-1
 627 862 l 1,5,-1
 953 1211 l 1,6,-1
 1075 1089 l 1,7,-1
 736 741 l 1,8,-1
 1075 393 l 1,9,-1
 953 271 l 1,10,-1
 627 619 l 1,11,-1
 300 271 l 1,0,-1
EndSplineSet
EndChar

StartChar: Oslash
Encoding: 216 216 152
Width: 1582
GlyphClass: 2
Flags: W
LayerCount: 2
UndoRedoHistory
Layer: 1
Undoes
EndUndoes
Redoes
EndRedoes
EndUndoRedoHistory
Fore
SplineSet
453 -291 m 1,0,-1
 311 -239 l 1,1,-1
 1148 1684 l 1,2,-1
 1295 1633 l 1,3,-1
 453 -291 l 1,0,-1
793 184 m 0,4,5
 980 184 980 184 1095.5 333 c 128,-1,6
 1211 482 1211 482 1210 724 c 1,7,8
 1210 971 1210 971 1095 1121.5 c 128,-1,9
 980 1272 980 1272 793 1272 c 0,10,11
 607 1272 607 1272 494.5 1122 c 128,-1,12
 382 972 382 972 382 724 c 0,13,14
 382 481 382 481 494.5 332.5 c 128,-1,15
 607 184 607 184 793 184 c 0,4,5
793 -24 m 0,16,17
 596 -24 596 -24 442.5 69 c 128,-1,18
 289 162 289 162 202.5 333 c 128,-1,19
 116 504 116 504 116 726 c 0,20,21
 116 946 116 946 202 1118 c 128,-1,22
 288 1290 288 1290 442.5 1385 c 128,-1,23
 597 1480 597 1480 793 1480 c 0,24,25
 991 1480 991 1480 1146.5 1385 c 128,-1,26
 1302 1290 1302 1290 1389 1118 c 128,-1,27
 1476 946 1476 946 1476 726 c 0,28,29
 1476 504 1476 504 1389 333 c 128,-1,30
 1302 162 1302 162 1146.5 69 c 128,-1,31
 991 -24 991 -24 793 -24 c 0,16,17
EndSplineSet
EndChar

StartChar: Thorn
Encoding: 222 222 158
Width: 1367
GlyphClass: 2
Flags: W
LayerCount: 2
UndoRedoHistory
Layer: 1
Undoes
EndUndoes
Redoes
EndRedoes
EndUndoRedoHistory
Fore
SplineSet
192 0 m 1,0,-1
 192 1456 l 1,1,-1
 442 1456 l 1,2,-1
 442 1270 l 1,3,-1
 632 1270 l 2,4,5
 714 1270 714 1270 779.5 1265.5 c 128,-1,6
 845 1261 845 1261 911 1249.5 c 128,-1,7
 977 1238 977 1238 1027 1218.5 c 128,-1,8
 1077 1199 1077 1199 1121 1167.5 c 128,-1,9
 1165 1136 1165 1136 1193 1093 c 128,-1,10
 1221 1050 1221 1050 1237 990 c 128,-1,11
 1253 930 1253 930 1253 855 c 0,12,13
 1253 759 1253 759 1224.5 688 c 128,-1,14
 1196 617 1196 617 1147.5 573 c 128,-1,15
 1099 529 1099 529 1024 502.5 c 128,-1,16
 949 476 949 476 866.5 466 c 128,-1,17
 784 456 784 456 677 456 c 2,18,-1
 442 456 l 1,19,-1
 442 0 l 1,20,-1
 192 0 l 1,0,-1
442 650 m 1,21,-1
 675 650 l 2,22,23
 747 650 747 650 796.5 654.5 c 128,-1,24
 846 659 846 659 890.5 671 c 128,-1,25
 935 683 935 683 961.5 705.5 c 128,-1,26
 988 728 988 728 1003 764.5 c 128,-1,27
 1018 801 1018 801 1018 852 c 0,28,29
 1018 888 1018 888 1012.5 917.5 c 128,-1,30
 1007 947 1007 947 998 969.5 c 128,-1,31
 989 992 989 992 972 1009 c 128,-1,32
 955 1026 955 1026 938.5 1037.5 c 128,-1,33
 922 1049 922 1049 894 1057 c 128,-1,34
 866 1065 866 1065 843 1069.5 c 128,-1,35
 820 1074 820 1074 781.5 1076.5 c 128,-1,36
 743 1079 743 1079 713 1079.5 c 128,-1,37
 683 1080 683 1080 636 1080 c 2,38,-1
 442 1080 l 1,39,-1
 442 650 l 1,21,-1
EndSplineSet
EndChar

StartChar: germandbls
Encoding: 223 223 159
Width: 1234
GlyphClass: 2
Flags: W
LayerCount: 2
UndoRedoHistory
Layer: 1
Undoes
EndUndoes
Redoes
EndRedoes
EndUndoRedoHistory
Fore
SplineSet
1181 321 m 0,0,1
 1181 235 1181 235 1147 165.5 c 128,-1,2
 1113 96 1113 96 1058.5 54 c 128,-1,3
 1004 12 1004 12 934 -8 c 128,-1,4
 864 -28 864 -28 793.5 -22 c 128,-1,5
 723 -16 723 -16 654.5 17.5 c 128,-1,6
 586 51 586 51 538 109 c 1,7,-1
 575 263 l 1,8,9
 641 191 641 191 728.5 167.5 c 128,-1,10
 816 144 816 144 883 177 c 128,-1,11
 950 210 950 210 960 287 c 0,12,13
 968 347 968 347 948.5 400.5 c 128,-1,14
 929 454 929 454 878 506.5 c 128,-1,15
 827 559 827 559 766 604 c 128,-1,16
 705 649 705 649 607 711 c 0,17,18
 580 728 580 728 568 762.5 c 128,-1,19
 556 797 556 797 569 836 c 128,-1,20
 582 875 582 875 622 897 c 0,21,22
 635 904 635 904 655.5 914.5 c 128,-1,23
 676 925 676 925 687 931.5 c 128,-1,24
 698 938 698 938 715 948 c 128,-1,25
 732 958 732 958 741 965.5 c 128,-1,26
 750 973 750 973 762.5 985 c 128,-1,27
 775 997 775 997 781 1009 c 128,-1,28
 787 1021 787 1021 793.5 1037 c 128,-1,29
 800 1053 800 1053 802.5 1071.5 c 128,-1,30
 805 1090 805 1090 805 1113 c 128,-1,31
 805 1136 805 1136 802 1163 c 0,32,33
 794 1233 794 1233 747.5 1272.5 c 128,-1,34
 701 1312 701 1312 636 1312 c 0,35,36
 537 1312 537 1312 485.5 1242 c 128,-1,37
 434 1172 434 1172 434 1032 c 2,38,-1
 434 0 l 1,39,-1
 192 0 l 1,40,-1
 192 1044 l 2,41,42
 192 1180 192 1180 252 1280.5 c 128,-1,43
 312 1381 312 1381 411.5 1430.5 c 128,-1,44
 511 1480 511 1480 637 1480 c 0,45,46
 823 1480 823 1480 929.5 1392 c 128,-1,47
 1036 1304 1036 1304 1044 1164 c 0,48,49
 1048 1092 1048 1092 1033.5 1037 c 128,-1,50
 1019 982 1019 982 986 942 c 128,-1,51
 953 902 953 902 911.5 874 c 128,-1,52
 870 846 870 846 810 820 c 0,53,54
 798 815 798 815 796.5 803 c 128,-1,55
 795 791 795 791 812 779 c 1,56,57
 963 688 963 688 1003 658 c 0,58,59
 1125 569 1125 569 1161 458 c 0,60,61
 1181 397 1181 397 1181 321 c 0,0,1
EndSplineSet
EndChar

StartChar: ae
Encoding: 230 230 166
Width: 1748
GlyphClass: 2
Flags: W
LayerCount: 2
UndoRedoHistory
Layer: 1
Undoes
EndUndoes
Redoes
EndRedoes
EndUndoRedoHistory
Fore
SplineSet
1684 100 m 1,0,1
 1544 -22 1544 -22 1294 -22 c 0,2,3
 1167 -22 1167 -22 1061 25 c 128,-1,4
 955 72 955 72 884 160 c 1,5,6
 738 -22 738 -22 468 -22 c 0,7,8
 314 -22 314 -22 222 52 c 128,-1,9
 130 126 130 126 130 263 c 0,10,11
 130 323 130 323 151 370 c 128,-1,12
 172 417 172 417 204.5 448 c 128,-1,13
 237 479 237 479 290.5 501 c 128,-1,14
 344 523 344 523 393.5 535 c 128,-1,15
 443 547 443 547 515.5 553.5 c 128,-1,16
 588 560 588 560 641 561.5 c 128,-1,17
 694 563 694 563 770 563 c 1,18,-1
 770 626 l 2,19,20
 770 748 770 748 705 805 c 128,-1,21
 640 862 640 862 539 862 c 0,22,23
 465 862 465 862 390 834.5 c 128,-1,24
 315 807 315 807 262 763 c 1,25,-1
 172 924 l 1,26,27
 254 984 254 984 357 1017.5 c 128,-1,28
 460 1051 460 1051 561 1051 c 0,29,30
 679 1051 679 1051 771.5 1002.5 c 128,-1,31
 864 954 864 954 909 857 c 1,32,33
 976 951 976 951 1071 999.5 c 128,-1,34
 1166 1048 1166 1048 1279 1048 c 0,35,36
 1440 1048 1440 1048 1533.5 968 c 128,-1,37
 1627 888 1627 888 1627 763 c 2,38,-1
 1627 750 l 1,39,40
 1621 610 1621 610 1476 533 c 128,-1,41
 1331 456 1331 456 1015 429 c 1,42,43
 1022 364 1022 364 1051 312 c 128,-1,44
 1080 260 1080 260 1124 228.5 c 128,-1,45
 1168 197 1168 197 1219.5 180.5 c 128,-1,46
 1271 164 1271 164 1325 164 c 0,47,48
 1466 164 1466 164 1596 259 c 1,49,-1
 1684 100 l 1,0,1
772 418 m 1,50,51
 689 416 689 416 635.5 413.5 c 128,-1,52
 582 411 582 411 527.5 404.5 c 128,-1,53
 473 398 473 398 442 387.5 c 128,-1,54
 411 377 411 377 384.5 360 c 128,-1,55
 358 343 358 343 347.5 318.5 c 128,-1,56
 337 294 337 294 337 260 c 0,57,58
 337 203 337 203 378 172.5 c 128,-1,59
 419 142 419 142 482 142 c 0,60,61
 531 142 531 142 581 160.5 c 128,-1,62
 631 179 631 179 674 212 c 128,-1,63
 717 245 717 245 744.5 299.5 c 128,-1,64
 772 354 772 354 772 418 c 1,50,51
1393 758 m 0,65,66
 1393 807 1393 807 1359.5 837 c 128,-1,67
 1326 867 1326 867 1268 867 c 0,68,69
 1196 867 1196 867 1135.5 819 c 128,-1,70
 1075 771 1075 771 1043 704 c 128,-1,71
 1011 637 1011 637 1007 571 c 1,72,73
 1230 597 1230 597 1311.5 635.5 c 128,-1,74
 1393 674 1393 674 1393 758 c 0,65,66
EndSplineSet
EndChar

StartChar: eth
Encoding: 240 240 176
Width: 2022
GlyphClass: 2
Flags: W
LayerCount: 2
UndoRedoHistory
Layer: 1
Undoes
EndUndoes
Redoes
EndRedoes
EndUndoRedoHistory
Fore
SplineSet
708 -40 m 0,0,1
 527 -40 527 -40 396 50 c 128,-1,2
 265 140 265 140 205 293 c 1,3,4
 165 387 165 387 165 510 c 0,5,6
 165 692 165 692 248.5 817.5 c 128,-1,7
 332 943 332 943 470 1001 c 1,8,9
 560 1040 560 1040 669 1040 c 0,10,11
 948 1040 948 1040 1064 836 c 1,12,-1
 1064 847 l 1,13,14
 1063 1043 1063 1043 1027 1191 c 1,15,-1
 749 1191 l 1,16,-1
 749 1352 l 1,17,-1
 968 1352 l 1,18,19
 881 1526 881 1526 701 1637 c 1,20,-1
 784 1736 l 1,21,22
 1022 1633 1022 1633 1146 1352 c 1,23,-1
 1377 1352 l 1,24,-1
 1377 1191 l 1,25,-1
 1207 1191 l 1,26,27
 1263 994 1263 994 1263 776 c 0,28,29
 1263 494 1263 494 1181.5 296 c 128,-1,30
 1100 98 1100 98 937 12 c 1,31,32
 833 -40 833 -40 708 -40 c 0,0,1
700 126 m 0,33,34
 815 126 815 126 895 188 c 128,-1,35
 975 250 975 250 1012 352 c 128,-1,36
 1049 454 1049 454 1049 588 c 2,37,-1
 1049 616 l 1,38,39
 1012 733 1012 733 920.5 804 c 128,-1,40
 829 875 829 875 698 875 c 0,41,42
 541 875 541 875 456.5 777.5 c 128,-1,43
 372 680 372 680 372 504 c 0,44,45
 372 376 372 376 424 285.5 c 128,-1,46
 476 195 476 195 564 153 c 0,47,48
 622 126 622 126 700 126 c 0,33,34
EndSplineSet
EndChar

StartChar: divide
Encoding: 247 247 183
Width: 2504
GlyphClass: 2
Flags: W
LayerCount: 2
UndoRedoHistory
Layer: 1
Undoes
EndUndoes
Redoes
EndRedoes
EndUndoRedoHistory
Fore
SplineSet
830 1037 m 1,0,-1
 830 1284 l 1,1,-1
 1059 1284 l 1,2,-1
 1059 1037 l 1,3,-1
 830 1037 l 1,0,-1
359 581 m 1,4,-1
 359 745 l 1,5,-1
 1518 745 l 1,6,-1
 1518 581 l 1,7,-1
 359 581 l 1,4,-1
830 37 m 1,8,-1
 830 284 l 1,9,-1
 1059 284 l 1,10,-1
 1059 37 l 1,11,-1
 830 37 l 1,8,-1
EndSplineSet
EndChar

StartChar: oslash
Encoding: 248 248 184
Width: 2136
GlyphClass: 2
Flags: W
LayerCount: 2
UndoRedoHistory
Layer: 1
Undoes
EndUndoes
Redoes
EndRedoes
EndUndoRedoHistory
Fore
SplineSet
397 -191 m 1,0,-1
 292 -153 l 1,1,-1
 840 1233 l 1,2,-1
 961 1196 l 1,3,-1
 397 -191 l 1,0,-1
619 164 m 0,4,5
 743 164 743 164 805.5 256 c 128,-1,6
 868 348 868 348 868 512 c 0,7,8
 868 677 868 677 805 769.5 c 128,-1,9
 742 862 742 862 617 862 c 128,-1,10
 492 862 492 862 431 769.5 c 128,-1,11
 370 677 370 677 370 512 c 128,-1,12
 370 347 370 347 432 255.5 c 128,-1,13
 494 164 494 164 619 164 c 0,4,5
617 -22 m 0,14,15
 387 -22 387 -22 254.5 124.5 c 128,-1,16
 122 271 122 271 122 512 c 0,17,18
 122 754 122 754 254 901 c 128,-1,19
 386 1048 386 1048 616 1048 c 0,20,21
 849 1048 849 1048 982.5 902 c 128,-1,22
 1116 756 1116 756 1116 513 c 0,23,24
 1116 271 1116 271 983 124.5 c 128,-1,25
 850 -22 850 -22 617 -22 c 0,14,15
EndSplineSet
EndChar

StartChar: thorn
Encoding: 254 254 190
Width: 2116
GlyphClass: 2
Flags: W
LayerCount: 2
UndoRedoHistory
Layer: 1
Undoes
EndUndoes
Redoes
EndRedoes
EndUndoRedoHistory
Fore
SplineSet
289 -752 m 1,0,-1
 289 1458 l 1,1,-1
 485 1458 l 1,2,-1
 485 785 l 1,3,4
 619 983 619 983 848 983 c 0,5,6
 1034 983 1034 983 1158 880.5 c 128,-1,7
 1282 778 1282 778 1333 605 c 0,8,9
 1367 488 1367 488 1367 368 c 0,10,11
 1367 159 1367 159 1286.5 5 c 128,-1,12
 1206 -149 1206 -149 1066 -224 c 1,13,14
 970 -278 970 -278 848 -278 c 0,15,16
 618 -278 618 -278 482 -92 c 1,17,-1
 482 -752 l 1,18,-1
 289 -752 l 1,0,-1
822 -123 m 0,19,20
 909 -123 909 -123 975.5 -85 c 128,-1,21
 1042 -47 1042 -47 1082 20.5 c 128,-1,22
 1122 88 1122 88 1141.5 173.5 c 128,-1,23
 1161 259 1161 259 1161 361 c 128,-1,24
 1161 463 1161 463 1142.5 545.5 c 128,-1,25
 1124 628 1124 628 1085 692 c 128,-1,26
 1046 756 1046 756 981 791 c 128,-1,27
 916 826 916 826 829 826 c 0,28,29
 755 826 755 826 696 801 c 128,-1,30
 637 776 637 776 597.5 732 c 128,-1,31
 558 688 558 688 531.5 625 c 128,-1,32
 505 562 505 562 493.5 488.5 c 128,-1,33
 482 415 482 415 482 329 c 0,34,35
 482 177 482 177 532 69 c 128,-1,36
 582 -39 582 -39 676 -89 c 0,37,38
 741 -123 741 -123 822 -123 c 0,19,20
EndSplineSet
EndChar

StartChar: hbar
Encoding: 295 295 213
Width: 1238
GlyphClass: 2
Flags: W
LayerCount: 2
UndoRedoHistory
Layer: 1
Undoes
EndUndoes
Redoes
EndRedoes
EndUndoRedoHistory
Fore
SplineSet
34 1154 m 1,0,-1
 34 1311 l 1,1,-1
 769 1311 l 1,2,-1
 769 1154 l 1,3,-1
 34 1154 l 1,0,-1
1200 -16 m 1,4,-1
 1155 -16 l 2,5,6
 983 -16 983 -16 908.5 60.5 c 128,-1,7
 834 137 834 137 834 298 c 2,8,-1
 834 606 l 2,9,10
 834 725 834 725 786.5 793.5 c 128,-1,11
 739 862 739 862 646 862 c 0,12,13
 569 862 569 862 515.5 818.5 c 128,-1,14
 462 775 462 775 440 713 c 128,-1,15
 418 651 418 651 418 577 c 2,16,-1
 418 0 l 1,17,-1
 176 0 l 1,18,-1
 176 1480 l 1,19,-1
 418 1480 l 1,20,-1
 418 919 l 1,21,22
 518 1048 518 1048 704 1048 c 0,23,24
 874 1048 874 1048 975 928.5 c 128,-1,25
 1076 809 1076 809 1076 608 c 2,26,-1
 1076 352 l 2,27,28
 1076 254 1076 254 1104.5 215.5 c 128,-1,29
 1133 177 1133 177 1212 177 c 2,30,-1
 1234 177 l 1,31,-1
 1200 -16 l 1,4,-1
EndSplineSet
EndChar

StartChar: dotlessi
Encoding: 305 305 220
Width: 731
GlyphClass: 2
Flags: W
AnchorPoint: "Anchor-0" 272 1023 basechar 0
LayerCount: 2
UndoRedoHistory
Layer: 1
Undoes
EndUndoes
Redoes
EndRedoes
EndUndoRedoHistory
Fore
SplineSet
747 33 m 1,0,1
 646 -7 646 -7 551 -13.5 c 128,-1,2
 456 -20 456 -20 375.5 9.5 c 128,-1,3
 295 39 295 39 246 123 c 128,-1,4
 197 207 197 207 197 337 c 2,5,-1
 197 1026 l 1,6,-1
 439 1026 l 1,7,-1
 439 334 l 2,8,9
 439 282 439 282 452 248.5 c 128,-1,10
 465 215 465 215 487 198 c 128,-1,11
 509 181 509 181 545 178 c 128,-1,12
 581 175 581 175 621 181.5 c 128,-1,13
 661 188 661 188 716 203 c 1,14,-1
 747 33 l 1,0,1
EndSplineSet
EndChar

StartChar: kgreenlandic
Encoding: 312 312 226
Width: 1855
GlyphClass: 2
Flags: W
LayerCount: 2
UndoRedoHistory
Layer: 1
Undoes
EndUndoes
Redoes
EndRedoes
EndUndoRedoHistory
Fore
SplineSet
324 0 m 1,0,-1
 324 1205 l 1,1,-1
 517 1205 l 1,2,-1
 517 654 l 1,3,-1
 1011 1205 l 1,4,-1
 1271 1205 l 1,5,-1
 689 601 l 1,6,7
 986 300 986 300 1315 0 c 1,8,-1
 1058 0 l 1,9,-1
 517 553 l 1,10,-1
 517 0 l 1,11,-1
 324 0 l 1,0,-1
EndSplineSet
EndChar

StartChar: Lslash
Encoding: 321 321 229
Width: 1982
GlyphClass: 2
Flags: W
LayerCount: 2
UndoRedoHistory
Layer: 1
Undoes
EndUndoes
Redoes
EndRedoes
EndUndoRedoHistory
Fore
SplineSet
256 0 m 1,0,-1
 256 710 l 1,1,-1
 37 574 l 1,2,-1
 37 735 l 1,3,-1
 256 871 l 1,4,-1
 256 1710 l 1,5,-1
 458 1710 l 1,6,-1
 458 997 l 1,7,-1
 793 1206 l 1,8,-1
 793 1045 l 1,9,-1
 458 836 l 1,10,-1
 458 174 l 1,11,-1
 1279 174 l 1,12,-1
 1279 0 l 1,13,-1
 256 0 l 1,0,-1
EndSplineSet
EndChar

StartChar: lslash
Encoding: 322 322 230
Width: 895
GlyphClass: 2
Flags: W
LayerCount: 2
UndoRedoHistory
Layer: 1
Undoes
EndUndoes
Redoes
EndRedoes
EndUndoRedoHistory
Fore
SplineSet
207 0 m 1,0,-1
 207 809 l 1,1,-1
 10 691 l 1,2,-1
 10 852 l 1,3,-1
 207 970 l 1,4,-1
 207 1752 l 1,5,-1
 401 1752 l 1,6,-1
 401 1086 l 1,7,-1
 602 1206 l 1,8,-1
 602 1045 l 1,9,-1
 401 925 l 1,10,-1
 401 0 l 1,11,-1
 207 0 l 1,0,-1
EndSplineSet
EndChar

StartChar: OE
Encoding: 338 338 236
Width: 3537
GlyphClass: 2
Flags: W
LayerCount: 2
UndoRedoHistory
Layer: 1
Undoes
EndUndoes
Redoes
EndRedoes
EndUndoRedoHistory
Fore
SplineSet
990 -40 m 0,0,1
 718 -40 718 -40 535.5 97.5 c 128,-1,2
 353 235 353 235 268 477 c 1,3,4
 210 639 210 639 210 843 c 0,5,6
 210 1143 210 1143 336.5 1353 c 128,-1,7
 463 1563 463 1563 674 1661 c 1,8,9
 815 1728 815 1728 997 1728 c 0,10,11
 1177 1728 1177 1728 1331 1608 c 1,12,-1
 1331 1696 l 1,13,-1
 2203 1696 l 1,14,-1
 2203 1522 l 1,15,-1
 1513 1522 l 1,16,-1
 1513 949 l 1,17,-1
 2158 949 l 1,18,-1
 2158 776 l 1,19,-1
 1513 776 l 1,20,-1
 1513 160 l 1,21,-1
 2237 160 l 1,22,-1
 2237 -14 l 1,23,-1
 1331 -14 l 1,24,-1
 1331 110 l 1,25,26
 1181 -40 1181 -40 990 -40 c 0,0,1
988 133 m 0,27,28
 1189 133 1189 133 1331 298 c 1,29,-1
 1331 1418 l 1,30,31
 1190 1554 1190 1554 990 1554 c 0,32,33
 726 1554 726 1554 570 1338 c 0,34,35
 426 1139 426 1139 426 838 c 0,36,37
 426 601 426 601 509 433.5 c 128,-1,38
 592 266 592 266 744 188 c 0,39,40
 851 133 851 133 988 133 c 0,27,28
EndSplineSet
EndChar

StartChar: oe
Encoding: 339 339 237
Width: 3363
GlyphClass: 2
Flags: W
LayerCount: 2
UndoRedoHistory
Layer: 1
Undoes
EndUndoes
Redoes
EndRedoes
EndUndoRedoHistory
Fore
SplineSet
741 -49 m 0,0,1
 546 -49 546 -49 411 55 c 128,-1,2
 276 159 276 159 213 335 c 0,3,4
 172 452 172 452 172 581 c 0,5,6
 172 794 172 794 266 946 c 128,-1,7
 360 1098 360 1098 514 1170 c 1,8,9
 617 1220 617 1220 752 1220 c 0,10,11
 912 1220 912 1220 1017 1150.5 c 128,-1,12
 1122 1081 1122 1081 1192 948 c 1,13,14
 1322 1220 1322 1220 1615 1220 c 0,15,16
 1856 1220 1856 1220 1984.5 1051 c 128,-1,17
 2113 882 2113 882 2113 600 c 2,18,-1
 2113 538 l 1,19,-1
 1293 536 l 1,20,-1
 1293 513 l 1,21,22
 1297 378 1297 378 1351 282 c 128,-1,23
 1405 186 1405 186 1501 142 c 0,24,25
 1568 112 1568 112 1655 112 c 0,26,27
 1782 112 1782 112 1880 171.5 c 128,-1,28
 1978 231 1978 231 2038 327 c 1,29,-1
 2141 225 l 1,30,31
 2069 95 2069 95 1943.5 23 c 128,-1,32
 1818 -49 1818 -49 1642 -49 c 0,33,34
 1472 -49 1472 -49 1356.5 24 c 128,-1,35
 1241 97 1241 97 1186 229 c 1,36,37
 1132 94 1132 94 1019.5 22.5 c 128,-1,38
 907 -49 907 -49 741 -49 c 0,0,1
752 112 m 0,39,40
 839 112 839 112 906 148.5 c 128,-1,41
 973 185 973 185 1014 250 c 128,-1,42
 1055 315 1055 315 1075.5 399 c 128,-1,43
 1096 483 1096 483 1096 584 c 0,44,45
 1096 801 1096 801 1008.5 930.5 c 128,-1,46
 921 1060 921 1060 743 1060 c 0,47,48
 608 1060 608 1060 521.5 977 c 128,-1,49
 435 894 435 894 399 762 c 0,50,51
 376 679 376 679 376 579 c 0,52,53
 376 423 376 423 430.5 312.5 c 128,-1,54
 485 202 485 202 584 150 c 0,55,56
 655 112 655 112 752 112 c 0,39,40
1293 698 m 1,57,-1
 1910 698 l 1,58,59
 1910 866 1910 866 1837 963 c 128,-1,60
 1764 1060 1764 1060 1621 1060 c 0,61,62
 1512 1060 1512 1060 1435 997.5 c 128,-1,63
 1358 935 1358 935 1321 835 c 1,64,65
 1299 771 1299 771 1293 698 c 1,57,-1
EndSplineSet
EndChar

StartChar: florin
Encoding: 402 402 260
Width: 2044
GlyphClass: 2
Flags: W
LayerCount: 2
UndoRedoHistory
Layer: 1
Undoes
EndUndoes
Redoes
EndRedoes
EndUndoRedoHistory
Fore
SplineSet
260 -585 m 0,0,1
 203 -585 203 -585 139 -566 c 1,2,-1
 153 -404 l 1,3,4
 197 -422 197 -422 245 -422 c 0,5,6
 283 -422 283 -422 313.5 -407 c 128,-1,7
 344 -392 344 -392 363.5 -370.5 c 128,-1,8
 383 -349 383 -349 398.5 -315.5 c 128,-1,9
 414 -282 414 -282 422.5 -253.5 c 128,-1,10
 431 -225 431 -225 439 -187 c 0,11,12
 469 -55 469 -55 496 100.5 c 128,-1,13
 523 256 523 256 553.5 451 c 128,-1,14
 584 646 584 646 602 748 c 1,15,-1
 437 748 l 1,16,-1
 448 912 l 1,17,-1
 627 912 l 1,18,-1
 651 1090 l 1,19,20
 662 1181 662 1181 685 1250 c 128,-1,21
 708 1319 708 1319 749 1375 c 128,-1,22
 790 1431 790 1431 856 1461 c 128,-1,23
 922 1491 922 1491 1010 1491 c 0,24,25
 1089 1491 1089 1491 1177 1469 c 1,26,-1
 1168 1299 l 1,27,28
 1103 1324 1103 1324 1041 1324 c 0,29,30
 947 1324 947 1324 904.5 1280 c 128,-1,31
 862 1236 862 1236 846 1143 c 2,32,-1
 808 912 l 1,33,-1
 1029 912 l 1,34,-1
 1018 748 l 1,35,-1
 784 748 l 1,36,-1
 649 -54 l 2,37,38
 633 -146 633 -146 619 -205.5 c 128,-1,39
 605 -265 605 -265 580.5 -336.5 c 128,-1,40
 556 -408 556 -408 520 -458.5 c 128,-1,41
 484 -509 484 -509 436 -541 c 0,42,43
 372 -585 372 -585 260 -585 c 0,0,1
EndSplineSet
EndChar

StartChar: uni0216
Encoding: 534 534 283
Width: 2615
GlyphClass: 2
Flags: W
LayerCount: 2
UndoRedoHistory
Layer: 1
Undoes
EndUndoes
Redoes
EndRedoes
EndUndoRedoHistory
Fore
SplineSet
986 -39 m 0,0,1
 675 -39 675 -39 510.5 125.5 c 128,-1,2
 346 290 346 290 346 623 c 2,3,-1
 346 1697 l 1,4,-1
 548 1697 l 1,5,-1
 548 628 l 2,6,7
 548 132 548 132 984 132 c 0,8,9
 1183 132 1183 132 1290.5 260.5 c 128,-1,10
 1398 389 1398 389 1398 620 c 2,11,-1
 1398 1697 l 1,12,-1
 1598 1697 l 1,13,-1
 1598 634 l 1,14,15
 1596 317 1596 317 1435 139 c 128,-1,16
 1274 -39 1274 -39 986 -39 c 0,0,1
673 1922 m 1,17,18
 694 2199 694 2199 974 2199 c 0,19,20
 1106 2199 1106 2199 1183 2128 c 128,-1,21
 1260 2057 1260 2057 1270 1922 c 1,22,-1
 1179 1922 l 1,23,24
 1164 1995 1164 1995 1106.5 2034 c 128,-1,25
 1049 2073 1049 2073 966 2073 c 0,26,27
 882 2073 882 2073 829 2035 c 128,-1,28
 776 1997 776 1997 764 1922 c 1,29,-1
 673 1922 l 1,17,18
EndSplineSet
EndChar

StartChar: uni0217
Encoding: 535 535 284
Width: 2063
GlyphClass: 2
Flags: W
LayerCount: 2
UndoRedoHistory
Layer: 1
Undoes
EndUndoes
Redoes
EndRedoes
EndUndoRedoHistory
Fore
SplineSet
673 -39 m 0,0,1
 609 -39 609 -39 549.5 -24 c 128,-1,2
 490 -9 490 -9 434.5 25.5 c 128,-1,3
 379 60 379 60 339 111 c 128,-1,4
 299 162 299 162 275.5 240.5 c 128,-1,5
 252 319 252 319 255 416 c 2,6,-1
 262 671 l 2,7,8
 266 822 266 822 254.5 944.5 c 128,-1,9
 243 1067 243 1067 230 1114 c 2,10,-1
 216 1161 l 1,11,-1
 410 1192 l 1,12,13
 412 1186 412 1186 415.5 1175 c 128,-1,14
 419 1164 419 1164 428 1120.5 c 128,-1,15
 437 1077 437 1077 443 1024.5 c 128,-1,16
 449 972 449 972 453 881 c 128,-1,17
 457 790 457 790 454 686 c 1,18,-1
 449 416 l 2,19,20
 447 333 447 333 467 274 c 128,-1,21
 487 215 487 215 524.5 183.5 c 128,-1,22
 562 152 562 152 605 138 c 128,-1,23
 648 124 648 124 699 124 c 0,24,25
 835 124 835 124 927.5 222.5 c 128,-1,26
 1020 321 1020 321 1020 488 c 2,27,-1
 1020 1192 l 1,28,-1
 1213 1192 l 1,29,-1
 1213 323 l 2,30,31
 1213 274 1213 274 1228.5 238.5 c 128,-1,32
 1244 203 1244 203 1269 184.5 c 128,-1,33
 1294 166 1294 166 1319 158 c 128,-1,34
 1344 150 1344 150 1370 150 c 1,35,-1
 1330 -17 l 1,36,37
 1238 -17 1238 -17 1159 35.5 c 128,-1,38
 1080 88 1080 88 1057 180 c 1,39,40
 929 -39 929 -39 673 -39 c 0,0,1
453 1417 m 1,41,42
 474 1694 474 1694 754 1694 c 0,43,44
 887 1694 887 1694 964.5 1623 c 128,-1,45
 1042 1552 1042 1552 1053 1417 c 1,46,-1
 959 1417 l 1,47,48
 943 1489 943 1489 886 1529 c 128,-1,49
 829 1569 829 1569 747 1569 c 0,50,51
 664 1569 664 1569 610.5 1530.5 c 128,-1,52
 557 1492 557 1492 545 1417 c 1,53,-1
 453 1417 l 1,41,42
EndSplineSet
EndChar

StartChar: dotlessj
Encoding: 567 567 289
Width: 895
GlyphClass: 2
Flags: W
AnchorPoint: "Anchor-0" 259 1152 basechar 0
LayerCount: 2
UndoRedoHistory
Layer: 1
Undoes
EndUndoes
Redoes
EndRedoes
EndUndoRedoHistory
Fore
SplineSet
-25 -756 m 0,0,1
 -97 -756 -97 -756 -169 -740 c 1,2,-1
 -170 -573 l 1,3,4
 -86 -585 -86 -585 -71 -585 c 0,5,6
 -5 -585 -5 -585 41 -557.5 c 128,-1,7
 87 -530 87 -530 111 -477 c 128,-1,8
 135 -424 135 -424 145 -361.5 c 128,-1,9
 155 -299 155 -299 155 -216 c 2,10,-1
 155 953 l 1,11,-1
 349 953 l 1,12,-1
 349 -166 l 2,13,14
 349 -270 349 -270 337.5 -354.5 c 128,-1,15
 326 -439 326 -439 300.5 -515 c 128,-1,16
 275 -591 275 -591 228 -646 c 128,-1,17
 181 -701 181 -701 115 -730 c 0,18,19
 54 -756 54 -756 -25 -756 c 0,0,1
EndSplineSet
EndChar

StartChar: circumflex
Encoding: 710 710 290
Width: 1212
GlyphClass: 2
Flags: W
LayerCount: 2
UndoRedoHistory
Layer: 1
Undoes
EndUndoes
Redoes
EndRedoes
EndUndoRedoHistory
Fore
SplineSet
324 2442 m 1,0,-1
 490 2442 l 1,1,-1
 778 2061 l 1,2,-1
 552 2061 l 1,3,-1
 407 2245 l 1,4,-1
 255 2061 l 1,5,-1
 37 2061 l 1,6,-1
 324 2442 l 1,0,-1
EndSplineSet
EndChar

StartChar: caron
Encoding: 711 711 291
Width: 1215
GlyphClass: 2
Flags: W
LayerCount: 2
UndoRedoHistory
Layer: 1
Undoes
EndUndoes
Redoes
EndRedoes
EndUndoRedoHistory
Fore
SplineSet
339 2061 m 1,0,-1
 61 2440 l 1,1,-1
 234 2440 l 1,2,-1
 414 2187 l 1,3,-1
 598 2440 l 1,4,-1
 780 2440 l 1,5,-1
 503 2061 l 1,6,-1
 339 2061 l 1,0,-1
EndSplineSet
EndChar

StartChar: breve
Encoding: 728 728 292
Width: 1106
GlyphClass: 2
Flags: W
AnchorPoint: "Anchor-0" 327 1046 mark 0
LayerCount: 2
UndoRedoHistory
Layer: 1
Undoes
EndUndoes
Redoes
EndRedoes
EndUndoRedoHistory
Fore
SplineSet
576 1202 m 0,0,1
 428 1202 428 1202 343.5 1271.5 c 128,-1,2
 259 1341 259 1341 248 1480 c 1,3,-1
 350 1480 l 1,4,5
 362 1405 362 1405 420.5 1366.5 c 128,-1,6
 479 1328 479 1328 568 1328 c 0,7,8
 656 1328 656 1328 718.5 1367.5 c 128,-1,9
 781 1407 781 1407 798 1480 c 1,10,-1
 900 1480 l 1,11,12
 889 1345 889 1345 804.5 1273.5 c 128,-1,13
 720 1202 720 1202 576 1202 c 0,0,1
EndSplineSet
EndChar

StartChar: dotaccent
Encoding: 729 729 293
Width: 932
GlyphClass: 2
Flags: W
AnchorPoint: "Anchor-0" 315 1030 mark 0
LayerCount: 2
UndoRedoHistory
Layer: 1
Undoes
EndUndoes
Redoes
EndRedoes
EndUndoRedoHistory
Fore
SplineSet
334 2195 m 1,0,-1
 334 2386 l 1,1,-1
 523 2386 l 1,2,-1
 523 2195 l 1,3,-1
 334 2195 l 1,0,-1
EndSplineSet
EndChar

StartChar: ring
Encoding: 730 730 294
Width: 1075
GlyphClass: 2
Flags: W
AnchorPoint: "Anchor-0" 316 1152 mark 0
LayerCount: 2
UndoRedoHistory
Layer: 1
Undoes
EndUndoes
Redoes
EndRedoes
EndUndoRedoHistory
Fore
SplineSet
413 2124 m 0,0,1
 467 2124 467 2124 505.5 2159.5 c 128,-1,2
 544 2195 544 2195 544 2248 c 128,-1,3
 544 2301 544 2301 506 2336 c 128,-1,4
 468 2371 468 2371 413 2371 c 0,5,6
 359 2371 359 2371 321.5 2336 c 128,-1,7
 284 2301 284 2301 284 2248 c 0,8,9
 284 2192 284 2192 319.5 2158 c 128,-1,10
 355 2124 355 2124 413 2124 c 0,0,1
416 2024 m 0,11,12
 302 2024 302 2024 235 2091 c 128,-1,13
 168 2158 168 2158 168 2246 c 0,14,15
 168 2320 168 2320 208.5 2373 c 128,-1,16
 249 2426 249 2426 303.5 2448.5 c 128,-1,17
 358 2471 358 2471 415 2471 c 0,18,19
 527 2471 527 2471 594 2403 c 128,-1,20
 661 2335 661 2335 661 2248 c 0,21,22
 661 2193 661 2193 637 2148.5 c 128,-1,23
 613 2104 613 2104 576 2078 c 128,-1,24
 539 2052 539 2052 497.5 2038 c 128,-1,25
 456 2024 456 2024 416 2024 c 0,11,12
EndSplineSet
EndChar

StartChar: ogonek
Encoding: 731 731 295
Width: 904
GlyphClass: 2
Flags: W
AnchorPoint: "Anchor-2" 308 0 mark 0
LayerCount: 2
UndoRedoHistory
Layer: 1
Undoes
EndUndoes
Redoes
EndRedoes
EndUndoRedoHistory
Fore
SplineSet
452 -458 m 0,0,1
 360 -458 360 -458 287.5 -411.5 c 128,-1,2
 215 -365 215 -365 215 -283 c 0,3,4
 215 -196 215 -196 278.5 -112.5 c 128,-1,5
 342 -29 342 -29 468 14 c 1,6,-1
 619 0 l 1,7,8
 559 -20 559 -20 513 -49.5 c 128,-1,9
 467 -79 467 -79 443 -107 c 128,-1,10
 419 -135 419 -135 404 -164 c 128,-1,11
 389 -193 389 -193 385 -209 c 128,-1,12
 381 -225 381 -225 381 -234 c 0,13,14
 381 -279 381 -279 407 -304 c 128,-1,15
 433 -329 433 -329 478 -329 c 0,16,17
 505 -329 505 -329 526 -326 c 128,-1,18
 547 -323 547 -323 555.5 -320 c 128,-1,19
 564 -317 564 -317 586.5 -307.5 c 128,-1,20
 609 -298 609 -298 619 -294 c 1,21,-1
 619 -424 l 1,22,23
 537 -458 537 -458 452 -458 c 0,0,1
EndSplineSet
EndChar

StartChar: tilde
Encoding: 732 732 296
Width: 1151
GlyphClass: 2
Flags: W
AnchorPoint: "Anchor-0" 339 1152 mark 0
LayerCount: 2
UndoRedoHistory
Layer: 1
Undoes
EndUndoes
Redoes
EndRedoes
EndUndoRedoHistory
Fore
SplineSet
233 1182 m 1,0,1
 242 1290 242 1290 302 1359.5 c 128,-1,2
 362 1429 362 1429 466 1429 c 0,3,4
 503 1429 503 1429 536.5 1419 c 128,-1,5
 570 1409 570 1409 612.5 1388 c 128,-1,6
 655 1367 655 1367 669 1362 c 0,7,8
 699 1349 699 1349 734 1349 c 0,9,10
 778 1349 778 1349 804 1378 c 128,-1,11
 830 1407 830 1407 836 1455 c 1,12,-1
 963 1455 l 1,13,14
 951 1345 951 1345 893.5 1273.5 c 128,-1,15
 836 1202 836 1202 734 1202 c 0,16,17
 682 1202 682 1202 598 1242 c 128,-1,18
 514 1282 514 1282 463 1282 c 0,19,20
 370 1282 370 1282 356 1182 c 1,21,-1
 233 1182 l 1,0,1
EndSplineSet
EndChar

StartChar: hungarumlaut
Encoding: 733 733 297
Width: 1684
GlyphClass: 2
Flags: W
AnchorPoint: "Anchor-0" 316 1152 mark 0
LayerCount: 2
UndoRedoHistory
Layer: 1
Undoes
EndUndoes
Redoes
EndRedoes
EndUndoRedoHistory
Fore
SplineSet
296 2067 m 1,0,-1
 549 2435 l 1,1,-1
 736 2435 l 1,2,-1
 434 2067 l 1,3,-1
 296 2067 l 1,0,-1
602 2067 m 1,4,-1
 839 2435 l 1,5,-1
 1046 2435 l 1,6,-1
 730 2067 l 1,7,-1
 602 2067 l 1,4,-1
EndSplineSet
EndChar

StartChar: dotaccentcmb
Encoding: 775 775 301
Width: 932
GlyphClass: 2
Flags: W
AnchorPoint: "Anchor-0" 315 1030 mark 0
LayerCount: 2
UndoRedoHistory
Layer: 1
Undoes
EndUndoes
Redoes
EndRedoes
EndUndoRedoHistory
Fore
SplineSet
334 2195 m 1,0,-1
 334 2386 l 1,1,-1
 523 2386 l 1,2,-1
 523 2195 l 1,3,-1
 334 2195 l 1,0,-1
EndSplineSet
EndChar

StartChar: dblgravecmb
Encoding: 783 783 303
Width: 1684
GlyphClass: 2
Flags: W
AnchorPoint: "Anchor-0" 186 1048 mark 0
LayerCount: 2
UndoRedoHistory
Layer: 1
Undoes
EndUndoes
Redoes
EndRedoes
EndUndoRedoHistory
Fore
SplineSet
612 2067 m 1,0,-1
 296 2435 l 1,1,-1
 502 2435 l 1,2,-1
 740 2067 l 1,3,-1
 612 2067 l 1,0,-1
907 2067 m 1,4,-1
 606 2435 l 1,5,-1
 792 2435 l 1,6,-1
 1046 2067 l 1,7,-1
 907 2067 l 1,4,-1
EndSplineSet
EndChar

StartChar: uni0311
Encoding: 785 785 304
Width: 1106
GlyphClass: 2
Flags: W
AnchorPoint: "Anchor-0" 318 1152 mark 0
LayerCount: 2
UndoRedoHistory
Layer: 1
Undoes
EndUndoes
Redoes
EndRedoes
EndUndoRedoHistory
Fore
SplineSet
67 2145 m 1,0,1
 78 2284 78 2284 162.5 2353.5 c 128,-1,2
 247 2423 247 2423 395 2423 c 0,3,4
 539 2423 539 2423 623.5 2351.5 c 128,-1,5
 708 2280 708 2280 719 2145 c 1,6,-1
 617 2145 l 1,7,8
 600 2218 600 2218 537.5 2257.5 c 128,-1,9
 475 2297 475 2297 387 2297 c 0,10,11
 297 2297 297 2297 239 2259 c 128,-1,12
 181 2221 181 2221 169 2145 c 1,13,-1
 67 2145 l 1,0,1
EndSplineSet
EndChar

StartChar: commaaccentcomb
Encoding: 806 806 305
Width: 961
GlyphClass: 2
Flags: W
LayerCount: 2
UndoRedoHistory
Layer: 1
Undoes
EndUndoes
Redoes
EndRedoes
EndUndoRedoHistory
Fore
SplineSet
148 -1101 m 1,0,-1
 273 -557 l 1,1,-1
 492 -557 l 1,2,-1
 302 -1101 l 1,3,-1
 148 -1101 l 1,0,-1
EndSplineSet
EndChar

StartChar: Delta
Encoding: 916 916 306
Width: 2324
GlyphClass: 2
Flags: W
LayerCount: 2
UndoRedoHistory
Layer: 1
Undoes
EndUndoes
Redoes
EndRedoes
EndUndoRedoHistory
Fore
SplineSet
81 0 m 1,0,-1
 81 94 l 1,1,-1
 692 1678 l 1,2,-1
 906 1678 l 1,3,-1
 1517 94 l 1,4,-1
 1517 0 l 1,5,-1
 81 0 l 1,0,-1
350 190 m 1,6,-1
 1247 190 l 1,7,-1
 833 1305 l 1,8,-1
 793 1430 l 1,9,-1
 756 1305 l 1,10,-1
 350 190 l 1,6,-1
EndSplineSet
EndChar

StartChar: uni03A9
Encoding: 937 937 307
Width: 2716
GlyphClass: 2
Flags: W
LayerCount: 2
UndoRedoHistory
Layer: 1
Undoes
EndUndoes
Redoes
EndRedoes
EndUndoRedoHistory
Fore
SplineSet
186 0 m 1,0,-1
 173 163 l 1,1,-1
 559 161 l 1,2,3
 303 370 303 370 227 679 c 1,4,5
 198 790 198 790 198 911 c 0,6,7
 198 1094 198 1094 260 1239.5 c 128,-1,8
 322 1385 322 1385 429 1487 c 1,9,10
 525 1587 525 1587 658.5 1644.5 c 128,-1,11
 792 1702 792 1702 955 1702 c 0,12,13
 1120 1702 1120 1702 1252 1640 c 128,-1,14
 1384 1578 1384 1578 1476 1472 c 1,15,16
 1575 1370 1575 1370 1631.5 1226 c 128,-1,17
 1688 1082 1688 1082 1688 906 c 0,18,19
 1688 679 1688 679 1571 467 c 1,20,21
 1473 294 1473 294 1322 161 c 1,22,-1
 1691 163 l 1,23,-1
 1680 0 l 1,24,-1
 1109 0 l 1,25,-1
 1104 142 l 1,26,27
 1368 338 1368 338 1450 658 c 1,28,29
 1480 766 1480 766 1480 885 c 0,30,31
 1480 1101 1480 1101 1400.5 1255 c 128,-1,32
 1321 1409 1321 1409 1182 1484 c 0,33,34
 1082 1537 1082 1537 950 1537 c 0,35,36
 761 1537 761 1537 633.5 1432 c 128,-1,37
 506 1327 506 1327 448 1153 c 0,38,39
 408 1030 408 1030 408 891 c 0,40,41
 408 542 408 542 628 282 c 1,42,43
 701 198 701 198 778 142 c 1,44,-1
 782 0 l 1,45,-1
 186 0 l 1,0,-1
EndSplineSet
EndChar

StartChar: uni03BC
Encoding: 956 956 308
Width: 2153
GlyphClass: 2
Flags: W
LayerCount: 2
UndoRedoHistory
Layer: 1
Undoes
EndUndoes
Redoes
EndRedoes
EndUndoRedoHistory
Fore
SplineSet
287 -356 m 1,0,-1
 287 1086 l 1,1,-1
 480 1086 l 1,2,-1
 480 350 l 2,3,4
 480 182 480 182 552 95.5 c 128,-1,5
 624 9 624 9 781 9 c 0,6,7
 908 9 908 9 991 73.5 c 128,-1,8
 1074 138 1074 138 1110 245 c 1,9,10
 1133 317 1133 317 1133 393 c 2,11,-1
 1133 1086 l 1,12,-1
 1327 1086 l 1,13,-1
 1327 170 l 2,14,15
 1327 -8 1327 -8 1336 -119 c 1,16,-1
 1137 -119 l 1,17,-1
 1133 40 l 1,18,19
 998 -145 998 -145 737 -145 c 0,20,21
 584 -145 584 -145 480 -83 c 1,22,-1
 480 -356 l 1,23,-1
 287 -356 l 1,0,-1
EndSplineSet
EndChar

StartChar: pi
Encoding: 960 960 309
Width: 2201
GlyphClass: 2
Flags: W
LayerCount: 2
UndoRedoHistory
Layer: 1
Undoes
EndUndoes
Redoes
EndRedoes
EndUndoRedoHistory
Fore
SplineSet
1201 -14 m 0,0,1
 1127 -14 1127 -14 1077.5 8.5 c 128,-1,2
 1028 31 1028 31 1001.5 78 c 128,-1,3
 975 125 975 125 965 182 c 128,-1,4
 955 239 955 239 955 322 c 2,5,-1
 955 1060 l 1,6,-1
 561 1060 l 1,7,8
 530 604 530 604 507 426 c 0,9,10
 484 243 484 243 449 99 c 0,11,12
 432 30 432 30 412 -4 c 1,13,-1
 222 -4 l 1,14,15
 270 79 270 79 295.5 196 c 128,-1,16
 321 313 321 313 341 478 c 0,17,18
 370 710 370 710 379 1060 c 1,19,20
 185 1056 185 1056 60 989 c 1,21,-1
 40 1143 l 1,22,23
 102 1191 102 1191 197.5 1204 c 128,-1,24
 293 1217 293 1217 444 1217 c 2,25,-1
 1369 1217 l 1,26,-1
 1369 1060 l 1,27,-1
 1129 1060 l 1,28,-1
 1140 334 l 1,29,30
 1140 252 1140 252 1164 210 c 128,-1,31
 1188 168 1188 168 1256 168 c 0,32,33
 1299 168 1299 168 1350 183 c 1,34,-1
 1348 148 l 2,35,36
 1347 137 1347 137 1347 113 c 0,37,38
 1347 46 1347 46 1362 3 c 1,39,40
 1262 -14 1262 -14 1201 -14 c 0,0,1
EndSplineSet
EndChar

StartChar: endash
Encoding: 8211 8211 310
Width: 1842
GlyphClass: 2
Flags: W
LayerCount: 2
UndoRedoHistory
Layer: 1
Undoes
EndUndoes
Redoes
EndRedoes
EndUndoRedoHistory
Fore
SplineSet
0 861 m 1,0,-1
 0 1022 l 1,1,-1
 1202 1022 l 1,2,-1
 1202 861 l 1,3,-1
 0 861 l 1,0,-1
EndSplineSet
EndChar

StartChar: emdash
Encoding: 8212 8212 311
Width: 3633
GlyphClass: 2
Flags: W
LayerCount: 2
UndoRedoHistory
Layer: 1
Undoes
EndUndoes
Redoes
EndRedoes
EndUndoRedoHistory
Fore
SplineSet
5 861 m 1,0,-1
 5 1022 l 1,1,-1
 2345 1022 l 1,2,-1
 2345 861 l 1,3,-1
 5 861 l 1,0,-1
EndSplineSet
EndChar

StartChar: quoteleft
Encoding: 8216 8216 312
Width: 984
GlyphClass: 2
Flags: W
LayerCount: 2
UndoRedoHistory
Layer: 1
Undoes
EndUndoes
Redoes
EndRedoes
EndUndoRedoHistory
Fore
SplineSet
575 1456 m 1,0,-1
 453 939 l 1,1,-1
 239 939 l 1,2,-1
 420 1456 l 1,3,-1
 575 1456 l 1,0,-1
EndSplineSet
EndChar

StartChar: quoteright
Encoding: 8217 8217 313
Width: 984
GlyphClass: 2
Flags: W
LayerCount: 2
UndoRedoHistory
Layer: 1
Undoes
EndUndoes
Redoes
EndRedoes
EndUndoRedoHistory
Fore
SplineSet
257 939 m 1,0,-1
 380 1456 l 1,1,-1
 592 1456 l 1,2,-1
 412 939 l 1,3,-1
 257 939 l 1,0,-1
EndSplineSet
EndChar

StartChar: quotesinglbase
Encoding: 8218 8218 314
Width: 984
GlyphClass: 2
Flags: W
LayerCount: 2
UndoRedoHistory
Layer: 1
Undoes
EndUndoes
Redoes
EndRedoes
EndUndoRedoHistory
Fore
SplineSet
230 -419 m 1,0,-1
 355 96 l 1,1,-1
 567 96 l 1,2,-1
 386 -419 l 1,3,-1
 230 -419 l 1,0,-1
EndSplineSet
EndChar

StartChar: quotedblleft
Encoding: 8220 8220 315
Width: 1787
GlyphClass: 2
Flags: W
LayerCount: 2
UndoRedoHistory
Layer: 1
Undoes
EndUndoes
Redoes
EndRedoes
EndUndoRedoHistory
Fore
SplineSet
382 963 m 1,0,-1
 562 1480 l 1,1,-1
 709 1480 l 1,2,-1
 595 963 l 1,3,-1
 382 963 l 1,0,-1
775 963 m 1,4,-1
 947 1480 l 1,5,-1
 1103 1480 l 1,6,-1
 981 963 l 1,7,-1
 775 963 l 1,4,-1
EndSplineSet
EndChar

StartChar: quotedblright
Encoding: 8221 8221 316
Width: 1789
GlyphClass: 2
Flags: W
LayerCount: 2
UndoRedoHistory
Layer: 1
Undoes
EndUndoes
Redoes
EndRedoes
EndUndoRedoHistory
Fore
SplineSet
475 937 m 1,0,-1
 597 1454 l 1,1,-1
 803 1454 l 1,2,-1
 631 937 l 1,3,-1
 475 937 l 1,0,-1
845 937 m 1,4,-1
 960 1454 l 1,5,-1
 1173 1454 l 1,6,-1
 993 937 l 1,7,-1
 845 937 l 1,4,-1
EndSplineSet
EndChar

StartChar: quotedblbase
Encoding: 8222 8222 317
Width: 1786
GlyphClass: 2
Flags: W
LayerCount: 2
UndoRedoHistory
Layer: 1
Undoes
EndUndoes
Redoes
EndRedoes
EndUndoRedoHistory
Fore
SplineSet
324 -419 m 1,0,-1
 447 96 l 1,1,-1
 651 96 l 1,2,-1
 481 -419 l 1,3,-1
 324 -419 l 1,0,-1
728 -419 m 1,4,-1
 841 96 l 1,5,-1
 1056 96 l 1,6,-1
 875 -419 l 1,7,-1
 728 -419 l 1,4,-1
EndSplineSet
EndChar

StartChar: dagger
Encoding: 8224 8224 318
Width: 1769
GlyphClass: 2
Flags: W
LayerCount: 2
UndoRedoHistory
Layer: 1
Undoes
EndUndoes
Redoes
EndRedoes
EndUndoRedoHistory
Fore
SplineSet
568 199 m 1,0,-1
 568 1163 l 1,1,-1
 198 1163 l 1,2,-1
 198 1318 l 1,3,-1
 568 1318 l 1,4,-1
 568 1770 l 1,5,-1
 724 1770 l 1,6,-1
 724 1318 l 1,7,-1
 1113 1318 l 1,8,-1
 1113 1163 l 1,9,-1
 710 1163 l 1,10,-1
 710 199 l 1,11,-1
 568 199 l 1,0,-1
EndSplineSet
EndChar

StartChar: daggerdbl
Encoding: 8225 8225 319
Width: 1776
GlyphClass: 2
Flags: W
LayerCount: 2
UndoRedoHistory
Layer: 1
Undoes
EndUndoes
Redoes
EndRedoes
EndUndoRedoHistory
Fore
SplineSet
551 199 m 1,0,-1
 571 577 l 1,1,-1
 183 577 l 1,2,-1
 183 726 l 1,3,-1
 571 726 l 1,4,-1
 571 1220 l 1,5,-1
 190 1220 l 1,6,-1
 190 1376 l 1,7,-1
 579 1376 l 1,8,-1
 550 1770 l 1,9,-1
 745 1770 l 1,10,-1
 723 1376 l 1,11,-1
 1112 1376 l 1,12,-1
 1112 1220 l 1,13,-1
 716 1220 l 1,14,-1
 716 726 l 1,15,-1
 1104 726 l 1,16,-1
 1104 577 l 1,17,-1
 716 577 l 1,18,-1
 740 199 l 1,19,-1
 551 199 l 1,0,-1
EndSplineSet
EndChar

StartChar: bullet
Encoding: 8226 8226 320
Width: 1718
GlyphClass: 2
Flags: W
LayerCount: 2
UndoRedoHistory
Layer: 1
Undoes
EndUndoes
Redoes
EndRedoes
EndUndoRedoHistory
Fore
SplineSet
667 678 m 0,0,1
 547 678 547 678 455 740.5 c 128,-1,2
 363 803 363 803 317 901 c 0,3,4
 287 966 287 966 287 1041 c 0,5,6
 287 1163 287 1163 358 1251 c 128,-1,7
 429 1339 429 1339 535 1382 c 1,8,9
 594 1411 594 1411 672 1411 c 0,10,11
 791 1411 791 1411 882.5 1348.5 c 128,-1,12
 974 1286 974 1286 1020 1189 c 1,13,14
 1052 1125 1052 1125 1052 1049 c 0,15,16
 1052 895 1052 895 933 787 c 1,17,18
 817 678 817 678 667 678 c 0,0,1
EndSplineSet
EndChar

StartChar: ellipsis
Encoding: 8230 8230 321
Width: 2772
GlyphClass: 2
Flags: W
LayerCount: 2
UndoRedoHistory
Layer: 1
Undoes
EndUndoes
Redoes
EndRedoes
EndUndoRedoHistory
Fore
SplineSet
290 -20 m 1,0,-1
 290 227 l 1,1,-1
 544 227 l 1,2,-1
 544 -20 l 1,3,-1
 290 -20 l 1,0,-1
887 -20 m 1,4,-1
 887 227 l 1,5,-1
 1126 227 l 1,6,-1
 1126 -20 l 1,7,-1
 887 -20 l 1,4,-1
1468 -20 m 1,8,-1
 1468 227 l 1,9,-1
 1723 227 l 1,10,-1
 1723 -20 l 1,11,-1
 1468 -20 l 1,8,-1
EndSplineSet
EndChar

StartChar: perthousand
Encoding: 8240 8240 322
Width: 4109
GlyphClass: 2
Flags: W
LayerCount: 2
UndoRedoHistory
Layer: 1
Undoes
EndUndoes
Redoes
EndRedoes
EndUndoRedoHistory
Fore
SplineSet
535 853 m 0,0,1
 345 853 345 853 242 964.5 c 128,-1,2
 139 1076 139 1076 139 1270 c 0,3,4
 139 1412 139 1412 200 1509.5 c 128,-1,5
 261 1607 261 1607 368 1651 c 1,6,7
 439 1683 439 1683 537 1683 c 0,8,9
 728 1683 728 1683 830.5 1573 c 128,-1,10
 933 1463 933 1463 933 1266 c 0,11,12
 933 1126 933 1126 871 1027 c 128,-1,13
 809 928 809 928 702 884 c 1,14,15
 633 853 633 853 535 853 c 0,0,1
1407 -47 m 0,16,17
 1233 -47 1233 -47 1133 65.5 c 128,-1,18
 1033 178 1033 178 1033 370 c 0,19,20
 1033 511 1033 511 1093 609 c 128,-1,21
 1153 707 1153 707 1256 752 c 1,22,23
 1320 784 1320 784 1411 784 c 0,24,25
 1587 784 1587 784 1685 672 c 128,-1,26
 1783 560 1783 560 1783 366 c 0,27,28
 1783 225 1783 225 1723 127.5 c 128,-1,29
 1663 30 1663 30 1560 -15 c 1,30,31
 1495 -47 1495 -47 1407 -47 c 0,16,17
2275 -47 m 0,32,33
 2101 -47 2101 -47 2001.5 65.5 c 128,-1,34
 1902 178 1902 178 1902 370 c 0,35,36
 1902 511 1902 511 1962 609 c 128,-1,37
 2022 707 2022 707 2125 752 c 1,38,39
 2189 784 2189 784 2280 784 c 0,40,41
 2456 784 2456 784 2554 672.5 c 128,-1,42
 2652 561 2652 561 2652 366 c 0,43,44
 2652 226 2652 226 2591 127.5 c 128,-1,45
 2530 29 2530 29 2427 -15 c 1,46,47
 2363 -47 2363 -47 2275 -47 c 0,32,33
520 -40 m 1,48,-1
 341 -40 l 1,49,-1
 1419 1670 l 1,50,-1
 1577 1670 l 1,51,-1
 520 -40 l 1,48,-1
310 1271 m 0,52,53
 310 1143 310 1143 367 1064.5 c 128,-1,54
 424 986 424 986 539 986 c 0,55,56
 649 986 649 986 705.5 1065.5 c 128,-1,57
 762 1145 762 1145 762 1268 c 0,58,59
 762 1394 762 1394 705 1472.5 c 128,-1,60
 648 1551 648 1551 535 1551 c 0,61,62
 425 1551 425 1551 367.5 1472.5 c 128,-1,63
 310 1394 310 1394 310 1271 c 0,52,53
1410 85 m 0,64,65
 1510 85 1510 85 1562.5 165 c 128,-1,66
 1615 245 1615 245 1615 368 c 0,67,68
 1615 495 1615 495 1564 572.5 c 128,-1,69
 1513 650 1513 650 1410 650 c 0,70,71
 1308 650 1308 650 1256 572 c 128,-1,72
 1204 494 1204 494 1204 370 c 0,73,74
 1204 243 1204 243 1256 164 c 128,-1,75
 1308 85 1308 85 1410 85 c 0,64,65
2279 85 m 0,76,77
 2380 85 2380 85 2431.5 164.5 c 128,-1,78
 2483 244 2483 244 2483 368 c 0,79,80
 2483 493 2483 493 2431.5 571.5 c 128,-1,81
 2380 650 2380 650 2278 650 c 128,-1,82
 2176 650 2176 650 2124 572 c 128,-1,83
 2072 494 2072 494 2072 370 c 0,84,85
 2072 243 2072 243 2124 164 c 128,-1,86
 2176 85 2176 85 2279 85 c 0,76,77
EndSplineSet
EndChar

StartChar: guilsinglleft
Encoding: 8249 8249 323
Width: 1140
GlyphClass: 2
Flags: W
LayerCount: 2
UndoRedoHistory
Layer: 1
Undoes
EndUndoes
Redoes
EndRedoes
EndUndoRedoHistory
Fore
SplineSet
511 301 m 1,0,-1
 195 735 l 1,1,-1
 517 1174 l 1,2,-1
 703 1174 l 1,3,-1
 394 735 l 1,4,-1
 694 301 l 1,5,-1
 511 301 l 1,0,-1
EndSplineSet
EndChar

StartChar: guilsinglright
Encoding: 8250 8250 324
Width: 1140
GlyphClass: 2
Flags: W
LayerCount: 2
UndoRedoHistory
Layer: 1
Undoes
EndUndoes
Redoes
EndRedoes
EndUndoRedoHistory
Fore
SplineSet
383 1174 m 1,0,-1
 701 737 l 1,1,-1
 376 301 l 1,2,-1
 191 301 l 1,3,-1
 499 737 l 1,4,-1
 201 1174 l 1,5,-1
 383 1174 l 1,0,-1
EndSplineSet
EndChar

StartChar: fraction
Encoding: 8260 8260 325
Width: 584
GlyphClass: 2
Flags: W
LayerCount: 2
UndoRedoHistory
Layer: 1
Undoes
EndUndoes
Redoes
EndRedoes
EndUndoRedoHistory
Fore
SplineSet
-583 0 m 1,0,-1
 407 1686 l 1,1,-1
 582 1686 l 1,2,-1
 -406 0 l 1,3,-1
 -583 0 l 1,0,-1
EndSplineSet
EndChar

StartChar: uni2074
Encoding: 8308 8308 326
Width: 1564
GlyphClass: 2
Flags: W
LayerCount: 2
UndoRedoHistory
Layer: 1
Undoes
EndUndoes
Redoes
EndRedoes
EndUndoRedoHistory
Fore
SplineSet
833 545 m 1,0,-1
 833 766 l 1,1,-1
 408 766 l 1,2,-1
 408 872 l 1,3,-1
 820 1480 l 1,4,-1
 973 1480 l 1,5,-1
 973 891 l 1,6,-1
 1100 891 l 1,7,-1
 1112 766 l 1,8,-1
 970 766 l 1,9,-1
 970 545 l 1,10,-1
 833 545 l 1,0,-1
572 891 m 1,11,-1
 833 891 l 1,12,-1
 833 1283 l 1,13,-1
 572 891 l 1,11,-1
EndSplineSet
EndChar

StartChar: Euro
Encoding: 8364 8364 327
Width: 1370
GlyphClass: 2
Flags: W
LayerCount: 2
UndoRedoHistory
Layer: 1
Undoes
EndUndoes
Redoes
EndRedoes
EndUndoRedoHistory
Fore
SplineSet
1000 466 m 1,0,-1
 -5 466 l 1,1,-1
 18 628 l 1,2,-1
 219 628 l 1,3,-1
 219 814 l 1,4,-1
 -9 814 l 1,5,-1
 17 976 l 1,6,-1
 1062 976 l 1,7,-1
 1038 814 l 1,8,-1
 346 814 l 1,9,-1
 346 628 l 1,10,-1
 1023 628 l 1,11,-1
 1000 466 l 1,0,-1
853 -24 m 0,12,13
 698 -24 698 -24 566.5 32 c 128,-1,14
 435 88 435 88 342.5 187 c 128,-1,15
 250 286 250 286 198 427 c 128,-1,16
 146 568 146 568 146 733 c 0,17,18
 146 900 146 900 200 1040 c 128,-1,19
 254 1180 254 1180 349 1276.5 c 128,-1,20
 444 1373 444 1373 577 1426.5 c 128,-1,21
 710 1480 710 1480 866 1480 c 0,22,23
 978 1480 978 1480 1095.5 1439 c 128,-1,24
 1213 1398 1213 1398 1305 1327 c 1,25,-1
 1218 1136 l 1,26,27
 1153 1189 1153 1189 1056 1230.5 c 128,-1,28
 959 1272 959 1272 867 1272 c 0,29,30
 654 1272 654 1272 533 1122 c 128,-1,31
 412 972 412 972 412 732 c 0,32,33
 412 489 412 489 535.5 336.5 c 128,-1,34
 659 184 659 184 881 184 c 0,35,36
 973 184 973 184 1071 218 c 128,-1,37
 1169 252 1169 252 1243 311 c 1,38,-1
 1321 125 l 1,39,40
 1241 59 1241 59 1107.5 17.5 c 128,-1,41
 974 -24 974 -24 853 -24 c 0,12,13
EndSplineSet
EndChar

StartChar: trademark
Encoding: 8482 8482 328
Width: 3165
GlyphClass: 2
Flags: W
LayerCount: 2
UndoRedoHistory
Layer: 1
Undoes
EndUndoes
Redoes
EndRedoes
EndUndoRedoHistory
Fore
SplineSet
951 1208 m 1,0,-1
 951 2107 l 1,1,-1
 1153 2107 l 1,2,-1
 1403 1459 l 1,3,-1
 1672 2107 l 1,4,-1
 1882 2107 l 1,5,-1
 1882 1208 l 1,6,-1
 1739 1208 l 1,7,-1
 1739 1907 l 1,8,-1
 1439 1208 l 1,9,-1
 1354 1208 l 1,10,-1
 1080 1906 l 1,11,-1
 1080 1208 l 1,12,-1
 951 1208 l 1,0,-1
426 1208 m 1,13,-1
 426 1988 l 1,14,-1
 133 1988 l 1,15,-1
 133 2107 l 1,16,-1
 832 2107 l 1,17,-1
 832 1988 l 1,18,-1
 557 1988 l 1,19,-1
 557 1208 l 1,20,-1
 426 1208 l 1,13,-1
EndSplineSet
EndChar

StartChar: partialdiff
Encoding: 8706 8706 329
Width: 1993
GlyphClass: 2
Flags: W
LayerCount: 2
UndoRedoHistory
Layer: 1
Undoes
EndUndoes
Redoes
EndRedoes
EndUndoRedoHistory
Fore
SplineSet
610 -42 m 0,0,1
 450 -42 450 -42 341.5 43 c 128,-1,2
 233 128 233 128 186 273 c 1,3,4
 156 369 156 369 156 479 c 0,5,6
 156 699 156 699 252.5 864 c 128,-1,7
 349 1029 349 1029 501 1109 c 1,8,9
 601 1163 601 1163 709 1163 c 0,10,11
 906 1163 906 1163 1048 968 c 1,12,13
 1048 979 1048 979 1048.5 1011 c 128,-1,14
 1049 1043 1049 1043 1049 1056 c 0,15,16
 1049 1248 1049 1248 995.5 1387.5 c 128,-1,17
 942 1527 942 1527 836 1590 c 0,18,19
 769 1629 769 1629 686 1629 c 0,20,21
 547 1629 547 1629 396 1517 c 1,22,-1
 385 1679 l 1,23,24
 449 1726 449 1726 534 1756 c 128,-1,25
 619 1786 619 1786 711 1786 c 0,26,27
 911 1786 911 1786 1033.5 1667 c 128,-1,28
 1156 1548 1156 1548 1210 1343 c 0,29,30
 1250 1193 1250 1193 1250 986 c 0,31,32
 1250 576 1250 576 1082 282 c 0,33,34
 967 79 967 79 800 -1 c 1,35,36
 717 -42 717 -42 610 -42 c 0,0,1
612 116 m 0,37,38
 773 116 773 116 888 304 c 0,39,40
 997 483 997 483 1028 755 c 1,41,42
 968 926 968 926 834 986 c 0,43,44
 790 1006 790 1006 733 1006 c 0,45,46
 573 1006 573 1006 463 848 c 0,47,48
 355 693 355 693 355 476 c 0,49,50
 355 355 355 355 394 268.5 c 128,-1,51
 433 182 433 182 506 142 c 0,52,53
 553 116 553 116 612 116 c 0,37,38
EndSplineSet
EndChar

StartChar: product
Encoding: 8719 8719 330
Width: 2673
GlyphClass: 2
Flags: W
LayerCount: 2
UndoRedoHistory
Layer: 1
Undoes
EndUndoes
Redoes
EndRedoes
EndUndoRedoHistory
Fore
SplineSet
369 -580 m 1,0,-1
 369 1307 l 1,1,-1
 222 1307 l 1,2,-1
 204 1477 l 1,3,-1
 1687 1477 l 1,4,-1
 1668 1307 l 1,5,-1
 1536 1307 l 1,6,-1
 1536 -580 l 1,7,-1
 1334 -580 l 1,8,-1
 1334 1307 l 1,9,-1
 567 1307 l 1,10,-1
 567 -580 l 1,11,-1
 369 -580 l 1,0,-1
EndSplineSet
EndChar

StartChar: summation
Encoding: 8721 8721 331
Width: 2149
GlyphClass: 2
Flags: W
LayerCount: 2
UndoRedoHistory
Layer: 1
Undoes
EndUndoes
Redoes
EndRedoes
EndUndoRedoHistory
Fore
SplineSet
111 -580 m 1,0,-1
 111 -474 l 1,1,-1
 812 455 l 1,2,-1
 136 1367 l 1,3,-1
 136 1477 l 1,4,-1
 1338 1477 l 1,5,-1
 1338 1311 l 1,6,-1
 418 1311 l 1,7,-1
 1026 465 l 1,8,-1
 385 -406 l 1,9,-1
 1391 -406 l 1,10,-1
 1391 -580 l 1,11,-1
 111 -580 l 1,0,-1
EndSplineSet
EndChar

StartChar: minus
Encoding: 8722 8722 332
Width: 1115
GlyphClass: 2
Flags: W
LayerCount: 2
UndoRedoHistory
Layer: 1
Undoes
EndUndoes
Redoes
EndRedoes
EndUndoRedoHistory
Fore
SplineSet
168 640 m 1,0,-1
 168 837 l 1,1,-1
 947 837 l 1,2,-1
 947 640 l 1,3,-1
 168 640 l 1,0,-1
EndSplineSet
EndChar

StartChar: radical
Encoding: 8730 8730 333
Width: 2242
GlyphClass: 2
Flags: W
LayerCount: 2
UndoRedoHistory
Layer: 1
Undoes
EndUndoes
Redoes
EndRedoes
EndUndoRedoHistory
Fore
SplineSet
742 -269 m 1,0,-1
 388 721 l 1,1,-1
 186 688 l 1,2,-1
 163 819 l 1,3,-1
 500 879 l 1,4,-1
 742 162 l 1,5,-1
 804 -41 l 1,6,-1
 846 165 l 1,7,-1
 1251 1784 l 1,8,-1
 1403 1784 l 1,9,-1
 886 -269 l 1,10,-1
 742 -269 l 1,0,-1
EndSplineSet
EndChar

StartChar: infinity
Encoding: 8734 8734 334
Width: 2901
GlyphClass: 2
Flags: W
LayerCount: 2
UndoRedoHistory
Layer: 1
Undoes
EndUndoes
Redoes
EndRedoes
EndUndoRedoHistory
Fore
SplineSet
580 415 m 0,0,1
 447 415 447 415 351.5 490.5 c 128,-1,2
 256 566 256 566 210 686 c 1,3,4
 179 764 179 764 179 857 c 0,5,6
 179 1017 179 1017 306 1133 c 1,7,8
 426 1247 426 1247 575 1247 c 0,9,10
 680 1247 680 1247 760 1200 c 128,-1,11
 840 1153 840 1153 911 1073 c 0,12,13
 955 1023 955 1023 1005 951 c 1,14,15
 1078 1056 1078 1056 1146.5 1124.5 c 128,-1,16
 1215 1193 1215 1193 1305 1226 c 1,17,18
 1358 1247 1358 1247 1431 1247 c 0,19,20
 1564 1247 1564 1247 1658.5 1180.5 c 128,-1,21
 1753 1114 1753 1114 1798 1001 c 0,22,23
 1827 929 1827 929 1827 838 c 0,24,25
 1827 696 1827 696 1755.5 594.5 c 128,-1,26
 1684 493 1684 493 1574 446 c 0,27,28
 1501 415 1501 415 1428 415 c 0,29,30
 1311 415 1311 415 1210 489 c 0,31,32
 1108 563 1108 563 1004 711 c 1,33,34
 934 610 934 610 862.5 540.5 c 128,-1,35
 791 471 791 471 701 437 c 0,36,37
 640 415 640 415 580 415 c 0,0,1
583 556 m 0,38,39
 678 556 678 556 771 636 c 0,40,41
 845 700 845 700 931 830 c 1,42,43
 871 927 871 927 812.5 992 c 128,-1,44
 754 1057 754 1057 677 1090 c 0,45,46
 627 1112 627 1112 572 1112 c 0,47,48
 487 1112 487 1112 431 1065.5 c 128,-1,49
 375 1019 375 1019 349 941 c 0,50,51
 332 888 332 888 332 833 c 0,52,53
 332 744 332 744 374 678 c 128,-1,54
 416 612 416 612 481 579 c 1,55,56
 529 556 529 556 583 556 c 0,38,39
1431 556 m 0,57,58
 1547 556 1547 556 1605.5 640 c 128,-1,59
 1664 724 1664 724 1664 864 c 0,60,61
 1664 946 1664 946 1623.5 1004.5 c 128,-1,62
 1583 1063 1583 1063 1521 1092 c 1,63,64
 1475 1112 1475 1112 1425 1112 c 0,65,66
 1330 1112 1330 1112 1232 1026 c 0,67,68
 1152 956 1152 956 1077 833 c 1,69,70
 1178 687 1178 687 1253 626 c 1,71,72
 1337 556 1337 556 1431 556 c 0,57,58
EndSplineSet
EndChar

StartChar: integral
Encoding: 8747 8747 335
Width: 1219
GlyphClass: 2
Flags: W
LayerCount: 2
UndoRedoHistory
Layer: 1
Undoes
EndUndoes
Redoes
EndRedoes
EndUndoRedoHistory
Fore
SplineSet
387 -703 m 0,0,1
 321 -703 321 -703 228 -678 c 1,2,-1
 225 -526 l 1,3,4
 270 -544 270 -544 354 -544 c 0,5,6
 411 -544 411 -544 448 -527.5 c 128,-1,7
 485 -511 485 -511 504 -475.5 c 128,-1,8
 523 -440 523 -440 529.5 -397 c 128,-1,9
 536 -354 536 -354 536 -289 c 2,10,-1
 536 1239 l 2,11,12
 536 1680 536 1680 868 1680 c 0,13,14
 924 1680 924 1680 1028 1656 c 1,15,-1
 1031 1505 l 1,16,17
 987 1522 987 1522 902 1522 c 0,18,19
 792 1522 792 1522 754.5 1461 c 128,-1,20
 717 1400 717 1400 717 1268 c 2,21,-1
 717 -261 l 2,22,23
 717 -363 717 -363 700 -441 c 128,-1,24
 683 -519 683 -519 645.5 -579.5 c 128,-1,25
 608 -640 608 -640 543 -671.5 c 128,-1,26
 478 -703 478 -703 387 -703 c 0,0,1
EndSplineSet
EndChar

StartChar: approxequal
Encoding: 8776 8776 336
Width: 2296
GlyphClass: 2
Flags: W
LayerCount: 2
UndoRedoHistory
Layer: 1
Undoes
EndUndoes
Redoes
EndRedoes
EndUndoRedoHistory
Fore
SplineSet
414 460 m 1,0,-1
 280 493 l 1,1,2
 313 628 313 628 396.5 711.5 c 128,-1,3
 480 795 480 795 609 795 c 0,4,5
 657 795 657 795 709.5 778 c 128,-1,6
 762 761 762 761 794.5 743.5 c 128,-1,7
 827 726 827 726 874 697 c 0,8,9
 898 683 898 683 938 659.5 c 128,-1,10
 978 636 978 636 989 630 c 0,11,12
 1048 599 1048 599 1088 599 c 0,13,14
 1126 599 1126 599 1156.5 615 c 128,-1,15
 1187 631 1187 631 1208.5 661 c 128,-1,16
 1230 691 1230 691 1244 722 c 128,-1,17
 1258 753 1258 753 1272 795 c 1,18,-1
 1401 762 l 1,19,20
 1369 625 1369 625 1290.5 543 c 128,-1,21
 1212 461 1212 461 1082 461 c 0,22,23
 991 461 991 461 879 525 c 0,24,25
 873 528 873 528 801.5 572 c 128,-1,26
 730 616 730 616 698 631 c 0,27,28
 649 654 649 654 606 654 c 0,29,30
 465 654 465 654 414 460 c 1,0,-1
412 898 m 1,31,-1
 277 930 l 1,32,33
 308 1066 308 1066 392 1148 c 128,-1,34
 476 1230 476 1230 606 1230 c 0,35,36
 660 1230 660 1230 717 1210 c 128,-1,37
 774 1190 774 1190 814.5 1165 c 128,-1,38
 855 1140 855 1140 907.5 1107.5 c 128,-1,39
 960 1075 960 1075 993 1060 c 0,40,41
 1047 1036 1047 1036 1086 1036 c 0,42,43
 1124 1036 1124 1036 1154.5 1051.5 c 128,-1,44
 1185 1067 1185 1067 1206.5 1097 c 128,-1,45
 1228 1127 1228 1127 1242 1158 c 128,-1,46
 1256 1189 1256 1189 1270 1232 c 1,47,-1
 1399 1199 l 1,48,49
 1370 1063 1370 1063 1290 980.5 c 128,-1,50
 1210 898 1210 898 1079 898 c 0,51,52
 1022 898 1022 898 977 914 c 128,-1,53
 932 930 932 930 876 962 c 0,54,55
 857 973 857 973 791 1013.5 c 128,-1,56
 725 1054 725 1054 694 1069 c 0,57,58
 649 1091 649 1091 602 1091 c 0,59,60
 525 1091 525 1091 480.5 1038.5 c 128,-1,61
 436 986 436 986 412 898 c 1,31,-1
EndSplineSet
EndChar

StartChar: notequal
Encoding: 8800 8800 337
Width: 2318
GlyphClass: 2
Flags: W
LayerCount: 2
UndoRedoHistory
Layer: 1
Undoes
EndUndoes
Redoes
EndRedoes
EndUndoRedoHistory
Fore
SplineSet
630 81 m 1,0,-1
 498 102 l 1,1,-1
 636 408 l 1,2,-1
 303 408 l 1,3,-1
 293 550 l 1,4,-1
 702 550 l 1,5,-1
 858 882 l 1,6,-1
 303 882 l 1,7,-1
 292 1024 l 1,8,-1
 918 1024 l 1,9,-1
 1062 1346 l 1,10,-1
 1196 1324 l 1,11,-1
 1060 1024 l 1,12,-1
 1411 1024 l 1,13,-1
 1423 882 l 1,14,-1
 998 882 l 1,15,-1
 841 550 l 1,16,-1
 1412 550 l 1,17,-1
 1423 408 l 1,18,-1
 780 408 l 1,19,-1
 630 81 l 1,0,-1
EndSplineSet
EndChar

StartChar: lessequal
Encoding: 8804 8804 338
Width: 2320
GlyphClass: 2
Flags: W
LayerCount: 2
UndoRedoHistory
Layer: 1
Undoes
EndUndoes
Redoes
EndRedoes
EndUndoRedoHistory
Fore
SplineSet
1382 259 m 1,0,-1
 336 787 l 1,1,-1
 336 882 l 1,2,-1
 1382 1437 l 1,3,-1
 1382 1272 l 1,4,-1
 541 838 l 1,5,-1
 1382 424 l 1,6,-1
 1382 259 l 1,0,-1
294 15 m 1,7,-1
 294 159 l 1,8,-1
 1416 159 l 1,9,-1
 1416 15 l 1,10,-1
 294 15 l 1,7,-1
EndSplineSet
EndChar

StartChar: greaterequal
Encoding: 8805 8805 339
Width: 2318
GlyphClass: 2
Flags: W
LayerCount: 2
UndoRedoHistory
Layer: 1
Undoes
EndUndoes
Redoes
EndRedoes
EndUndoRedoHistory
Fore
SplineSet
294 15 m 1,0,-1
 294 159 l 1,1,-1
 1412 159 l 1,2,-1
 1412 15 l 1,3,-1
 294 15 l 1,0,-1
334 1439 m 1,4,-1
 1389 883 l 1,5,-1
 1389 789 l 1,6,-1
 330 261 l 1,7,-1
 330 427 l 1,8,-1
 1180 835 l 1,9,-1
 334 1275 l 1,10,-1
 334 1439 l 1,4,-1
EndSplineSet
EndChar

StartChar: lozenge
Encoding: 9674 9674 340
Width: 2138
GlyphClass: 2
Flags: W
LayerCount: 2
UndoRedoHistory
Layer: 1
Undoes
EndUndoes
Redoes
EndRedoes
EndUndoRedoHistory
Fore
SplineSet
764 89 m 1,0,1
 807 176 807 176 862 278.5 c 128,-1,2
 917 381 917 381 952 443.5 c 128,-1,3
 987 506 987 506 1060 636 c 128,-1,4
 1133 766 1133 766 1157 808 c 1,5,6
 864 1347 864 1347 775 1528 c 1,7,8
 740 1457 740 1457 702.5 1385.5 c 128,-1,9
 665 1314 665 1314 620 1233.5 c 128,-1,10
 575 1153 575 1153 545.5 1100 c 128,-1,11
 516 1047 516 1047 460.5 949.5 c 128,-1,12
 405 852 405 852 382 811 c 1,13,14
 644 329 644 329 764 89 c 1,0,1
708 -79 m 1,15,-1
 207 808 l 1,16,-1
 716 1700 l 1,17,-1
 829 1700 l 1,18,-1
 1334 809 l 1,19,-1
 820 -79 l 1,20,-1
 708 -79 l 1,15,-1
EndSplineSet
EndChar

StartChar: uniFB01
Encoding: 64257 64257 341
Width: 2132
GlyphClass: 2
Flags: W
LayerCount: 2
UndoRedoHistory
Layer: 1
Undoes
EndUndoes
Redoes
EndRedoes
EndUndoRedoHistory
Fore
SplineSet
326 0 m 1,0,-1
 326 1079 l 1,1,-1
 89 1079 l 1,2,-1
 89 1205 l 1,3,-1
 326 1205 l 1,4,-1
 327 1336 l 2,5,6
 328 1437 328 1437 346.5 1514.5 c 128,-1,7
 365 1592 365 1592 404 1653 c 128,-1,8
 443 1714 443 1714 511.5 1746 c 128,-1,9
 580 1778 580 1778 676 1778 c 0,10,11
 699 1778 699 1778 723 1775.5 c 128,-1,12
 747 1773 747 1773 758 1771 c 128,-1,13
 769 1769 769 1769 800.5 1762 c 128,-1,14
 832 1755 832 1755 836 1754 c 1,15,-1
 838 1601 l 1,16,17
 793 1619 793 1619 709 1619 c 0,18,19
 598 1619 598 1619 559 1557 c 128,-1,20
 520 1495 520 1495 520 1365 c 2,21,-1
 519 1205 l 1,22,-1
 1251 1205 l 1,23,-1
 1251 0 l 1,24,-1
 1057 0 l 1,25,-1
 1057 1079 l 1,26,-1
 519 1079 l 1,27,-1
 519 0 l 1,28,-1
 326 0 l 1,0,-1
1066 1535 m 1,29,-1
 1066 1717 l 1,30,-1
 1246 1717 l 1,31,-1
 1246 1535 l 1,32,-1
 1066 1535 l 1,29,-1
EndSplineSet
EndChar

StartChar: uniFB02
Encoding: 64258 64258 342
Width: 2360
GlyphClass: 2
Flags: W
LayerCount: 2
UndoRedoHistory
Layer: 1
Undoes
EndUndoes
Redoes
EndRedoes
EndUndoRedoHistory
Fore
SplineSet
147 -791 m 1,0,-1
 122 -649 l 1,1,2
 227 -624 227 -624 282 -534.5 c 128,-1,3
 337 -445 337 -445 337 -304 c 2,4,-1
 337 815 l 1,5,-1
 99 815 l 1,6,-1
 99 941 l 1,7,-1
 337 941 l 1,8,-1
 337 1110 l 2,9,10
 337 1333 337 1333 410 1434 c 128,-1,11
 483 1535 483 1535 643 1535 c 0,12,13
 729 1535 729 1535 832 1496 c 1,14,-1
 805 1371 l 1,15,16
 727 1391 727 1391 689 1391 c 0,17,18
 595 1391 595 1391 553 1331 c 128,-1,19
 511 1271 511 1271 511 1137 c 2,20,-1
 511 941 l 1,21,-1
 775 941 l 1,22,-1
 775 815 l 1,23,-1
 511 815 l 1,24,-1
 511 -277 l 2,25,26
 511 -508 511 -508 427 -636 c 128,-1,27
 343 -764 343 -764 147 -791 c 1,0,-1
1331 -277 m 0,28,29
 1167 -277 1167 -277 1078 -174.5 c 128,-1,30
 989 -72 989 -72 989 89 c 2,31,-1
 989 1493 l 1,32,-1
 1166 1528 l 1,33,-1
 1181 79 l 2,34,35
 1181 -17 1181 -17 1234 -67.5 c 128,-1,36
 1287 -118 1287 -118 1372 -118 c 0,37,38
 1447 -118 1447 -118 1555 -84 c 1,39,-1
 1585 -235 l 1,40,41
 1447 -277 1447 -277 1331 -277 c 0,28,29
EndSplineSet
EndChar

StartChar: e.alt
Encoding: 65539 -1 344
Width: 1840
GlyphClass: 2
Flags: W
LayerCount: 2
UndoRedoHistory
Layer: 1
Undoes
EndUndoes
Redoes
EndRedoes
EndUndoRedoHistory
Fore
SplineSet
720 -34 m 0,0,1
 614 -34 614 -34 516.5 9 c 128,-1,2
 419 52 419 52 343 130 c 128,-1,3
 267 208 267 208 221.5 329 c 128,-1,4
 176 450 176 450 176 595 c 0,5,6
 176 766 176 766 240.5 909 c 128,-1,7
 305 1052 305 1052 431.5 1140.5 c 128,-1,8
 558 1229 558 1229 724 1229 c 0,9,10
 896 1229 896 1229 1007 1124.5 c 128,-1,11
 1118 1020 1118 1020 1118 870 c 0,12,13
 1118 810 1118 810 1098 758.5 c 128,-1,14
 1078 707 1078 707 1044.5 667.5 c 128,-1,15
 1011 628 1011 628 958 594.5 c 128,-1,16
 905 561 905 561 847.5 536.5 c 128,-1,17
 790 512 790 512 713.5 490.5 c 128,-1,18
 637 469 637 469 565 454.5 c 128,-1,19
 493 440 493 440 403 425 c 1,20,21
 436 276 436 276 524.5 204.5 c 128,-1,22
 613 133 613 133 728 133 c 0,23,24
 835 133 835 133 933.5 182.5 c 128,-1,25
 1032 232 1032 232 1099 313 c 1,26,-1
 1197 188 l 1,27,28
 984 -34 984 -34 720 -34 c 0,0,1
390 564 m 1,29,30
 490 581 490 581 563.5 598 c 128,-1,31
 637 615 637 615 709 641.5 c 128,-1,32
 781 668 781 668 826 699 c 128,-1,33
 871 730 871 730 899 775 c 128,-1,34
 927 820 927 820 927 875 c 0,35,36
 927 957 927 957 873.5 1009 c 128,-1,37
 820 1061 820 1061 726 1061 c 0,38,39
 623 1061 623 1061 544.5 998.5 c 128,-1,40
 466 936 466 936 426.5 837.5 c 128,-1,41
 387 739 387 739 387 622 c 0,42,43
 387 594 387 594 390 564 c 1,29,30
EndSplineSet
EndChar

StartChar: f.alt
Encoding: 65540 -1 345
Width: 760
GlyphClass: 2
Flags: W
LayerCount: 2
UndoRedoHistory
Layer: 1
Undoes
EndUndoes
Redoes
EndRedoes
EndUndoRedoHistory
Fore
SplineSet
101 -410 m 1,0,-1
 80 -213 l 1,1,2
 177 -213 177 -213 218 -167.5 c 128,-1,3
 259 -122 259 -122 259 -19 c 2,4,-1
 259 862 l 1,5,-1
 73 862 l 1,6,-1
 73 1026 l 1,7,-1
 259 1026 l 1,8,-1
 259 1096 l 2,9,10
 259 1306 259 1306 362 1393 c 128,-1,11
 465 1480 465 1480 678 1480 c 2,12,-1
 781 1480 l 1,13,-1
 781 1292 l 1,14,-1
 696 1292 l 2,15,16
 582 1292 582 1292 541.5 1240 c 128,-1,17
 501 1188 501 1188 501 1061 c 2,18,-1
 501 1026 l 1,19,-1
 731 1026 l 1,20,-1
 731 862 l 1,21,-1
 501 862 l 1,22,-1
 501 -11 l 2,23,24
 501 -410 501 -410 101 -410 c 1,0,-1
EndSplineSet
EndChar

StartChar: four.alt
Encoding: 65541 -1 346
Width: 1254
GlyphClass: 2
Flags: W
LayerCount: 2
UndoRedoHistory
Layer: 1
Undoes
EndUndoes
Redoes
EndRedoes
EndUndoRedoHistory
Fore
SplineSet
755 0 m 1,0,-1
 755 327 l 1,1,-1
 114 327 l 1,2,-1
 114 504 l 1,3,-1
 720 1456 l 1,4,-1
 982 1456 l 1,5,-1
 982 511 l 1,6,-1
 1179 511 l 1,7,-1
 1179 327 l 1,8,-1
 982 327 l 1,9,-1
 982 0 l 1,10,-1
 755 0 l 1,0,-1
344 511 m 1,11,-1
 755 511 l 1,12,-1
 755 1167 l 1,13,-1
 579 882 l 1,14,-1
 344 511 l 1,11,-1
EndSplineSet
EndChar

StartChar: k.alt
Encoding: 65542 -1 347
Width: 1171
GlyphClass: 2
Flags: W
LayerCount: 2
UndoRedoHistory
Layer: 1
Undoes
EndUndoes
Redoes
EndRedoes
EndUndoRedoHistory
Fore
SplineSet
1167 195 m 1,0,-1
 1130 3 l 1,1,2
 1082 -15 1082 -15 1041 -20 c 128,-1,3
 1000 -25 1000 -25 955 -15.5 c 128,-1,4
 910 -6 910 -6 866 28.5 c 128,-1,5
 822 63 822 63 780 123 c 1,6,-1
 618 362 l 1,7,-1
 390 42 l 2,8,9
 363 3 363 3 322.5 -11.5 c 128,-1,10
 282 -26 282 -26 247 -17 c 128,-1,11
 212 -8 212 -8 187 24 c 128,-1,12
 162 56 162 56 162 102 c 2,13,-1
 162 1470 l 1,14,-1
 404 1470 l 1,15,-1
 404 389 l 1,16,-1
 824 1026 l 1,17,-1
 1046 965 l 1,18,-1
 762 539 l 1,19,-1
 932 290 l 1,20,21
 1007 194 1007 194 1046.5 180.5 c 128,-1,22
 1086 167 1086 167 1167 195 c 1,0,-1
EndSplineSet
EndChar

StartChar: nine.alt
Encoding: 65543 -1 348
Width: 1254
GlyphClass: 2
Flags: W
LayerCount: 2
UndoRedoHistory
Layer: 1
Undoes
EndUndoes
Redoes
EndRedoes
EndUndoRedoHistory
Fore
SplineSet
597 -119 m 1,0,-1
 411 -6 l 1,1,-1
 709 529 l 1,2,3
 698 523 698 523 623 523 c 0,4,5
 497 523 497 523 388.5 585.5 c 128,-1,6
 280 648 280 648 215.5 757.5 c 128,-1,7
 151 867 151 867 151 997 c 0,8,9
 151 1092 151 1092 180 1173 c 128,-1,10
 209 1254 209 1254 258 1309.5 c 128,-1,11
 307 1365 307 1365 370.5 1404.5 c 128,-1,12
 434 1444 434 1444 503.5 1462 c 128,-1,13
 573 1480 573 1480 643 1480 c 0,14,15
 714 1480 714 1480 782.5 1461 c 128,-1,16
 851 1442 851 1442 914 1402.5 c 128,-1,17
 977 1363 977 1363 1025 1306.5 c 128,-1,18
 1073 1250 1073 1250 1101.5 1168.5 c 128,-1,19
 1130 1087 1130 1087 1130 992 c 0,20,21
 1130 905 1130 905 1075.5 765.5 c 128,-1,22
 1021 626 1021 626 952 511 c 1,23,-1
 597 -119 l 1,0,-1
656 714 m 0,24,25
 758 714 758 714 834.5 792 c 128,-1,26
 911 870 911 870 911 1009 c 0,27,28
 911 1096 911 1096 872 1157.5 c 128,-1,29
 833 1219 833 1219 776 1245.5 c 128,-1,30
 719 1272 719 1272 652 1272 c 0,31,32
 546 1272 546 1272 467 1205 c 128,-1,33
 388 1138 388 1138 388 1011 c 0,34,35
 388 873 388 873 469 793.5 c 128,-1,36
 550 714 550 714 656 714 c 0,24,25
EndSplineSet
EndChar

StartChar: one.alt
Encoding: 65544 -1 349
Width: 999
GlyphClass: 2
Flags: W
LayerCount: 2
UndoRedoHistory
Layer: 1
Undoes
EndUndoes
Redoes
EndRedoes
EndUndoRedoHistory
Fore
SplineSet
471 0 m 1,0,-1
 471 1241 l 1,1,2
 394 1182 394 1182 195 1099 c 1,3,-1
 135 1270 l 1,4,5
 229 1312 229 1312 329 1366 c 128,-1,6
 429 1420 429 1420 477 1456 c 1,7,-1
 721 1456 l 1,8,-1
 721 0 l 1,9,-1
 471 0 l 1,0,-1
EndSplineSet
EndChar

StartChar: uniF6C3
Encoding: 65545 -1 350
Width: 1065
GlyphClass: 2
Flags: W
LayerCount: 2
UndoRedoHistory
Layer: 1
Undoes
EndUndoes
Redoes
EndRedoes
EndUndoRedoHistory
Fore
SplineSet
303 -612 m 1,0,-1
 428 -69 l 1,1,-1
 647 -69 l 1,2,-1
 456 -612 l 1,3,-1
 303 -612 l 1,0,-1
EndSplineSet
EndChar

